<svg id="visual" viewBox="0 0 900 600" width="900" height="600" xmlns="http://www.w3.org/2000/svg" xmlns:xlink="http://www.w3.org/1999/xlink" version="1.1"><rect x="0" y="0" width="900" height="600" fill="#24324c"></rect><defs><linearGradient id="grad1_0" x1="33.3%" y1="100%" x2="100%" y2="0%"><stop offset="20%" stop-color="#9ad9ec" stop-opacity="1"></stop><stop offset="80%" stop-color="#9ad9ec" stop-opacity="1"></stop></linearGradient></defs><defs><linearGradient id="grad1_1" x1="33.3%" y1="100%" x2="100%" y2="0%"><stop offset="20%" stop-color="#9ad9ec" stop-opacity="1"></stop><stop offset="80%" stop-color="#59819c" stop-opacity="1"></stop></linearGradient></defs><defs><linearGradient id="grad1_2" x1="33.3%" y1="100%" x2="100%" y2="0%"><stop offset="20%" stop-color="#24324c" stop-opacity="1"></stop><stop offset="80%" stop-color="#59819c" stop-opacity="1"></stop></linearGradient></defs><defs><linearGradient id="grad2_0" x1="0%" y1="100%" x2="66.7%" y2="0%"><stop offset="20%" stop-color="#9ad9ec" stop-opacity="1"></stop><stop offset="80%" stop-color="#9ad9ec" stop-opacity="1"></stop></linearGradient></defs><defs><linearGradient id="grad2_1" x1="0%" y1="100%" x2="66.7%" y2="0%"><stop offset="20%" stop-color="#59819c" stop-opacity="1"></stop><stop offset="80%" stop-color="#9ad9ec" stop-opacity="1"></stop></linearGradient></defs><defs><linearGradient id="grad2_2" x1="0%" y1="100%" x2="66.7%" y2="0%"><stop offset="20%" stop-color="#59819c" stop-opacity="1"></stop><stop offset="80%" stop-color="#24324c" stop-opacity="1"></stop></linearGradient></defs><g transform="translate(900, 600)"><path d="M-351.5 0C-333.4 -46.7 -315.2 -93.4 -281.8 -116.7C-248.4 -140.1 -199.6 -140.1 -177.5 -177.5C-155.3 -214.9 -159.7 -289.6 -134.5 -324.8C-109.4 -360 -54.7 -355.8 0 -351.5L0 0Z" fill="#3e5874"></path><path d="M-234.4 0C-222.3 -31.1 -210.1 -62.2 -187.9 -77.8C-165.6 -93.4 -133.1 -93.4 -118.3 -118.3C-103.5 -143.2 -106.5 -193 -89.7 -216.5C-72.9 -240 -36.5 -237.2 0 -234.4L0 0Z" fill="#78acc4"></path><path d="M-117.2 0C-111.1 -15.6 -105.1 -31.1 -93.9 -38.9C-82.8 -46.7 -66.5 -46.7 -59.2 -59.2C-51.8 -71.6 -53.2 -96.5 -44.8 -108.3C-36.5 -120 -18.2 -118.6 0 -117.2L0 0Z" fill="#9ad9ec"></path></g><g transform="translate(0, 0)"><path d="M351.5 0C304.3 30.1 257.1 60.2 242.1 100.3C227 140.4 244.2 190.4 231.9 231.9C219.7 273.4 178.1 306.3 134.5 324.8C91 343.3 45.5 347.4 0 351.5L0 0Z" fill="#3e5874"></path><path d="M234.4 0C202.9 20.1 171.4 40.1 161.4 66.8C151.3 93.6 162.8 127 154.6 154.6C146.5 182.3 118.7 204.2 89.7 216.5C60.7 228.9 30.3 231.6 0 234.4L0 0Z" fill="#78acc4"></path><path d="M117.2 0C101.4 10 85.7 20.1 80.7 33.4C75.7 46.8 81.4 63.5 77.3 77.3C73.2 91.1 59.4 102.1 44.8 108.3C30.3 114.4 15.2 115.8 0 117.2L0 0Z" fill="#9ad9ec"></path></g></svg>