<?xml version="1.0" standalone="no"?>
<svg xmlns:xlink="http://www.w3.org/1999/xlink" id="wave" style="transform:rotate(0deg); transition: 0.3s" viewBox="0 0 1440 250" version="1.1" xmlns="http://www.w3.org/2000/svg"><defs><linearGradient id="sw-gradient-0" x1="0" x2="0" y1="1" y2="0"><stop stop-color="rgba(165, 203, 248, 1)" offset="0%"/><stop stop-color="rgba(211, 229, 253, 1)" offset="100%"/></linearGradient></defs><path style="transform:translate(0, 0px); opacity:1" fill="url(#sw-gradient-0)" d="M0,200L26.7,200C53.3,200,107,200,160,175C213.3,150,267,100,320,100C373.3,100,427,150,480,162.5C533.3,175,587,150,640,133.3C693.3,117,747,108,800,108.3C853.3,108,907,117,960,137.5C1013.3,158,1067,192,1120,170.8C1173.3,150,1227,75,1280,75C1333.3,75,1387,150,1440,187.5C1493.3,225,1547,225,1600,212.5C1653.3,200,1707,175,1760,145.8C1813.3,117,1867,83,1920,66.7C1973.3,50,2027,50,2080,54.2C2133.3,58,2187,67,2240,66.7C2293.3,67,2347,58,2400,50C2453.3,42,2507,33,2560,54.2C2613.3,75,2667,125,2720,137.5C2773.3,150,2827,125,2880,133.3C2933.3,142,2987,183,3040,187.5C3093.3,192,3147,158,3200,154.2C3253.3,150,3307,175,3360,158.3C3413.3,142,3467,83,3520,83.3C3573.3,83,3627,142,3680,162.5C3733.3,183,3787,167,3813,158.3L3840,150L3840,250L3813.3,250C3786.7,250,3733,250,3680,250C3626.7,250,3573,250,3520,250C3466.7,250,3413,250,3360,250C3306.7,250,3253,250,3200,250C3146.7,250,3093,250,3040,250C2986.7,250,2933,250,2880,250C2826.7,250,2773,250,2720,250C2666.7,250,2613,250,2560,250C2506.7,250,2453,250,2400,250C2346.7,250,2293,250,2240,250C2186.7,250,2133,250,2080,250C2026.7,250,1973,250,1920,250C1866.7,250,1813,250,1760,250C1706.7,250,1653,250,1600,250C1546.7,250,1493,250,1440,250C1386.7,250,1333,250,1280,250C1226.7,250,1173,250,1120,250C1066.7,250,1013,250,960,250C906.7,250,853,250,800,250C746.7,250,693,250,640,250C586.7,250,533,250,480,250C426.7,250,373,250,320,250C266.7,250,213,250,160,250C106.7,250,53,250,27,250L0,250Z"/><defs><linearGradient id="sw-gradient-1" x1="0" x2="0" y1="1" y2="0"><stop stop-color="rgba(165, 203, 248, 1)" offset="0%"/><stop stop-color="rgba(211, 229, 253, 1)" offset="100%"/></linearGradient></defs><path style="transform:translate(0, 50px); opacity:0.9" fill="url(#sw-gradient-1)" d="M0,125L26.7,104.2C53.3,83,107,42,160,50C213.3,58,267,117,320,137.5C373.3,158,427,142,480,129.2C533.3,117,587,108,640,116.7C693.3,125,747,150,800,158.3C853.3,167,907,158,960,133.3C1013.3,108,1067,67,1120,75C1173.3,83,1227,142,1280,141.7C1333.3,142,1387,83,1440,58.3C1493.3,33,1547,42,1600,70.8C1653.3,100,1707,150,1760,141.7C1813.3,133,1867,67,1920,33.3C1973.3,0,2027,0,2080,20.8C2133.3,42,2187,83,2240,112.5C2293.3,142,2347,158,2400,150C2453.3,142,2507,108,2560,100C2613.3,92,2667,108,2720,108.3C2773.3,108,2827,92,2880,79.2C2933.3,67,2987,58,3040,66.7C3093.3,75,3147,100,3200,95.8C3253.3,92,3307,58,3360,62.5C3413.3,67,3467,108,3520,141.7C3573.3,175,3627,200,3680,183.3C3733.3,167,3787,108,3813,79.2L3840,50L3840,250L3813.3,250C3786.7,250,3733,250,3680,250C3626.7,250,3573,250,3520,250C3466.7,250,3413,250,3360,250C3306.7,250,3253,250,3200,250C3146.7,250,3093,250,3040,250C2986.7,250,2933,250,2880,250C2826.7,250,2773,250,2720,250C2666.7,250,2613,250,2560,250C2506.7,250,2453,250,2400,250C2346.7,250,2293,250,2240,250C2186.7,250,2133,250,2080,250C2026.7,250,1973,250,1920,250C1866.7,250,1813,250,1760,250C1706.7,250,1653,250,1600,250C1546.7,250,1493,250,1440,250C1386.7,250,1333,250,1280,250C1226.7,250,1173,250,1120,250C1066.7,250,1013,250,960,250C906.7,250,853,250,800,250C746.7,250,693,250,640,250C586.7,250,533,250,480,250C426.7,250,373,250,320,250C266.7,250,213,250,160,250C106.7,250,53,250,27,250L0,250Z"/></svg>