<?xml version="1.0" encoding="UTF-8" standalone="no"?>
<!-- Generator: Adobe Illustrator 19.2.1, SVG Export Plug-In . SVG Version: 6.00 Build 0)  -->

<svg
   version="1.1"
   id="layer"
   x="0px"
   y="0px"
   viewBox="0 0 600 231.2"
   xml:space="preserve"
   sodipodi:docname="telia-logo.svg"
   width="600"
   height="231.2"
   inkscape:version="1.2.2 (b0a8486, 2022-12-01)"
   xmlns:inkscape="http://www.inkscape.org/namespaces/inkscape"
   xmlns:sodipodi="http://sodipodi.sourceforge.net/DTD/sodipodi-0.dtd"
   xmlns="http://www.w3.org/2000/svg"
   xmlns:svg="http://www.w3.org/2000/svg"><defs
   id="defs13" /><sodipodi:namedview
   id="namedview11"
   pagecolor="#ffffff"
   bordercolor="#000000"
   borderopacity="0.25"
   inkscape:showpageshadow="2"
   inkscape:pageopacity="0.0"
   inkscape:pagecheckerboard="0"
   inkscape:deskcolor="#d1d1d1"
   showgrid="false"
   inkscape:zoom="2.7504316"
   inkscape:cx="258.50488"
   inkscape:cy="160.52026"
   inkscape:window-width="1920"
   inkscape:window-height="1147"
   inkscape:window-x="1440"
   inkscape:window-y="25"
   inkscape:window-maximized="1"
   inkscape:current-layer="layer" />
<style
   type="text/css"
   id="style2">
	.st0{fill:#9909E3;}
	.st1{fill:#FFFFFF;}
</style>



<path
   class="st0"
   d="m 273.10001,86.199997 c -3,0 -6.1,-2.2 -9.1,-6.7 -2,-3.1 -3,-5.499997 -3,-7.099997 0,-2.8 1.8,-5.3 5.5,-7.7 3.6,-2.3 7.7,-3.6 12,-3.5 h 71.4 c 4.5,0 6.8,2.1 6.8,6.2 0,4.6 -1.3,9.099997 -3.8,12.999997 -2.6,3.9 -5.3,5.9 -8.4,5.9 h -23.2 v 78.000013 c 0,4.7 -1.3,9 -3.8,12.9 -2.6,3.9 -5.4,5.9 -8.4,5.9 -3,0 -6.1,-2.2 -9.1,-6.7 -2,-3.1 -3,-5.5 -3,-7.1 V 86.299997 h -23.9 z m 110.8,25.900013 c -5.6,0 -10.4,1.6 -14.3,4.7 -4,3.2 -6.4,7.4 -7.3,12.7 h 41.2 c -0.2,-4.8 -2.3,-9.3 -5.9,-12.4 -3.8,-3.4 -8.3,-5 -13.7,-5 z m -21.6,34.8 c 1.3,5.4 4.1,9.7 8.4,13 4.3,3.3 9.5,4.9 15.5,4.9 5.1,0 11.2,-1.7 18.3,-5.2 3.3,-1.6 6.3,-2.4 9.1,-2.4 3.7,0 5.6,1.7 5.6,5 0,3 -0.7,5.9 -2,8.6 -1.3,2.8 -3,4.8 -5.1,6 -4.1,2.5 -8.5,4.4 -13.2,5.6 -4.7,1.3 -9.5,2 -14.4,2 -8.4,0 -16,-2.2 -22.9,-6.6 -6.7,-4.2 -12.3,-10 -16.2,-16.9 -3.8,-6.7 -5.8,-14.3 -5.8,-22.1 0,-8.7 2.1,-16.7 6.3,-23.7 4.2,-7.1 9.7,-12.5 16.4,-16.400008 6.7,-3.900005 14.4,-5.800005 22.2,-5.800005 7.8,0 14.8,1.8 21,5.400005 6.2,3.600008 11,8.400008 14.4,14.400008 3.4,6 5.1,12.8 5.1,19.7 0,3.5 -1,7 -2.9,9.9 -1.9,2.9 -4,4.4 -6.4,4.4 z m 95,36.1 c -5.2,0 -9.8,-2 -13.6,-6.1 -3.8,-3.8 -5.8,-9 -5.8,-14.4 V 70.9 c 0,-2.5 1.8,-4.9 5.3,-7.2 3.4,-2.2 7.4,-3.4 11.4,-3.4 4.3,0 6.5,2 6.5,5.9 v 89.00001 c 0,1.5 0.3,2.7 1,3.7 0.6,1 1.8,1.8 3.4,2.5 1.9,0.8 2.8,2.4 2.8,4.8 0,4.3 -1.2,8.1 -3.5,11.6 -2.4,3.4 -4.9,5.2 -7.5,5.2 m 35.2,0 c -2.7,0 -5.6,-2.2 -8.7,-6.6 -1.9,-3 -2.8,-5.2 -2.8,-6.7 v -64.4 c 0,-2.5 1.8,-4.9 5.3,-7.200008 3.4,-2.200005 7.4,-3.400005 11.4,-3.400005 4.3,0 6.5,1.9 6.5,5.900013 v 64.3 c 0,3.1 -0.6,6.1 -1.8,9 -1.2,2.9 -2.7,5.1 -4.5,6.7 -1.8,1.6 -3.6,2.4 -5.4,2.4 m 0,-99.400013 c -3,0 -6.2,-2.4 -9.4,-7.1 -2.2,-3.299997 -3.3,-5.899997 -3.3,-7.799997 0,-2.9 2,-5.6 5.9,-8.1 3.8,-2.5 8.2,-3.8 12.7,-3.8 4.9,0 7.3,2.2 7.3,6.6 0,3.4 -0.7,6.8 -2,9.9 -1.3,3.199997 -3,5.699997 -5.1,7.499997 -1.9,1.9 -4,2.8 -6.1,2.8 m 69.5,78.000013 c 5.2,0 10.3,-1.5 14.7,-4.3 v -39.2 c -4.3,-2.4 -9.1,-3.6 -14.5,-3.6 -6.6,0 -12.2,2.2 -16.7,6.7 -4.5,4.4 -6.7,10 -6.7,16.6 0,6.7 2.2,12.3 6.7,16.9 4.5,4.6 10,6.9 16.5,6.9 m -1.6,21.4 c -8.4,0 -16,-2.1 -22.8,-6.2 -6.6,-4 -12.1,-9.6 -15.9,-16.3 -3.8,-6.7 -5.7,-14.3 -5.7,-22 0,-8.5 2.2,-16.3 6.5,-23.3 4.3,-7 9.9,-12.5 16.8,-16.300008 6.8,-3.800005 14.4,-5.800005 22.2,-5.800005 6.8,0 13.3,1.8 19.7,5.500005 4.1,-2.700005 8.1,-4.000005 12.2,-4.000005 4.3,0 6.5,2 6.5,5.900013 v 64.4 c 0,3.1 -0.6,6.1 -1.8,9 -1.2,2.9 -2.7,5.1 -4.5,6.7 -1.8,1.6 -3.6,2.4 -5.3,2.4 -2.7,0 -5.6,-2.2 -8.7,-6.6 -1,-1.5 -1.8,-3.1 -2.4,-4.8 -0.9,2.4 -2.1,4.6 -3.8,6.6 -1.6,1.8 -3.2,3 -5,3.6 -2.5,0.8 -5.2,1.2 -8,1.2 m -406.3,-11 c 30.3,-17.4 52,-39.2 62,-62.5 4.3,-17.600013 6.5,-35.60001 6.5,-53.80001 0,-2.7 -0.1,-5.2 -0.4,-7.6 -1.8,28.099997 -38.6,63.50001 -87.2,86.60001 -58.700008,27.9 -102.70001,35.4 -122.40001,14.1 6.8,13.3 16,26.8 26.3,38.8 24.3,21.2 64.10001,13.6 115.20001,-15.6"
   id="path4"
   style="fill:#9909e3" /><path
   class="st0"
   d="m 128.20001,114.80001 c 55.4,-26.400013 93.9,-63.90001 87.2,-88.80001 -11.1,-18.8000001 -33.4,-26 -57.3,-26 C 87.100002,0 0,46.3 0,105.30001 c 0,7.6 1.7,16.1 4.7,25 16.1,21.1 65.6,12 123.50001,-15.5 m -4.7,83.6 c -38.900008,15.6 -61.20001,10.6 -73.50001,0.9 l -0.2,-0.1 c 19.1,18.8 40.800002,32 59.90001,32 33.4,0 79,-40 100.7,-102.1 -12.3,22.4 -38.4,49.9 -86.9,69.3"
   id="path6"
   style="fill:#9909e3" /><path
   class="st1"
   d="m 123.50001,198.40001 c 48.5,-19.4 74.6,-46.9 86.8,-69.3 2.2,-6.3 4.1,-12.9 5.8,-19.6 -10,23.2 -31.7,45.1 -62,62.5 -51.1,29.3 -90.90001,36.9 -115.10001,15.6 3.4,4 7,7.8 10.8,11.5 l 0.2,0.1 c 12.3,9.8 34.600002,14.8 73.50001,-0.8 m 11.5,-63.7 c 48.7,-23.1 85.4,-58.500013 87.2,-86.60001 -0.9,-8.7 -3.3,-16.1 -6.8,-22.2 6.7,24.9 -31.8,62.399997 -87.2,88.80001 -57.90001,27.6 -107.40001,36.6 -123.60001,15.4 2.0999999,6.1 4.7999999,12.4 8,18.7 19.7,21.3 63.700002,13.8 122.40001,-14.1"
   id="path8"
   style="fill:#ffffff" /></svg>
