<svg xmlns="http://www.w3.org/2000/svg" version="1.1" xmlns:xlink="http://www.w3.org/1999/xlink" xmlns:svgjs="http://svgjs.dev/svgjs" viewBox="0 0 2400 800"><g fill="hsl(224, 40%, 80%)" transform="matrix(1,0,0,1,0,7.2422027587890625)"><path d="M 0 321.01320490035965 Q 140.3307320003542 450 240 325.95061229748615 Q 329.5154326465291 450 480 319.28914693687415 Q 582.782224417579 450 720 315.6297977557456 Q 882.5651083900927 450 960 315.5155974060023 Q 1113.868136042436 450 1200 318.6045329540379 Q 1351.092698829882 450 1440 324.67351753032136 Q 1558.839939063607 450 1680 322.6258980126889 Q 1766.65217094349 450 1920 316.09520765422513 Q 2083.3084214826094 450 2160 322.252354003163 Q 2327.196716535713 450 2400 321.665260663467 L 2400 800 L 0 800 L 0 322.7356518911218 Z" transform="matrix(1,0,0,1,0,35)" opacity="NaN"></path></g></svg>