<svg id="visual" viewBox="0 0 1920 1080" width="1920" height="1080" xmlns="http://www.w3.org/2000/svg" xmlns:xlink="http://www.w3.org/1999/xlink" version="1.1"><rect x="0" y="0" width="1920" height="1080" fill="#f2f2f2"></rect><path d="M0 820L45.7 800C91.3 780 182.7 740 274.2 725.8C365.7 711.7 457.3 723.3 548.8 731.8C640.3 740.3 731.7 745.7 823 759.5C914.3 773.3 1005.7 795.7 1097 771.7C1188.3 747.7 1279.7 677.3 1371.2 636.7C1462.7 596 1554.3 585 1645.8 592C1737.3 599 1828.7 624 1874.3 636.5L1920 649L1920 1081L1874.3 1081C1828.7 1081 1737.3 1081 1645.8 1081C1554.3 1081 1462.7 1081 1371.2 1081C1279.7 1081 1188.3 1081 1097 1081C1005.7 1081 914.3 1081 823 1081C731.7 1081 640.3 1081 548.8 1081C457.3 1081 365.7 1081 274.2 1081C182.7 1081 91.3 1081 45.7 1081L0 1081Z" fill="#f34b8c"></path><path d="M0 902L45.7 899.5C91.3 897 182.7 892 274.2 901.7C365.7 911.3 457.3 935.7 548.8 926.2C640.3 916.7 731.7 873.3 823 856.5C914.3 839.7 1005.7 849.3 1097 847.7C1188.3 846 1279.7 833 1371.2 828.5C1462.7 824 1554.3 828 1645.8 823.2C1737.3 818.3 1828.7 804.7 1874.3 797.8L1920 791L1920 1081L1874.3 1081C1828.7 1081 1737.3 1081 1645.8 1081C1554.3 1081 1462.7 1081 1371.2 1081C1279.7 1081 1188.3 1081 1097 1081C1005.7 1081 914.3 1081 823 1081C731.7 1081 640.3 1081 548.8 1081C457.3 1081 365.7 1081 274.2 1081C182.7 1081 91.3 1081 45.7 1081L0 1081Z" fill="#874285"></path></svg>