<?xml version="1.0" encoding="UTF-8" standalone="no"?>
<!-- Created with Inkscape (http://www.inkscape.org/) -->

<svg
   width="55.355831mm"
   height="42.933605mm"
   viewBox="0 0 55.355831 42.933605"
   version="1.1"
   id="svg4443"
   xmlns="http://www.w3.org/2000/svg"
   xmlns:svg="http://www.w3.org/2000/svg">
  <defs
     id="defs4440">
    <clipPath
       clipPathUnits="userSpaceOnUse"
       id="clipPath2449">
      <path
         d="m 292.796,236.633 h 41.726 V 201.56 h -41.726 z"
         id="path2447" />
    </clipPath>
    <clipPath
       clipPathUnits="userSpaceOnUse"
       id="clipPath2493">
      <path
         d="m 185.728,242.348 h 90.33 V 196.08 h -90.33 z"
         id="path2491" />
    </clipPath>
    <clipPath
       clipPathUnits="userSpaceOnUse"
       id="clipPath2509">
      <path
         d="m 248.183,235.749 h 8.264 v -7.619 h -8.264 z"
         id="path2507" />
    </clipPath>
    <clipPath
       clipPathUnits="userSpaceOnUse"
       id="clipPath2525">
      <path
         d="m 255.641,250.573 h 9.652 v -15.556 h -9.652 z"
         id="path2523" />
    </clipPath>
    <clipPath
       clipPathUnits="userSpaceOnUse"
       id="clipPath2557">
      <path
         d="m 224.065,310.259 h 5.698 v -5.084 h -5.698 z"
         id="path2555" />
    </clipPath>
    <clipPath
       clipPathUnits="userSpaceOnUse"
       id="clipPath2541">
      <path
         d="m 209.447,312.159 h 12.391 v -8.884 h -12.391 z"
         id="path2539" />
    </clipPath>
  </defs>
  <g
     id="layer1"
     transform="translate(-62.93226,-52.783202)">
    <g
       id="g2415"
       transform="matrix(0.35277777,0,0,-0.35277777,95.263487,90.637475)">
      <path
         d="M 0,0 C -1.508,-3.12 -8.712,-1.158 -6.87,2.467 -5.165,5.819 1.508,3.12 0,0 m -10.645,3.845 c -3.893,-7.657 11.324,-11.801 14.508,-5.21 3.185,6.59 -10.907,12.291 -14.508,5.21"
         style="fill:#322857;fill-opacity:1;fill-rule:nonzero;stroke:none"
         id="path2417" />
    </g>
    <g
       id="g2419"
       transform="matrix(0.35277777,0,0,-0.35277777,100.458,93.867935)">
      <path
         d="M 0,0 C -0.898,-3.347 -8.342,-2.766 -7.209,1.14 -6.161,4.752 0.898,3.347 0,0 M -11.176,1.788 C -13.569,-6.461 2.153,-7.689 4.051,-0.62 5.948,6.449 -8.961,9.418 -11.176,1.788"
         style="fill:#322857;fill-opacity:1;fill-rule:nonzero;stroke:none"
         id="path2421" />
    </g>
    <g
       id="g2423"
       transform="matrix(0.35277777,0,0,-0.35277777,105.65149,90.000815)">
      <path
         d="M 0,0 C 0.783,-3.376 -6.058,-6.367 -6.896,-2.389 -7.672,1.292 -0.783,3.376 0,0 M -10.701,-3.684 C -8.93,-12.088 5.52,-5.77 3.866,1.36 2.212,8.49 -12.339,4.09 -10.701,-3.684"
         style="fill:#322857;fill-opacity:1;fill-rule:nonzero;stroke:none"
         id="path2425" />
    </g>
    <g
       id="g2427"
       transform="matrix(0.35277777,0,0,-0.35277777,94.752241,90.422135)">
      <path
         d="M 0,0 C -2.781,-2.967 8.066,-10.897 10.106,-8.972 12.146,-7.047 2.692,2.871 0,0"
         style="fill:#322857;fill-opacity:1;fill-rule:nonzero;stroke:none"
         id="path2429" />
    </g>
    <g
       id="g2431"
       transform="matrix(0.35277777,0,0,-0.35277777,99.847693,93.518255)">
      <path
         d="M 0,0 C 2.107,-3.479 12.668,4.829 11.364,7.312 10.061,9.796 -2.039,3.366 0,0"
         style="fill:#322857;fill-opacity:1;fill-rule:nonzero;stroke:none"
         id="path2433" />
    </g>
    <g
       id="g2435"
       transform="matrix(0.35277777,0,0,-0.35277777,118.28809,86.055135)">
      <path
         d="m 0,0 c 0,-2.859 -0.555,-5.599 -1.573,-8.097 -3.202,-7.94 -10.975,-13.548 -20.072,-13.548 -11.956,0 -21.654,9.689 -21.654,21.645 0,5.071 1.749,9.744 4.674,13.428 3.96,5.006 10.095,8.218 16.98,8.218 C -9.689,21.646 0,11.956 0,0"
         style="fill:#322857;fill-opacity:1;fill-rule:nonzero;stroke:none"
         id="path2437" />
    </g>
    <g
       id="g2439"
       transform="matrix(0.35277777,0,0,-0.35277777,111.50537,81.043225)">
      <path
         d="m 0,0 c 0.602,-1.156 1.816,-1.831 2.894,-2.565 5.513,-3.759 8.521,-10.517 8.778,-17.185 0.609,0.083 1.079,0.568 1.452,1.058 2.065,2.713 2.626,6.405 1.866,9.729 -0.761,3.325 -2.745,6.289 -5.249,8.606 C 7.91,1.337 5.731,2.662 3.225,2.983 1.343,3.226 -1.419,2.731 0,0"
         style="fill:#ffffff;fill-opacity:1;fill-rule:nonzero;stroke:none"
         id="path2441" />
    </g>
    <g
       id="g2443"
       transform="matrix(0.35277777,0,0,-0.35277777,-0.27885847,164.79693)">
      <g
         id="g2445" />
      <g
         id="g2457">
        <g
           clip-path="url(#clipPath2449)"
           opacity="0.199997"
           id="g2455">
          <g
             transform="translate(334.5221,215.1084)"
             id="g2453">
            <path
               d="m 0,0 c -3.202,-7.94 -10.975,-13.548 -20.072,-13.548 -11.956,0 -21.654,9.689 -21.654,21.645 0,5.071 1.749,9.744 4.674,13.427 -0.297,-2.286 -0.306,-4.618 -0.074,-6.903 0.25,-2.471 0.758,-4.923 1.758,-7.19 2.831,-6.441 9.763,-10.809 16.796,-10.698 4.442,0.065 8.671,1.721 13.01,2.665 C -3.757,-0.213 -1.86,0.037 0,0"
               style="fill:#ad674a;fill-opacity:1;fill-rule:nonzero;stroke:none"
               id="path2451" />
          </g>
        </g>
      </g>
    </g>
    <g
       id="g2459"
       transform="matrix(0.35277777,0,0,-0.35277777,97.108338,79.568045)">
      <path
         d="m 0,0 c -3.08,-24.671 -15.91,-38.96 -21.68,-40.37 -7,-1.721 -13.02,6.109 -13.02,6.109 0,0 -4.59,-9.319 -12.54,-10.66 -7.95,-1.329 -8.71,10.691 -8.71,10.691 0,0 -6.73,-13.661 -13.48,-10.92 -6.76,2.74 -6.77,9.69 -6.77,9.69 0,0 -9.25,-5.66 -13.38,0 -2.22,3.05 0.91,12.89 3.9,24.899 2.56,10.26 5.01,22.111 3.94,32.671 -2.06,20.2 0.6,53.369 33.27,53.809 C -13.79,76.38 -1.75,52.43 0.48,17.229 0.87,11.03 0.66,5.279 0,0"
         style="fill:#e5e3cf;fill-opacity:1;fill-rule:nonzero;stroke:none"
         id="path2461" />
    </g>
    <g
       id="g2463"
       transform="matrix(0.35277777,0,0,-0.35277777,72.340872,67.075765)">
      <path
         d="M 0,0 C -5.308,-1.816 -3.689,-10.927 2.756,-9.733 9.201,-8.539 5.308,1.816 0,0"
         style="fill:#322857;fill-opacity:1;fill-rule:nonzero;stroke:none"
         id="path2465" />
    </g>
    <g
       id="g2467"
       transform="matrix(0.35277777,0,0,-0.35277777,92.761128,67.075765)">
      <path
         d="M 0,0 C 5.308,-1.816 3.689,-10.927 -2.756,-9.733 -9.201,-8.539 -5.308,1.816 0,0"
         style="fill:#322857;fill-opacity:1;fill-rule:nonzero;stroke:none"
         id="path2469" />
    </g>
    <g
       id="g2471"
       transform="matrix(0.35277777,0,0,-0.35277777,70.218702,72.060835)">
      <path
         d="m 0,0 c 0,0 -9.102,-1.82 -13.043,7.548 -3.942,9.368 -9.25,2.29 -7.127,-5.141 2.123,-7.431 7.002,-14.574 17.302,-16.665"
         style="fill:#e5e3cf;fill-opacity:1;fill-rule:nonzero;stroke:none"
         id="path2473" />
    </g>
    <g
       id="g2475"
       transform="matrix(0.35277777,0,0,-0.35277777,94.789107,72.060835)">
      <path
         d="m 0,0 c 0,0 9.102,-1.82 13.043,7.548 3.942,9.368 9.25,2.29 7.127,-5.141 -2.123,-7.431 -7.003,-14.574 -17.302,-16.665"
         style="fill:#e5e3cf;fill-opacity:1;fill-rule:nonzero;stroke:none"
         id="path2477" />
    </g>
    <g
       id="g2479"
       transform="matrix(0.35277777,0,0,-0.35277777,87.60454,69.489225)">
      <path
         d="M 0,0 C -0.166,0.485 -2.617,0.942 -6.009,1.273 -6.057,1.135 -6.092,0.992 -6.148,0.857 c -0.391,-0.948 -1.155,-1.919 -2.181,-1.899 -0.667,0.012 -1.25,0.45 -1.709,0.933 -0.453,0.478 -0.829,1.105 -0.985,1.741 -7.919,0.393 -17.233,0.11 -17.447,-1.632 -0.41,-3.26 0.86,-5.86 4.6,-7.5 2.45,-1.07 5.96,-1.74 10.75,-1.91 2.18,-0.08 4.03,0.12 5.57,0.52 C -0.51,-7.11 0.48,-1.38 0,0"
         style="fill:#322857;fill-opacity:1;fill-rule:nonzero;stroke:none"
         id="path2481" />
    </g>
    <g
       id="g2483"
       transform="matrix(0.35277777,0,0,-0.35277777,84.940962,72.625485)">
      <path
         d="m 0,0 c -1.54,-0.4 -3.39,-0.6 -5.57,-0.52 -4.79,0.17 -8.3,0.84 -10.75,1.91 1.08,2.26 4.43,3.83 7.2,4.03 C -6.11,5.65 -3.01,4.3 -1.16,1.91 -0.7,1.32 -0.32,0.68 0,0"
         style="fill:#ff95ca;fill-opacity:1;fill-rule:nonzero;stroke:none"
         id="path2485" />
    </g>
    <g
       id="g2487"
       transform="matrix(0.35277777,0,0,-0.35277777,-0.27885847,164.79693)">
      <g
         id="g2489" />
      <g
         id="g2501">
        <g
           clip-path="url(#clipPath2493)"
           opacity="0.199997"
           id="g2499">
          <g
             transform="translate(276.0582,241.5937)"
             id="g2497">
            <path
               d="m 0,0 c -3.08,-24.671 -15.91,-38.96 -21.68,-40.37 -7,-1.721 -13.02,6.109 -13.02,6.109 0,0 -4.59,-9.319 -12.54,-10.66 -7.95,-1.329 -8.71,10.691 -8.71,10.691 0,0 -6.73,-13.661 -13.48,-10.92 -6.76,2.74 -6.77,9.69 -6.77,9.69 0,0 -9.25,-5.66 -13.38,0 -2.22,3.05 0.91,12.89 3.9,24.899 0.22,-2.29 0.62,-4.549 1.2,-6.769 0.88,-3.37 3.38,-7.341 6.76,-6.481 1.33,0.34 2.34,1.38 3.5,2.14 1.15,0.75 2.78,1.171 3.82,0.271 0.91,-0.781 0.91,-2.161 1.32,-3.3 0.99,-2.78 4.67,-3.88 7.43,-2.84 2.77,1.029 4.68,3.619 5.89,6.31 1.23,2.73 1.95,5.759 3.82,8.1 1.87,2.35 5.5,3.709 7.89,1.89 0.83,-0.63 1.38,-1.561 1.93,-2.45 2.45,-4.05 5.28,-8.19 9.57,-10.18 4.29,-1.981 10.38,-0.79 12.16,3.59 0.65,1.599 0.68,3.469 1.71,4.859 0.73,0.99 1.85,1.591 2.9,2.24 3.84,2.41 6.94,5.981 8.78,10.13 C -6.53,-2 -6.12,-0.88 -5.26,-0.12 -3.83,1.13 -1.73,0.92 0,0"
               style="fill:#ad674a;fill-opacity:1;fill-rule:nonzero;stroke:none"
               id="path2495" />
          </g>
        </g>
      </g>
    </g>
    <g
       id="g2503"
       transform="matrix(0.35277777,0,0,-0.35277777,-0.27885847,164.79693)">
      <g
         id="g2505" />
      <g
         id="g2517">
        <g
           clip-path="url(#clipPath2509)"
           opacity="0.199997"
           id="g2515">
          <g
             transform="translate(248.9288,229.7559)"
             id="g2513">
            <path
               d="m 0,0 c 1.013,-1.299 2.817,-1.841 4.438,-1.549 0.488,0.087 0.966,0.244 1.394,0.495 C 7.555,-0.04 8.03,2.528 6.92,4.191 5.811,5.854 3.423,6.438 1.59,5.64 -0.586,4.691 -1.517,1.944 0,0"
               style="fill:#ad674a;fill-opacity:1;fill-rule:nonzero;stroke:none"
               id="path2511" />
          </g>
        </g>
      </g>
    </g>
    <g
       id="g2519"
       transform="matrix(0.35277777,0,0,-0.35277777,-0.27885847,164.79693)">
      <g
         id="g2521" />
      <g
         id="g2533">
        <g
           clip-path="url(#clipPath2525)"
           opacity="0.199997"
           id="g2531">
          <g
             transform="translate(256.8048,243.6553)"
             id="g2529">
            <path
               d="m 0,0 c -0.629,-1.211 -1.253,-2.509 -1.153,-3.869 0.084,-1.135 0.666,-2.171 1.31,-3.109 0.456,-0.665 1.001,-1.339 1.772,-1.573 1.396,-0.423 2.738,0.761 3.621,1.922 1.479,1.943 2.661,4.195 2.899,6.625 C 8.687,2.427 7.849,5.05 5.912,6.538 3.236,8.594 0.89,1.711 0,0"
               style="fill:#ad674a;fill-opacity:1;fill-rule:nonzero;stroke:none"
               id="path2527" />
          </g>
        </g>
      </g>
    </g>
    <g
       id="g2535"
       transform="matrix(0.35277777,0,0,-0.35277777,-0.27885847,164.79693)">
      <g
         id="g2537" />
      <g
         id="g2549">
        <g
           clip-path="url(#clipPath2541)"
           opacity="0.199997"
           id="g2547">
          <g
             transform="translate(210.6173,308.623)"
             id="g2545">
            <path
               d="m 0,0 c -0.885,-1.011 -1.51,-2.459 -0.969,-3.688 0.403,-0.914 1.378,-1.479 2.366,-1.618 0.989,-0.139 1.993,0.087 2.943,0.392 1.461,0.468 2.862,1.124 4.157,1.948 0.886,0.564 1.746,1.231 2.27,2.142 0.524,0.91 0.649,2.113 0.079,2.995 C 10.206,3.16 8.911,3.491 7.734,3.531 4.665,3.635 2.01,2.296 0,0"
               style="fill:#ad674a;fill-opacity:1;fill-rule:nonzero;stroke:none"
               id="path2543" />
          </g>
        </g>
      </g>
    </g>
    <g
       id="g2551"
       transform="matrix(0.35277777,0,0,-0.35277777,-0.27885847,164.79693)">
      <g
         id="g2553" />
      <g
         id="g2565">
        <g
           clip-path="url(#clipPath2557)"
           opacity="0.199997"
           id="g2563">
          <g
             transform="translate(224.066,307.9619)"
             id="g2561">
            <path
               d="m 0,0 c -0.031,-0.87 0.451,-1.719 1.166,-2.216 0.714,-0.497 1.633,-0.658 2.493,-0.528 0.618,0.093 1.242,0.349 1.62,0.847 0.225,0.296 0.349,0.662 0.397,1.031 C 5.803,0.133 5.348,1.184 4.533,1.775 2.986,2.896 0.078,2.173 0,0"
               style="fill:#ad674a;fill-opacity:1;fill-rule:nonzero;stroke:none"
               id="path2559" />
          </g>
        </g>
      </g>
    </g>
  </g>
</svg>
