<?xml version="1.0" encoding="UTF-8" standalone="no"?>
<!-- Created with Inkscape (http://www.inkscape.org/) -->

<svg
   width="41.491734mm"
   height="48.833378mm"
   viewBox="0 0 41.491734 48.833378"
   version="1.1"
   id="svg7849"
   xmlns="http://www.w3.org/2000/svg"
   xmlns:svg="http://www.w3.org/2000/svg">
  <defs
     id="defs7846">
    <clipPath
       clipPathUnits="userSpaceOnUse"
       id="clipPath2865">
      <path
         d="m 84.4004,146.445 h 26.6576 v -7.631 H 84.4004 Z"
         id="path2863" />
    </clipPath>
    <clipPath
       clipPathUnits="userSpaceOnUse"
       id="clipPath2901">
      <path
         d="M 45.4947,83.5063 H 145.164 V 41.043 H 45.4947 Z"
         id="path2899" />
    </clipPath>
  </defs>
  <g
     id="layer1"
     transform="translate(-96.292266,-95.138399)">
    <g
       id="g2855"
       transform="matrix(0.35277777,0,0,-0.35277777,137.784,128.4171)">
      <path
         d="m 0,0 c 0,-20.215 -16.598,-44.092 -59.777,-44.092 -43.18,0 -56.519,25.289 -57.801,42.658 -1.281,17.37 31.654,33.924 39.714,38.107 6.746,3.497 7.68,18.444 7.919,28.678 0.044,2.008 0.054,3.834 0.087,5.354 h 26.57 c 0,0 -0.239,-2.335 -0.423,-5.801 -0.478,-8.7 -0.652,-24.516 4.03,-28.275 C -33.142,31.372 0,20.216 0,0"
         style="fill:#e5e3cf;fill-opacity:1;fill-rule:nonzero;stroke:none"
         id="path2857" />
    </g>
    <g
       id="g2859"
       transform="matrix(0.35277777,0,0,-0.35277777,83.334411,155.13624)">
      <g
         id="g2861" />
      <g
         id="g2873">
        <g
           clip-path="url(#clipPath2865)"
           opacity="0.199997"
           id="g2871">
          <g
             transform="translate(111.0577,146.4443)"
             id="g2869">
            <path
               d="m 0,0 c 0,0 -0.239,-2.335 -0.424,-5.801 -1.76,-0.967 -3.78,-1.487 -5.789,-1.694 -2.683,-0.282 -5.389,-0.065 -8.072,0.131 -4.171,0.303 -8.484,0.596 -12.372,2.01 0.043,2.008 0.054,3.833 0.087,5.354 z"
               style="fill:#712d51;fill-opacity:1;fill-rule:nonzero;stroke:none"
               id="path2867" />
          </g>
        </g>
      </g>
    </g>
    <g
       id="g2875"
       transform="matrix(0.35277777,0,0,-0.35277777,111.47175,117.07138)">
      <path
         d="m 0,0 c 0,0 20.128,4.084 35.559,-2.969 4.697,-18.124 -22.811,-21.238 -22.811,-21.238 0,0 -24.489,8.734 -12.748,24.207"
         style="fill:#199e43;fill-opacity:1;fill-rule:nonzero;stroke:none"
         id="path2877" />
    </g>
    <g
       id="g2879"
       transform="matrix(0.35277777,0,0,-0.35277777,129.78261,138.04341)">
      <path
         d="m 0,0 c -3.531,-2.509 -8.43,-4.366 -14.078,-5.604 -20.216,-4.389 -50.033,-0.674 -61.309,10.08 -5.443,5.192 -8.549,10.624 -9.918,15.74 -1.488,5.54 -0.956,10.721 0.837,14.838 0.934,2.162 2.205,4.019 3.715,5.497 7.039,6.897 28.851,18.9 28.851,18.9 21.128,-10.775 35.553,-2.975 35.553,-2.975 0,0 8.593,-5.943 16.316,-11.721 3.292,-2.466 6.42,-4.889 8.658,-6.812 0.478,-0.401 0.912,-0.869 1.325,-1.379 1.738,-2.151 2.922,-5.16 3.357,-8.603 C 14.415,19.26 10.862,7.724 0,0"
         style="fill:#32b457;fill-opacity:1;fill-rule:nonzero;stroke:none"
         id="path2881" />
    </g>
    <g
       id="g2883"
       transform="matrix(0.35277777,0,0,-0.35277777,133.29282,125.14427)">
      <path
         d="m 0,0 c -2.053,-1.825 -4.421,-3.292 -6.984,-4.302 -5.443,-2.118 -12.037,-2.488 -15.806,-6.952 -2.727,-3.226 -3.172,-7.832 -2.694,-12.025 0.478,-4.204 1.738,-8.299 1.966,-12.514 0.109,-2.14 -0.065,-4.291 -0.51,-6.376 -20.216,-4.389 -50.034,-0.674 -61.309,10.08 -5.443,5.193 -8.549,10.624 -9.918,15.74 2.292,-0.934 4.508,-2.183 6.746,-3.248 11.384,-5.431 26.624,-5.421 35.021,3.987 2.509,2.802 4.323,6.322 7.463,8.375 4.128,2.715 9.472,2.259 14.36,2.944 8.473,1.173 15.979,6.018 21.682,12.481 3.292,-2.465 6.42,-4.888 8.658,-6.811 C -0.847,0.978 -0.413,0.51 0,0"
         style="fill:#ffe54d;fill-opacity:1;fill-rule:nonzero;stroke:none"
         id="path2885" />
    </g>
    <g
       id="g2887"
       transform="matrix(0.35277777,0,0,-0.35277777,105.04838,130.58753)">
      <path
         d="m 0,0 c 2.872,-1.209 5.935,-2.043 9.051,-2.111 3.116,-0.068 6.292,0.666 8.893,2.383 1.827,1.207 3.446,3.193 3.16,5.364 -0.192,1.467 -1.237,2.708 -2.478,3.512 -1.241,0.804 -2.676,1.244 -4.081,1.706 -5.251,1.728 -9.459,2.622 -14.874,1.06 C -3.585,10.976 -6.047,9.273 -5.422,5.517 -4.938,2.607 -2.536,1.067 0,0"
         style="fill:#ffe54d;fill-opacity:1;fill-rule:nonzero;stroke:none"
         id="path2889" />
    </g>
    <g
       id="g2891"
       transform="matrix(0.35277777,0,0,-0.35277777,114.37804,126.83097)">
      <path
         d="M 0,0 C 0.366,-0.234 0.754,-0.468 1.187,-0.503 1.771,-0.549 2.318,-0.223 2.779,0.14 4.011,1.104 4.951,2.391 5.777,3.72 6.467,4.827 7.108,6.05 7.063,7.354 6.869,13.006 -1.9,12.823 -5.069,10.09 -9.765,6.039 -3.265,2.085 0,0"
         style="fill:#ffe54d;fill-opacity:1;fill-rule:nonzero;stroke:none"
         id="path2893" />
    </g>
    <g
       id="g2895"
       transform="matrix(0.35277777,0,0,-0.35277777,83.334411,155.13624)">
      <g
         id="g2897" />
      <g
         id="g2909">
        <g
           clip-path="url(#clipPath2901)"
           opacity="0.199997"
           id="g2907">
          <g
             transform="translate(131.6642,48.4521)"
             id="g2905">
            <path
               d="m 0,0 c -3.531,-2.509 -8.43,-4.366 -14.078,-5.604 -20.216,-4.389 -50.033,-0.674 -61.309,10.08 -5.443,5.192 -8.549,10.624 -9.918,15.74 -1.488,5.54 -0.956,10.721 0.837,14.838 1.379,-7.245 4.551,-14.089 9.896,-19.075 3.215,-2.998 7.082,-5.213 11.123,-6.941 5.67,-2.434 11.742,-3.933 17.891,-4.433 21.247,-1.705 41.908,8.669 58.028,22.617 0.282,0.239 0.554,0.489 0.837,0.739 C 14.415,19.26 10.862,7.724 0,0"
               style="fill:#712d51;fill-opacity:1;fill-rule:nonzero;stroke:none"
               id="path2903" />
          </g>
        </g>
      </g>
    </g>
    <g
       id="g2911"
       transform="matrix(0.35277777,0,0,-0.35277777,121.61687,117.19129)">
      <path
         d="m 0,0 c 0,-2.859 -10.354,-2.859 -10.354,0 0,2.859 2.318,5.177 5.177,5.177 C -2.318,5.177 0,2.859 0,0"
         style="fill:#32b457;fill-opacity:1;fill-rule:nonzero;stroke:none"
         id="path2913" />
    </g>
    <g
       id="g2915"
       transform="matrix(0.35277777,0,0,-0.35277777,118.28753,113.00374)">
      <path
         d="m 0,0 c 0,-3.182 -2.579,-5.761 -5.76,-5.761 -3.181,0 -5.761,2.579 -5.761,5.761 0,3.182 2.58,5.76 5.761,5.76 C -2.579,5.76 0,3.182 0,0"
         style="fill:#32b457;fill-opacity:1;fill-rule:nonzero;stroke:none"
         id="path2917" />
    </g>
    <g
       id="g2919"
       transform="matrix(0.35277777,0,0,-0.35277777,120.58143,108.60746)">
      <path
         d="m 0,0 c 0,-1.795 -1.456,-3.251 -3.251,-3.251 -1.796,0 -3.251,1.456 -3.251,3.251 0,1.796 1.455,3.251 3.251,3.251 C -1.456,3.251 0,1.796 0,0"
         style="fill:#32b457;fill-opacity:1;fill-rule:nonzero;stroke:none"
         id="path2921" />
    </g>
    <g
       id="g2923"
       transform="matrix(0.35277777,0,0,-0.35277777,116.25542,112.7495)">
      <path
         d="m 0,0 c 0,-0.898 -0.729,-1.627 -1.627,-1.627 -0.899,0 -1.627,0.729 -1.627,1.627 0,0.898 0.728,1.627 1.627,1.627 C -0.729,1.627 0,0.898 0,0"
         style="fill:#ffffff;fill-opacity:1;fill-rule:nonzero;stroke:none"
         id="path2925" />
    </g>
    <g
       id="g2927"
       transform="matrix(0.35277777,0,0,-0.35277777,124.40808,123.97397)">
      <path
         d="m 0,0 c 3.408,-4.381 7.758,-8.425 8.937,-13.848 1.145,-5.271 -0.986,-10.662 -1.214,-16.05 -0.07,-1.662 0.434,-3.792 2.08,-4.026 0.622,-0.088 1.243,0.148 1.803,0.434 3.475,1.774 5.577,5.561 6.236,9.407 0.658,3.846 0.072,7.788 -0.637,11.625 -0.783,4.231 -1.738,8.495 -3.752,12.298 C 11.439,3.643 8.231,6.983 4.138,8.311 2.211,8.936 -1.35,10.119 -2.471,7.863 -3.704,5.382 -1.445,1.857 0,0"
         style="fill:#ffffff;fill-opacity:1;fill-rule:nonzero;stroke:none"
         id="path2929" />
    </g>
    <g
       id="g2931"
       transform="matrix(0.35277777,0,0,-0.35277777,112.2612,103.22312)">
      <path
         d="M 0,0 C 0.115,-5.285 31.658,-6.274 32.323,0 32.987,6.274 -0.115,5.284 0,0"
         style="fill:#e5e3cf;fill-opacity:1;fill-rule:nonzero;stroke:none"
         id="path2933" />
    </g>
    <g
       id="g2935"
       transform="matrix(0.35277777,0,0,-0.35277777,122.26023,96.085578)">
      <path
         d="m 0,0 -0.055,-0.662 -1.77,-19.575 c -6.7,-3.914 -20.791,0 -20.791,0 l -0.522,20.248 c 0.011,0.011 0.033,0.011 0.044,0.022 C -12.145,6.019 0,0 0,0"
         style="fill:#d06346;fill-opacity:1;fill-rule:nonzero;stroke:none"
         id="path2937" />
    </g>
    <g
       id="g2939"
       transform="matrix(0.35277777,0,0,-0.35277777,122.26023,96.085578)">
      <path
         d="m 0,0 -0.055,-0.662 c -0.543,-0.195 -1.097,-0.369 -1.651,-0.522 -3.704,-1.01 -7.604,-1.358 -11.427,-0.977 -2.749,0.271 -5.443,0.901 -8.126,1.542 -0.64,0.152 -1.292,0.315 -1.835,0.652 C -12.145,6.019 0,0 0,0"
         style="fill:#ffc24d;fill-opacity:1;fill-rule:nonzero;stroke:none"
         id="path2941" />
    </g>
    <g
       id="g2943"
       transform="matrix(0.35277777,0,0,-0.35277777,116.80649,100.81259)">
      <path
         d="m 0,0 c 0,-1.197 -0.97,-2.168 -2.167,-2.168 -1.197,0 -2.167,0.971 -2.167,2.168 0,1.197 0.97,2.167 2.167,2.167 C -0.97,2.167 0,1.197 0,0"
         style="fill:#ffc24d;fill-opacity:1;fill-rule:nonzero;stroke:none"
         id="path2945" />
    </g>
    <g
       id="g2947"
       transform="matrix(0.35277777,0,0,-0.35277777,118.06926,99.161695)">
      <path
         d="m 0,0 c 0,-0.808 -0.654,-1.462 -1.461,-1.462 -0.808,0 -1.462,0.654 -1.462,1.462 0,0.807 0.654,1.461 1.462,1.461 C -0.654,1.461 0,0.807 0,0"
         style="fill:#ffc24d;fill-opacity:1;fill-rule:nonzero;stroke:none"
         id="path2949" />
    </g>
    <g
       id="g2951"
       transform="matrix(0.35277777,0,0,-0.35277777,118.81962,102.20338)">
      <path
         d="m 0,0 c 0,-0.789 -0.64,-1.429 -1.43,-1.429 -0.789,0 -1.429,0.64 -1.429,1.429 0,0.79 0.64,1.43 1.429,1.43 C -0.64,1.43 0,0.79 0,0"
         style="fill:#ffc24d;fill-opacity:1;fill-rule:nonzero;stroke:none"
         id="path2953" />
    </g>
    <g
       id="g2955"
       transform="matrix(0.35277777,0,0,-0.35277777,121.35158,99.729455)">
      <path
         d="m 0,0 c 0,-1.695 -1.375,-3.07 -3.07,-3.07 -1.696,0 -3.071,1.375 -3.071,3.07 0,1.695 1.375,3.07 3.071,3.07 C -1.375,3.07 0,1.695 0,0"
         style="fill:#ffc24d;fill-opacity:1;fill-rule:nonzero;stroke:none"
         id="path2957" />
    </g>
    <g
       id="g2959"
       transform="matrix(0.35277777,0,0,-0.35277777,116.12694,97.902172)">
      <path
         d="m 0,0 c 0,-1.165 -0.944,-2.109 -2.109,-2.109 -1.164,0 -2.109,0.944 -2.109,2.109 0,1.164 0.945,2.108 2.109,2.108 C -0.944,2.108 0,1.164 0,0"
         style="fill:#ffc24d;fill-opacity:1;fill-rule:nonzero;stroke:none"
         id="path2961" />
    </g>
  </g>
</svg>
