<?xml version="1.0" encoding="UTF-8" standalone="no"?>
<svg
   version="1.2"
   viewBox="0 0 251.87643 280.8735"
   width="251.87643"
   height="280.8735"
   id="svg11326"
   sodipodi:docname="Nieuw project.svg"
   inkscape:version="1.2.2 (b0a8486, 2022-12-01)"
   xmlns:inkscape="http://www.inkscape.org/namespaces/inkscape"
   xmlns:sodipodi="http://sodipodi.sourceforge.net/DTD/sodipodi-0.dtd"
   xmlns="http://www.w3.org/2000/svg"
   xmlns:svg="http://www.w3.org/2000/svg"
   xmlns:rdf="http://www.w3.org/1999/02/22-rdf-syntax-ns#"
   xmlns:cc="http://creativecommons.org/ns#"
   xmlns:dc="http://purl.org/dc/elements/1.1/">
  <defs
     id="defs11330" />
  <sodipodi:namedview
     id="namedview11328"
     pagecolor="#ffffff"
     bordercolor="#000000"
     borderopacity="0.25"
     inkscape:showpageshadow="2"
     inkscape:pageopacity="0.0"
     inkscape:pagecheckerboard="0"
     inkscape:deskcolor="#d1d1d1"
     showgrid="false"
     inkscape:zoom="3.4784334"
     inkscape:cx="132.0997"
     inkscape:cy="155.96101"
     inkscape:window-width="1920"
     inkscape:window-height="1147"
     inkscape:window-x="1440"
     inkscape:window-y="25"
     inkscape:window-maximized="1"
     inkscape:current-layer="svg11326" />
  <title
     id="title11291">Nieuw project</title>
  <style
     id="style11293">
		.s0 { fill: #322857 } 
		.s1 { fill: #6a46a7 } 
		.s2 { fill: #ffc24d } 
		.s3 { fill: #6a6385 } 
		.s4 { opacity: .2;mix-blend-mode: multiply;fill: #712d51 } 
	</style>
  <g
     id="Layer 1"
     transform="translate(-371.88931,-653.8)">
    <path
       id="&lt;Path&gt;"
       class="s0"
       d="m 408.8,824.8 c -0.3,0 -0.6,-0.1 -0.8,-0.4 -0.3,-0.5 -0.2,-1.2 0.3,-1.5 0.3,-0.2 7.4,-5.4 0.5,-18.1 -0.1,-0.3 -0.2,-0.5 -0.1,-0.8 q 0.2,-0.4 0.5,-0.6 c 13.8,-7.5 8.5,-22 8.3,-22.7 -0.2,-0.3 -0.1,-0.7 0.1,-1 0.3,-0.3 0.6,-0.4 1,-0.4 0.1,0 8.9,1.1 14.4,-3.3 2.5,-1.9 4,-4.8 4.3,-8.4 0,-0.3 0.2,-0.6 0.4,-0.8 0.2,-0.1 0.5,-0.2 0.8,-0.2 16.1,2.2 20.4,-5.2 20.6,-5.6 0.3,-0.5 0.9,-0.6 1.4,-0.4 0.5,0.3 0.7,0.9 0.5,1.4 -0.2,0.4 -5,8.7 -21.7,6.8 -0.6,3.8 -2.3,6.7 -5,8.9 -4.7,3.8 -11.3,4 -14.4,3.8 q 0,0 0,0 c 1.1,4.3 2.9,16.3 -8.8,23.2 7,13.8 -1.5,19.9 -1.6,19.9 q -0.3,0.2 -0.7,0.2 z" />
    <path
       id="path11296"
       class="s0"
       d="m 454.6,828.4 q -0.3,0 -0.5,-0.1 l -44.9,-23.1 c -0.5,-0.2 -0.7,-0.9 -0.4,-1.4 0.3,-0.5 0.9,-0.7 1.4,-0.4 l 40.7,20.9 -33.3,-43.3 c -0.3,-0.5 -0.3,-1.1 0.2,-1.5 0.5,-0.3 1.1,-0.2 1.5,0.2 l 36.1,47 c 0.3,0.4 0.3,1 0,1.3 -0.2,0.3 -0.5,0.4 -0.8,0.4 z" />
    <path
       id="path11298"
       class="s0"
       d="m 454.6,828.4 c -0.5,0 -0.9,-0.3 -1,-0.8 l -16.2,-59.7 c -0.2,-0.5 0.1,-1.1 0.7,-1.2 0.5,-0.2 1.1,0.1 1.3,0.7 l 16.2,59.7 c 0.2,0.5 -0.1,1.1 -0.7,1.3 q -0.2,0 -0.3,0 z" />
    <path
       id="path11300"
       class="s0"
       d="m 425.3,830.3 q -0.1,0 -0.3,0 c -0.5,-0.2 -0.8,-0.8 -0.6,-1.4 0,-0.1 3.2,-9 0.7,-15.8 -0.1,-0.4 0,-0.9 0.3,-1.2 5.9,-5.6 2.9,-17.1 2.9,-17.2 -0.2,-0.5 0.1,-1 0.6,-1.2 0.1,-0.1 10,-4.5 12.6,-11 0.1,-0.3 0.3,-0.5 0.6,-0.6 0.2,-0.1 0.5,-0.1 0.8,0 7.1,2.8 20.5,-8.6 20.6,-8.7 0.4,-0.4 1.1,-0.3 1.5,0.1 0.4,0.5 0.3,1.1 -0.1,1.5 -0.6,0.5 -13.4,11.4 -21.8,9.3 -2.9,5.8 -10.2,9.7 -12.6,10.9 0.6,2.9 2.1,12.4 -3.2,18 2.3,7.4 -0.8,16.2 -0.9,16.6 -0.2,0.5 -0.6,0.7 -1.1,0.7 z" />
    <path
       id="path11302"
       class="s0"
       d="m 435.5,834.2 q -0.2,0 -0.3,-0.1 c -0.6,-0.2 -0.9,-0.7 -0.7,-1.3 0,-0.1 2.8,-9.2 0.7,-14.5 -0.2,-0.6 0,-1.2 0.5,-1.4 4.2,-1.9 2.9,-8.8 2.9,-8.9 -0.1,-0.3 0,-0.6 0.2,-0.8 0.1,-0.2 0.4,-0.4 0.7,-0.4 0.1,0 6.5,-0.4 7.6,-5.2 0.1,-0.6 0.6,-0.9 1.1,-0.9 9.5,1.2 12.9,-1 13,-1 0.5,-0.3 1.1,-0.2 1.4,0.3 0.3,0.4 0.2,1.1 -0.2,1.4 -0.2,0.1 -3.8,2.5 -13.5,1.5 -1.5,4.3 -6,5.5 -8.1,5.8 0.2,2.3 0.3,7.3 -3.3,9.7 1.8,6 -0.9,14.6 -1,15 -0.1,0.5 -0.6,0.8 -1,0.8 z" />
    <path
       id="path11304"
       class="s1"
       d="m 570.4,851.6 q -0.2,2.4 -0.5,4.7 c -2.3,2.1 -4.8,4 -7.3,5.7 -28.5,18.6 -67.4,10.9 -94.1,1.7 -17.7,-6.1 -30.1,-12.8 -30.8,-13.2 q 0,0 0,0 l 0.1,-0.4 c 0.7,-1.9 4,-11.4 7.7,-24.2 5.5,-18.8 11.9,-44.6 12,-63.5 0.2,-33.4 -34.9,-10.2 -49.5,-32.2 -8.7,-13.3 -7.5,-31.1 0.6,-45.4 5.4,-9.5 13.8,-17.5 24.4,-21.4 29.5,-11.1 46.6,-3.6 46.6,-3.6 q 0,0 -0.4,0.1 c -4.9,1.7 -49.6,17.2 -44.4,34.1 q 0,0.1 0.1,0.3 c 6,18 52.2,-18.8 82.8,1 22.4,14.4 43.2,67.6 50.4,114.2 2.4,15.2 3.3,29.8 2.3,42.1 z" />
    <path
       id="path11306"
       class="s1"
       d="m 596.5,900.6 -10.8,-5.5 6.1,9.5 c -15.9,12.8 -36.8,23.2 -60.4,27.7 2.6,-7.7 3.4,-15 -3.6,-13.4 -6.2,1.5 -12,8.4 -16.4,15.7 -6.2,0.2 -12.6,0 -19,-0.7 -28.5,-3.2 -53.1,-10.7 -72.6,-20.7 -0.4,-8.9 -1.4,-18.1 -1.4,-18.1 l -13,9.7 c -24.6,-16.3 -36.9,-36.6 -32.7,-54.1 3.8,-16 12.8,-23.9 24.9,-26.9 27.8,-7 72,11.1 108.8,14 47.2,3.6 92.5,-21.3 110.5,-2.7 2.2,2.3 4,5.2 5.3,8.9 5.8,15.7 -4.9,38 -25.7,56.6 z" />
    <path
       id="path11308"
       class="s0"
       d="m 570.8,850.4 c 0,0 -0.1,0.4 -0.4,1.2 -0.8,1.9 -2.9,6.1 -7.8,10.4 -7.8,6.7 -22.4,13.6 -49.5,12.9 -19.4,-0.6 -35,-4.3 -46.8,-8.6 -18.7,-6.8 -28,-15.3 -28.6,-15.8 q 0,0 0,0 l 0.1,-0.4 7.7,-24.2 3.4,-10.4 c 0,0 12.4,3.8 29.6,6.8 28.3,4.8 69.4,7.4 89.6,-12.9 q 0,0 0,0.1 c 8.4,19.7 2.7,40.9 2.7,40.9 z" />
    <path
       id="&lt;Compound Path&gt;"
       class="s2"
       d="M 520.1,817.1 C 500,817 492,883 523.8,881 c 31.7,-2 19.3,-63.9 -3.7,-63.9 z m 3.1,48.3 c -16.2,1 -12.1,-32.7 -1.8,-32.6 11.7,0 18,31.5 1.8,32.6 z" />
    <path
       id="path11311"
       class="s3"
       d="m 493.9,847.3 c 0,2.1 -1.7,3.8 -3.8,3.8 -2.1,0 -3.8,-1.7 -3.8,-3.8 0,-2.1 1.7,-3.8 3.8,-3.8 2.1,0 3.8,1.7 3.8,3.8 z" />
    <path
       id="path11313"
       class="s3"
       d="m 560.3,838.4 c 0,2 -1.7,3.7 -3.8,3.7 -2.1,0 -3.8,-1.7 -3.8,-3.7 0,-2.1 1.7,-3.8 3.8,-3.8 2.1,0 3.8,1.7 3.8,3.8 z" />
    <path
       id="path11315"
       class="s3"
       d="m 470.1,842.1 c 0,2.1 -1.7,3.8 -3.8,3.8 -2.1,0 -3.8,-1.7 -3.8,-3.8 0,-2 1.7,-3.7 3.8,-3.7 2.1,0 3.8,1.7 3.8,3.7 z" />
    <path
       id="path11317"
       class="s2"
       d="m 508.1,847.3 c 0,0 13.3,-6 14.6,0 1.3,6.1 -14.6,7 -14.6,7" />
    <path
       id="path11319"
       class="s4"
       d="m 596.5,900.6 -10.8,-5.5 6.1,9.5 c -15.9,12.8 -36.8,23.2 -60.4,27.7 2.6,-7.7 3.4,-15 -3.6,-13.4 -6.2,1.5 -12,8.4 -16.4,15.7 -6.2,0.2 -12.6,0 -19,-0.7 -28.5,-3.2 -53.1,-10.7 -72.6,-20.7 -0.4,-8.9 -1.4,-18.1 -1.4,-18.1 l -13,9.7 c -24.6,-16.3 -36.9,-36.6 -32.7,-54.1 3.8,-16 12.8,-23.9 24.9,-26.9 q -0.8,1.1 -1.6,2.2 c -5.4,7.4 -10.1,15.9 -10.2,25 -0.3,17 15.1,30.4 31.1,36.2 15.9,5.8 33.4,6.7 49.2,12.7 -10.1,-1.1 -20.5,-0.4 -30.3,2.2 1.6,5 7.9,6.2 13.1,6.5 36.2,1.9 73.6,0.9 106.9,-13.3 27,-11.5 50.9,-33.2 61.1,-60.2 2.2,2.3 4,5.2 5.3,8.9 5.8,15.7 -4.9,38 -25.7,56.6 z" />
    <path
       id="path11321"
       class="s4"
       d="m 504.7,761.8 c -1.4,6.9 -6.2,12.6 -10.3,18.3 -6.2,8.6 -11.5,18 -13.9,28.3 -1.1,4.5 -1.6,9.2 -2,13.9 -0.5,7.4 -0.7,14.8 -1.9,22.1 -1.3,6.8 -3.9,13.9 -8.1,19.3 q -1,1.4 -2.2,2.6 c -18.7,-6.8 -28,-15.3 -28.6,-15.8 q 0,0 0,0 l 0.1,-0.4 7.7,-24.2 c 5.5,-18.8 11.9,-44.6 12,-63.5 0.2,-33.4 -34.9,-10.2 -49.5,-32.2 -8.7,-13.3 -7.5,-31.1 0.6,-45.4 -1.2,3.3 -1.9,6.6 -2,10.1 -0.2,9.7 4.6,18.8 10.3,26.6 1.6,2.2 3.4,4.4 5.8,5.7 3.1,1.5 6.7,1.4 10.1,1.1 7.3,-0.7 14.6,-2 21.7,-3.9 4.5,-1.2 8.9,-2.6 13.5,-2.4 4.5,0.1 9.3,2.3 11.1,6.5 2.1,4.7 0.3,11 4.1,14.3 3.4,2.8 8.5,1 12.8,1.9 6.9,1.6 10.2,10.1 8.7,17.1 z" />
    <path
       id="path11323"
       class="s4"
       d="m 439.8,686.3 c -2,-1.4 -3.7,-3.4 -4.2,-5.7 -0.4,-2.1 0.1,-4.3 0.9,-6.2 3.8,-9 13.2,-14.2 22.4,-17.1 7.5,-2.3 15.3,-3.5 23.2,-3.5 -4.7,1.6 -47.3,16.3 -42.3,32.5 z" />
  </g>
  <metadata
     id="metadata11812">
    <rdf:RDF>
      <cc:Work
         rdf:about="">
        <dc:title>Nieuw project</dc:title>
      </cc:Work>
    </rdf:RDF>
  </metadata>
</svg>
