<?xml version="1.0" encoding="UTF-8" standalone="no"?>
<!-- Generator: Adobe Illustrator 23.1.0, SVG Export Plug-In . SVG Version: 6.00 Build 0)  -->

<svg
   version="1.1"
   id="Layer_1"
   x="0px"
   y="0px"
   viewBox="0 0 1100 882"
   enable-background="new 0 0 1200 1200"
   xml:space="preserve"
   sodipodi:docname="blue-folder.svg"
   width="1100"
   height="882"
   inkscape:version="1.2.2 (b0a8486, 2022-12-01)"
   xmlns:inkscape="http://www.inkscape.org/namespaces/inkscape"
   xmlns:sodipodi="http://sodipodi.sourceforge.net/DTD/sodipodi-0.dtd"
   xmlns="http://www.w3.org/2000/svg"
   xmlns:svg="http://www.w3.org/2000/svg"><defs
   id="defs11" /><sodipodi:namedview
   id="namedview9"
   pagecolor="#ffffff"
   bordercolor="#000000"
   borderopacity="0.25"
   inkscape:showpageshadow="2"
   inkscape:pageopacity="0.0"
   inkscape:pagecheckerboard="0"
   inkscape:deskcolor="#d1d1d1"
   showgrid="false"
   inkscape:zoom="0.90701493"
   inkscape:cx="665.92068"
   inkscape:cy="440.45582"
   inkscape:window-width="1920"
   inkscape:window-height="1147"
   inkscape:window-x="1440"
   inkscape:window-y="25"
   inkscape:window-maximized="1"
   inkscape:current-layer="Layer_1" />
<g
   id="g6"
   transform="translate(-50,-159.23)">
	<path
   fill="#81abd9"
   d="M 1095.434,272.873 H 461.983 L 376.454,159.23 H 94.651 c -24.49,0 -44.342,20.862 -44.342,46.596 v 67.047 H 50 v 189.118 c 0,-72.08 58.432,-130.512 130.512,-130.512 h 838.976 c 72.08,0 130.512,58.432 130.512,130.512 V 334.105 c 0,-33.817 -24.43,-61.232 -54.566,-61.232 z"
   id="path2" />
	<path
   fill="#a0c6e8"
   d="M 1019.488,331.479 H 180.512 C 108.432,331.479 50,389.912 50,461.991 V 844.7 910.257 c 0,72.08 58.432,130.512 130.512,130.512 h 838.976 c 72.08,0 130.512,-58.432 130.512,-130.512 V 844.7 461.991 c 0,-72.079 -58.432,-130.512 -130.512,-130.512 z"
   id="path4" />
</g>
</svg>
