<?xml version="1.0" encoding="UTF-8" standalone="no"?>
<!-- Created with Inkscape (http://www.inkscape.org/) -->

<svg
   width="35.081287mm"
   height="31.945089mm"
   viewBox="0 0 35.081287 31.945089"
   version="1.1"
   id="svg6323"
   inkscape:export-filename="bitmap.svg"
   inkscape:export-xdpi="96"
   inkscape:export-ydpi="96"
   inkscape:version="1.2.2 (b0a8486, 2022-12-01)"
   sodipodi:docname="molecule.svg"
   xmlns:inkscape="http://www.inkscape.org/namespaces/inkscape"
   xmlns:sodipodi="http://sodipodi.sourceforge.net/DTD/sodipodi-0.dtd"
   xmlns="http://www.w3.org/2000/svg"
   xmlns:svg="http://www.w3.org/2000/svg">
  <sodipodi:namedview
     id="namedview6325"
     pagecolor="#ffffff"
     bordercolor="#000000"
     borderopacity="0.25"
     inkscape:showpageshadow="2"
     inkscape:pageopacity="0.0"
     inkscape:pagecheckerboard="0"
     inkscape:deskcolor="#d1d1d1"
     inkscape:document-units="mm"
     showgrid="false"
     inkscape:zoom="0.89812759"
     inkscape:cx="-116.35318"
     inkscape:cy="388.0295"
     inkscape:window-width="1920"
     inkscape:window-height="1147"
     inkscape:window-x="1440"
     inkscape:window-y="25"
     inkscape:window-maximized="1"
     inkscape:current-layer="layer1" />
  <defs
     id="defs6320" />
  <g
     inkscape:label="Laag 1"
     inkscape:groupmode="layer"
     id="layer1">
    <path
       d="m 14.360179,21.882809 c 0,0.13582 -0.0519,0.27164 -0.15558,0.37535 l -4.67571,4.67572 c -0.2074393,0.20743 -0.5432793,0.20743 -0.7507193,0 -0.20743,-0.20743 -0.20743,-0.54328 0,-0.75036 l 4.6757193,-4.67607 c 0.20708,-0.20743 0.54328,-0.20743 0.75071,0 0.10372,0.10372 0.15558,0.23989 0.15558,0.37536"
       style="fill:#4f4b65;fill-opacity:1;fill-rule:nonzero;stroke:none;stroke-width:0.0352778"
       id="path3259" />
    <path
       d="m 14.223299,15.050209 c 0,0.13582 -0.0519,0.27199 -0.15557,0.37571 -0.20744,0.20708 -0.54328,0.20708 -0.75072,0 L 6.5824897,8.6906796 c -0.20744,-0.20743 -0.20744,-0.54327 0,-0.75071 0.20743,-0.20743 0.54327,-0.20743 0.75071,0 l 6.7345293,6.7352394 c 0.10371,0.10371 0.15557,0.23918 0.15557,0.375"
       style="fill:#4f4b65;fill-opacity:1;fill-rule:nonzero;stroke:none;stroke-width:0.0352778"
       id="path3261" />
    <path
       d="m 25.287819,26.115079 c 0,0.13547 -0.0519,0.27164 -0.15557,0.37536 -0.20708,0.20743 -0.54328,0.20743 -0.75071,0 l -6.73453,-6.73523 c -0.20743,-0.20708 -0.20743,-0.54328 0,-0.75072 0.20743,-0.20743 0.54363,-0.20743 0.75071,0 l 6.73453,6.73524 c 0.10371,0.10372 0.15557,0.23953 0.15557,0.37535"
       style="fill:#4f4b65;fill-opacity:1;fill-rule:nonzero;stroke:none;stroke-width:0.0352778"
       id="path3263" />
    <path
       d="m 30.434149,5.5961196 c 0,0.13582 -0.0519,0.27199 -0.15558,0.37535 l -9.45409,9.4544494 c -0.20743,0.20708 -0.54328,0.20708 -0.75071,0 -0.20744,-0.20744 -0.20744,-0.54363 0,-0.75107 l 9.45444,-9.4537394 c 0.20708,-0.20743 0.54328,-0.20743 0.75071,0 0.10337,0.10372 0.15523,0.23954 0.15523,0.37501"
       style="fill:#4f4b65;fill-opacity:1;fill-rule:nonzero;stroke:none;stroke-width:0.0352778"
       id="path3265" />
    <path
       d="m 27.157549,17.579629 c 0,0.27199 -0.20744,0.50306 -0.4826,0.52846 l -4.79814,0.43674 c -0.29174,0.0261 -0.55033,-0.18909 -0.57679,-0.48084 -0.0254,-0.29704 0.18909,-0.54998 0.48049,-0.57679 l 4.79813,-0.43674 c 0.29174,-0.0265 0.55068,0.18873 0.57714,0.48048 l 0.002,0.0487"
       style="fill:#4f4b65;fill-opacity:1;fill-rule:nonzero;stroke:none;stroke-width:0.0352778"
       id="path3267" />
    <path
       d="m 31.755999,0 c -1.83656,0 -3.32528,1.48872 -3.32528,3.3252896 0,1.83656 1.48872,3.32528 3.32528,3.32528 1.83657,0 3.32529,-1.48872 3.32529,-3.32528 C 35.081289,1.48872 33.592569,0 31.755999,0"
       style="fill:#6ccff1;fill-opacity:1;fill-rule:nonzero;stroke:none;stroke-width:0.0352778"
       id="path3269" />
    <path
       d="M 4.74663,1.89654 C 2.12514,1.89654 0,4.0216696 0,6.6428096 c 0,2.62149 2.12514,4.7466194 4.74663,4.7466194 2.6211397,0 4.746269,-2.1251294 4.746269,-4.7466194 0,-2.62114 -2.1251293,-4.7462696 -4.746269,-4.7462696"
       style="fill:#f6821e;fill-opacity:1;fill-rule:nonzero;stroke:none;stroke-width:0.0352778"
       id="path3277" />
    <path
       d="m 17.601849,13.149439 c -2.98097,0 -5.39714,2.41653 -5.39714,5.3975 0,2.98062 2.41617,5.39715 5.39714,5.39715 2.98062,0 5.39715,-2.41653 5.39715,-5.39715 0,-2.98097 -2.41653,-5.3975 -5.39715,-5.3975"
       style="fill:#fbc717;fill-opacity:1;fill-rule:nonzero;stroke:none;stroke-width:0.0352778"
       id="path3285" />
    <path
       d="m 25.176349,23.887289 c -1.28588,0 -2.32834,1.04246 -2.32834,2.32834 0,1.28552 1.04246,2.32798 2.32834,2.32798 1.28552,0 2.32798,-1.04246 2.32798,-2.32798 0,-1.28588 -1.04246,-2.32834 -2.32798,-2.32834"
       style="fill:#f1472c;fill-opacity:1;fill-rule:nonzero;stroke:none;stroke-width:0.0352778"
       id="path3293" />
    <path
       d="m 7.5466297,25.661059 c -1.73532,0 -3.1421897,1.40652 -3.1421897,3.14184 0,1.73567 1.4068697,3.14219 3.1421897,3.14219 1.73531,0 3.1421893,-1.40652 3.1421893,-3.14219 0,-1.73532 -1.4068793,-3.14184 -3.1421893,-3.14184"
       style="fill:#47be77;fill-opacity:1;fill-rule:nonzero;stroke:none;stroke-width:0.0352778"
       id="path3301" />
    <path
       d="m 28.826539,15.103129 c -1.28588,0 -2.32834,1.0421 -2.32834,2.32798 0,1.28587 1.04246,2.32798 2.32834,2.32798 1.28587,0 2.32798,-1.04211 2.32798,-2.32798 0,-1.28588 -1.04211,-2.32798 -2.32798,-2.32798"
       style="fill:#0aadb1;fill-opacity:1;fill-rule:nonzero;stroke:none;stroke-width:0.0352778"
       id="path3309" />
  </g>
</svg>
