<svg version="1.2" xmlns="http://www.w3.org/2000/svg" viewBox="0 0 3116 1640" width="3116" height="1640">
	<title>5234</title>
	<style>
		.s0 { fill: #fcecdb } 
		.s1 { fill: #599dad } 
		.s2 { fill: #6bb7bf } 
		.s3 { fill: #86d1cd } 
		.s4 { fill: #efcbab } 
		.s5 { fill: #ffebdc } 
		.s6 { fill: #efcdaf } 
		.s7 { fill: #163560 } 
		.s8 { fill: #e49963 } 
		.s9 { fill: #ed7d2b } 
		.s10 { fill: #5aa9ad } 
		.s11 { fill: #f99746 } 
		.s12 { fill: #d68d5d } 
		.s13 { fill: #4a75cb } 
		.s14 { fill: #2b478b } 
		.s15 { fill: #233862 } 
		.s16 { fill: #ffb27d } 
		.s17 { fill: #2c3a64 } 
		.s18 { fill: #ed985f } 
		.s19 { fill: #f9ddbf } 
		.s20 { fill: #c6916d } 
		.s21 { fill: #eac3a0 } 
		.s22 { fill: #e0b594 } 
		.s23 { fill: #d39e7a } 
		.s24 { fill: #f4a269 } 
		.s25 { fill: #c65447 } 
		.s26 { fill: #1c468a } 
		.s27 { fill: #b5453c } 
		.s28 { fill: #9e332e } 
		.s29 { fill: #dd6d22 } 
		.s30 { fill: #ffffff } 
		.s31 { fill: #2e3552 } 
	</style>
	<g id="&lt;Layer&gt;">
		<g id="&lt;Group&gt;">
			<g id="&lt;Group&gt;">
				<path id="&lt;Path&gt;" class="s0" d="m317.7 1408.8c0 0-152.9-377.9 70.7-603.6 288.4-291 661.1-47.7 800.9-54.8 139.9-7.1 147.8-286.4 565.6-319.7 323-25.8 853.6-27.9 740.4 428.4-86 346.9 392.8 167.2 299.5 550.4z"/>
				<g id="&lt;Group&gt;">
					<g id="&lt;Group&gt;">
						<path id="&lt;Path&gt;" class="s1" d="m786.2 1178.2c0 0-36.3-42.4-2.2-69.3 0 0 24.9-15.1 45.2-13.9 0 0-28.7 48.3-19.4 53.1 9.3 4.8 28.2-56.1 28.2-56.1 0 0 56.7-5.5 74.9 3.3 0 0-48.4 39.6-38.2 42 10.2 2.4 62.5-36.6 62.5-36.6 0 0 52.8 9 50 41.2-2.8 32.2-21 42.1-29 41.3-8-0.9-54.7-18.7-55.8-12.2-1 6.6 27.2 28 46.9 29 0 0-37.2 41-62 29.2-24.7-11.9-26.8-30.6-42.2-37.7-15.4-7-28.6-7-22.2 0.2 6.3 7.2 34.2 14.1 43 29.7 8.9 15.6 16.8 26.2-8.8 22.3-25.6-3.8-67.2-22.6-69-44-1.9-21.5-1.9-21.5-1.9-21.5z"/>
						<g id="&lt;Group&gt;">
							<path id="&lt;Path&gt;" class="s1" d="m961.3 1142.8c0 0-143.4-5.6-175.1 35.4 0 0-7 21-28.5 40.1l-3.4 9.2c0 0 24.9-26.2 33.8-27.8 0 0-13.9-50.8 173.2-56.9z"/>
							<path id="&lt;Path&gt;" class="s1" d="m757.7 1218.3c0 0-30.8 22.8-32.9 63.4l5.6 0.5c0 0 9.8-42 27.6-58.5 17.7-16.4-0.3-5.4-0.3-5.4z"/>
						</g>
					</g>
					<g id="&lt;Group&gt;">
						<path id="&lt;Path&gt;" class="s2" d="m659.1 1124.9c0 0 57.8-32.4 30.9-76.4 0 0-21.6-27-44.8-33.9 0 0 12.4 65.6 0 67.1-12.3 1.5-8.5-74-8.5-74 0 0-60.9-29.3-84.8-27 0 0 37.8 64 25.4 62.4-12.3-1.5-54.7-66.3-54.7-66.3 0 0-62.5-11.6-72.5 25.5-10 37 6.2 55.5 15.4 57.8 9.3 2.3 68.7 1.5 67.1 9.3-1.5 7.7-41.6 20-64 13.1 0 0 24.7 60.9 57.1 57.8 32.4-3.1 42.4-23.1 62.4-24.7 20.1-1.5 34.8 3.9 24.7 9.3-10 5.4-43.9 1.8-60.1 15.5-16.2 13.8-29.3 22.3 0.7 28.5 30.1 6.1 84.1 2.3 94.9-20.9 10.8-23.1 10.8-23.1 10.8-23.1z"/>
						<g id="&lt;Group&gt;">
							<path id="&lt;Path&gt;" class="s2" d="m478.6 1013.8c0 0 162 52.5 180.5 111.1 0 0-0.8 26.2 15.4 56.3v11.6c0 0-16.9-39.4-26.2-44.8 0 0 36.3-50.9-169.7-134.2z"/>
							<path id="&lt;Path&gt;" class="s2" d="m674.5 1181.2c0 0 25 37.9 10.8 84.1l-6.5-1.7c0 0 6.3-50.9-6.8-76.5-13.1-25.5 2.5-5.9 2.5-5.9z"/>
						</g>
					</g>
					<g id="&lt;Group&gt;">
						<path id="&lt;Path&gt;" class="s3" d="m751.1 1080.2c0 0-76.2-42.7-40.6-100.6 0 0 28.4-35.6 58.9-44.8 0 0-16.2 86.4 0 88.5 16.3 2 11.2-97.6 11.2-97.6 0 0 80.3-38.7 111.8-35.6 0 0-49.8 84.4-33.5 82.3 16.3-2 72.2-87.4 72.2-87.4 0 0 82.3-15.2 95.6 33.6 13.2 48.8-8.2 73.2-20.4 76.2-12.2 3.1-90.5 2-88.4 12.2 2 10.2 54.9 26.5 84.4 17.3 0 0-32.6 80.3-75.3 76.3-42.7-4.1-55.9-30.5-82.3-32.6-26.5-2-45.8 5.1-32.6 12.2 13.2 7.1 58 2.3 79.3 20.5 21.4 18.2 38.7 29.3-1 37.5-39.6 8.1-110.8 3-125-27.5-14.3-30.5-14.3-30.5-14.3-30.5z"/>
						<g id="&lt;Group&gt;">
							<path id="&lt;Path&gt;" class="s2" d="m989 933.8c0 0-213.5 69.1-237.9 146.4 0 0 1 34.6-20.3 74.2v15.3c0 0 22.4-51.9 34.6-59 0 0-47.8-67.1 223.6-176.9z"/>
							<path id="&lt;Path&gt;" class="s2" d="m730.8 1154.4c0 0-32.9 50-14.2 110.9l8.5-2.3c0 0-8.2-67 9-100.7 17.2-33.7-3.3-7.9-3.3-7.9z"/>
						</g>
					</g>
					<path id="&lt;Path&gt;" class="s4" d="m748.6 1397.3c82.5 0 149.3-66.9 149.3-149.4h-298.7c0 82.5 66.9 149.4 149.4 149.4z"/>
					<path id="&lt;Path&gt;" class="s5" d="m785.3 1396.1q-9.1 1.2-18.5 1.2c-82.5 0-149.4-66.9-149.4-149.4h37.1c0 76.2 57.1 139.1 130.8 148.2z"/>
					<path id="&lt;Path&gt;" class="s4" d="m900 1404.9h-302.9c0-10.2 8.3-18.4 18.5-18.4h266c10.1 0 18.4 8.2 18.4 18.4z"/>
					<path id="&lt;Path&gt;" class="s6" d="m901.3 1252.5h-307v-4.6h307z"/>
				</g>
				<g id="&lt;Group&gt;">
					<path id="&lt;Path&gt;" class="s7" d="m2226.1 1354.3c0 0 3.1 50 12.8 50.7 1.3 0.1 49 0.1 49 0.1l60.9-0.4c0 0-0.4-14.7-18.2-17.8-17.8-3.1-47.6-15.6-58.4-39.1-11.4-24.8-46.1 6.5-46.1 6.5z"/>
					<path id="&lt;Path&gt;" class="s8" d="m2193.6 763.9c0 0 28.8 16.3 36.8 16.3 8.1 0 39.7-6.1 48.5-1.6 8.8 4.5 24.7 22.6 27.7 28.5 5.4 10.7-21.7 6-34.4-3.1-1.9-1.3-4.2-1.8-6.4-1.3-6.6 1.4-20.4 3.9-27 1.5-8.9-3.3-56-7-56-7z"/>
					<path id="&lt;Path&gt;" class="s9" d="m1974.9 541.2c0 0 29.8 211.8 79.1 230.8 24.4 9.4 132 30.6 163.8 32.7 0 0 7.8-6.3 5.9-32.1 0 0-112.7-41.3-128.7-63.9-23.9-33.5 14.8-136.8-15.2-168.3-29.9-31.5-80.2-45-104.9 0.8z"/>
					<path id="&lt;Path&gt;" class="s1" d="m1984.9 987.5c8.7 14.7 18.8 28.6 29.1 41.6 32.1 40.5 66.9 73.8 73 105.3 1.2 6.3 3.1 13.1 5.6 20.2 2.6 7.2 5.7 14.8 9.3 22.7 13.6 29.5 33.9 62.6 54.2 92.7 35.1 51.9 68.1 95.3 68.1 95.3l60.5-2.6c-2.4-6-28.8-77.8-64.1-165.5-14.3-35.6-29.6-73.5-44.3-110q-2.9-7.4-5.8-14.6c-4.5-11.2-8.9-22.2-13.3-32.9-33.1-82.4-59.5-148-59.5-148 0 0-132.5-50.1-146.3-17.6-11.3 26.8-2.1 53.1 33.5 113.4z"/>
					<path id="&lt;Path&gt;" class="s7" d="m2086 1211.7c0 0-42.1 27-38 35.8 0.6 1.2 23.8 42.8 23.8 42.8l30 53c0 0 12.6-7.5 6.7-24.5-6-17.1-9.6-49.2 5.7-70.1 16.1-21.9-28.2-37-28.2-37z"/>
					<path id="&lt;Path&gt;" class="s2" d="m2106.6 1259.2c0 0-26.3-23.2-30.9-40.2 0 0 108.3-129.8 131.8-158.9 1.1-1.4 0.9-2.8-0.6-4.5-17.7-20-214.9-60.6-240.7-100.7-8.9-13.9-13.9-27-16.6-38.4-5.9-24.5-1.3-41.4-1.3-41.4l197-5.7c0 0 163.9 102.1 182.5 171.7 18.6 69.6-221.2 218.1-221.2 218.1z"/>
					<path id="&lt;Path&gt;" class="s10" d="m2206.9 1055.6c-17.7-20-214.9-60.6-240.7-100.7-8.9-13.9-13.9-27-16.6-38.4v-25l83.7-13.1c0 0 23.7 73 94 100.4 65.8 25.7 78.3 71.2 79.6 76.8z"/>
					<path id="&lt;Path&gt;" class="s8" d="m2091.4 527.9c-39.9 10.3-105.9-26.6-105.9-26.6 0 0 25.7-17.3 35.2-55.1q0.7-2.9 1.3-5.9c4.1-0.9 12-2.6 20.4-4.4l30.4 27.3c0 0-0.6 11.3-4.5 30.8q-0.9 5.1-2.2 10.9c16.3 10.1 25.3 23 25.3 23z"/>
					<path id="&lt;Path&gt;" class="s11" d="m1943.3 693c5.7 76.7-1.8 193.5 4.7 213.7 5.6 17.4 69.2 7.1 94.7 1.2 9.4-2.1 20.7-5.2 32.5-8.8 32.8-10.2 68.6-24.7 72.4-35.5q0.3-0.6 0.4-1.2c0.3-1.6 0.3-3-0.1-4.5-1.3-5.5-6.2-11.5-6.8-25.1-0.6-15.1-0.5-33-1.1-52.2 0-2.2-0.1-4.6-0.3-6.7v-0.8q0-0.6 0-1.2c-0.6-21.5-1.7-44-3-66.4-0.8-14-1.8-27.9-2.9-41.2-2.9-34.4-6.7-65-11.8-84.3-8.4-31.5-26.8-52-43.5-67.1l-12.1-10.4c-13.5 3-29.5 1-43.9-5.9-15.7-7.4-21.1-12.7-23.8-10.7-36.1 27.9-62.1 113.3-55.4 207.1z"/>
					<path id="&lt;Path&gt;" class="s9" d="m2075.2 899.1c32.8-10.2 68.6-24.7 72.4-35.5q0.3-0.6 0.4-1.2-0.1-2.3-0.1-4.5c-1.3-5.5-6.2-11.5-6.8-25.1-0.6-15.1-0.5-33-1.1-52.2 0-2.2-0.1-4.6-0.3-6.7v-0.8q0-0.6 0-1.2l-132.7-169.1c0 0-89.2 185.8 68.2 296.3z"/>
					<path id="&lt;Path&gt;" class="s12" d="m2072.8 463.2c0 0-0.6 11.3-4.5 30.8-29.7-9.6-43.1-36.5-47.6-47.8q0.7-2.9 1.3-5.9c4.1-0.9 12-2.6 20.4-4.4z"/>
					<path id="&lt;Path&gt;" class="s8" d="m2076.8 480.4c0 0-64.8-10.9-57.4-51.1 7.4-40.3 3.9-68.8 45.6-63.6 41.7 5.2 46.9 22.1 47.7 36.1 0.9 14-18.8 80.3-35.9 78.6z"/>
					<g id="&lt;Group&gt;">
						<path id="&lt;Path&gt;" class="s13" d="m2331.9 824.8l5.7 1.8 48.7-149.6-5.8-1.9z"/>
						<path id="&lt;Path&gt;" class="s13" d="m2172.8 813.2l165 3.5-0.2 9.9-165-3.5z"/>
					</g>
					<path id="&lt;Path&gt;" class="s8" d="m2175.9 831c0 0 53 14 72.9 12.5 19.9-1.5 36.4-10.9 38.9-15.9 2.5-4.9 7.8-13.7-5.7-12.1-13.6 1.7-32.1 4.5-32.6 1.9-0.6-2.6 11-2.3 11-2.3 0 0 3.5-5.1-0.9-5.3-4.4-0.2-17.3-3.7-22.1-1.3-4.8 2.4-9.2 11.2-12.7 10.9-3.5-0.4-44.4-18.4-44.4-18.4z"/>
					<path id="&lt;Path&gt;" class="s11" d="m1988 549.9c0 0 6.3 213.8 53.3 238.1 23.1 12 127.7 45 159.2 50.6 0 0 8.4-5.4 9.4-31.2 0 0-107.6-53.6-121-77.7-20-36 29.8-134.5 3.5-169-26.2-34.6-74.8-53.6-104.4-10.8z"/>
					<path id="&lt;Path&gt;" class="s14" d="m2020.7 446.2c0 0-0.8-13.9 7.7-21.8 0 0-2.9-13.8 2.5-16.1 5.5-2.3 6.7 9.4 9.2 7.5 2.5-1.8 13.7-10.5 18.5-23.2 4.8-12.8 48.6 2.7 53.7 5 5.1 2.3 21.6-6.2 24.8-13 0 0-9.2-7.3-13.3-12.8-4.1-5.5-32.8-42.5-73-32-40.2 10.5-45.6 29.7-43.4 46.1 2.3 16.5-3.2 54.7 13.3 60.3z"/>
				</g>
				<g id="&lt;Group&gt;">
					<path id="&lt;Path&gt;" class="s15" d="m802.5 528.2l34.6-3.3c2.8-0.2 5.4 1.3 6.5 3.9l26.1 62.9c1.6 3.9-1 8.3-5.3 8.7l-36 3.4c-2.8 0.3-5.4-1.3-6.5-4l-24.7-62.9c-1.5-4 1.1-8.3 5.3-8.7z"/>
					<path id="&lt;Path&gt;" class="s14" d="m1240.9 1358.4l-18.3 9.8c0 0-99.2-105.2-123.1-206.2-4.2-18-6-35.8-4.1-52.6 0 0-1.5-4.6-4-12.7q-0.2-0.5-0.3-1.1c-1.1-3.5-2.5-7.7-3.9-12.4-4.8-15.3-11.4-36.1-18.9-59.9-17.3-54.7-56.8-178-73.6-229.3l121.2-43.9c0 0 13.8 31.4 33.6 116.8 3.1 11.2 6.1 23.5 9 36.9 3.2 15.2 6.2 31.9 8.7 49.8 4.3 30.5 7.1 64.7 7.3 102.2 0.1 15.3-0.3 31.2-1.2 47.5-0.7 12 1.1 28 4.5 46.1 15.2 83.1 63.1 209 63.1 209z"/>
					<path id="&lt;Path&gt;" class="s15" d="m1307.3 1404.9h-98c0 0-3.7-15.7 2.7-26.3 5.7-9.4 3.5-14.8-0.7-22.6 4.5 1.9 10.2 3.5 16.5 3.1 4.9-0.2 10.1-2.5 14.6-5.1 4.2 4.8 22.3 25.3 28 29.4 6.4 4.6 34.9 2.9 36.9 21.5z"/>
					<path id="&lt;Path&gt;" class="s15" d="m1167.2 953.6l-76.1 142c-1.1-3.5-2.5-7.7-3.9-12.4-4.8-15.3-11.4-36.1-18.9-59.9-17.3-54.7-56.8-178-73.6-229.3l121.2-43.9c0 0 13.8 31.4 33.6 116.8 3.1 11.2 6.1 23.5 9 36.9 3.2 15.2 6.2 31.9 8.7 49.8z"/>
					<path id="&lt;Path&gt;" class="s16" d="m837 640.4c-0.6 0.5-29.6-29.2-45.2-45.6l15.6-9.5 84.9 53.3z"/>
					<path id="&lt;Path&gt;" class="s15" d="m992.7 1374.2c0 0-2.3 16.6 4.1 30.7h40.6c0 0 0.3-12.1-10-27.4-10.4-15.2-34.7-3.3-34.7-3.3z"/>
					<path id="&lt;Path&gt;" class="s17" d="m1072.8 290.4c0.5-2.6 7.4-30.4 50.6-24.4 0 0-21.6-1.2-26.8 7.4 0 0 16.3-8.9 27.4-3.2 11.1 5.7 14.4 27.4 13.3 34.2-1.1 6.7-11.4 27.3-19.2 27.9-2.9 0.2-6.1-0.6-9-1.6 1.5 3.5 2.8 7.2 4 11.3 11 38.1-12.6 69.4-26.5 63.1-8.8-4.1-14.2 11.3-14.2 11.3l-77.6-88.8c0 0 45.1-62.8 78-37.2z"/>
					<path id="&lt;Path&gt;" class="s16" d="m993.4 528.5c10.1 7.1 22.8 12.9 38.7 16.5 59.7 13.8 82.6-36.6 91.2-71.3-8.2-4.6-15.8-5.7-20.2-6.2-4.4-0.5-8.9-0.8-12.7-1-6.7-5.2-16.7-26.2-18.9-58.8l-2.8 0.7-47 12.9c0 0 2.1 15 3.2 29.1 0.8 11.1 0.9 21.7-1.2 24.2-3.6 0.8-5.8 1.4-5.8 1.4q0 0-0.1 0c-0.6 1-14.3 23.5-24.4 52.5z"/>
					<path id="&lt;Path&gt;" class="s18" d="m1021.7 421.3c0 0 2.1 15 3.2 29.1 26.6-2.6 39-28 43.8-41.9z"/>
					<path id="&lt;Path&gt;" class="s16" d="m1013.7 435.4c0 0 63.3-3.5 60.5-42.9-2.8-39.4 3.5-66.3-37-65.8-40.5 0.6-47.3 16.2-49.6 29.5-2.2 13.4 9.6 79.1 26.1 79.2z"/>
					<path id="&lt;Path&gt;" class="s17" d="m987.9 334.2c9-12.5 16.5-10.5 20.9-7.2 33.2-21.5 57.5 5 57.5 5 6.2 28 27.8 42.7 27.8 42.7 0 0-11 7.9-38.1 3-8.3-1.5-15.9-6.8-22.6-13.3 12.1 17.2 27.6 29.2 27.6 29.2-32.7-12.4-48.6-55.6-50.3-60.2-3.6 3.7-10.6 11.8-12.4 19.4-2.4 10.2-2.4 31-8.5 30.7 0 0-15.2-30.5-1.9-49.3z"/>
					<path id="&lt;Path&gt;" class="s16" d="m1003.5 472.8c0 0 103.1-25 147.9 11.9l-22.4 312.5-201.6-48.7c0 0 5.6-19.8 44.3-72.4 38.7-52.6 21.8-129.7 31.8-203.3z"/>
					<path id="&lt;Path&gt;" class="s14" d="m1063.6 762.4c0 0-0.2 1-0.4 3.1q-0.1 1.3-0.3 3.1c-0.9 8.1-2.5 23.6-4.6 43.8-5.6 53-14.2 138.1-20.2 205.3-4.6 52.5-7.5 94.1-5.9 100.8 4.7 20.1 0 260.2 0 260.2-17.2 8.2-43.2 0-43.2 0 0 0-45.6-216.4-39.2-246.5 6.4-30.1-4.3-55.7-4.3-55.7-35.4-165.1-31.5-256.6-24.5-300.3 2-12.8 4.4-21.5 6.1-26.8 1.4-4.5 2.4-6.6 2.4-6.6 78.2-21 134.1 19.6 134.1 19.6z"/>
					<path id="&lt;Path&gt;" class="s15" d="m1129 797.2c-24.1 10.1-48 14.5-70.7 15.2-20.8 0.7-40.5-1.6-58.2-5.5-38.7-8.4-68.1-24-79.1-30.7 2-12.8 4.4-21.5 6.1-26.8 23.8-16.9 82.6-0.7 130.7 17.3q2.5 0.9 5.1 1.9c36.8 14.1 66.1 28.6 66.1 28.6z"/>
					<path id="&lt;Path&gt;" class="s11" d="m1165.3 573.8c-5 37.6-24.9 83.6-32 108.4 0 0 11.9 85.9 0.5 109.5-1.3 2.7-2.9 4.6-4.8 5.5-42.1 18.3-205.8 0.5-212.7-52.3-2.5-19.2 62.4-86.7 66.1-94.9 1.6-3.4 3.3-14.4-4.3-37.1-10.8 33.2-30.7 71.6-50.7 78.1-22 7.2-109.1-57.6-109.1-57.6 0 0-0.5-7.9 10.5-15.3 7.1-4.8 23.3-6.5 23.3-6.5l55.7 24.9c7-11.9 24.4-94.6 43.8-131.9 14.6-28.1 53.6-32.1 53.6-32.1 0 0 16.2 25.7 55.5 22.1 39.3-3.7 46.4-27.7 46.4-27.7 0 0 34.9 4.6 45.6 13.3 1.8 1.5 19.1 44.4 12.6 93.6z"/>
					<path id="&lt;Path&gt;" class="s9" d="m1133.3 682.2c0 0 11.9 85.9 0.5 109.5-30.6-15.3-70.5-48.5-58.4-100.4 17.7-75.3 89.9-117.5 89.9-117.5-5 37.6-24.9 83.6-32 108.4z"/>
					<path id="&lt;Path&gt;" class="s16" d="m1107.1 624.4c0 0-43.6 6.3-47 9.6-3.5 3.2-15.6 22.1-14.1 28.7 1.5 6.6 1.4 13.4 4 12.9 2.7-0.4 11.4-17.2 14.7-17.9 3.3-0.8 6-3.1 6.4-1.6 0.4 1.5-6.7 8.5-6.3 10.5 0.3 2 5.9-0.3 8.4-4.2 2.5-3.9 8.8-5.8 9.7-8.2 0.9-2.4 5.3-10.4 11.1-10.1 5.9 0.4 13.1-19.7 13.1-19.7z"/>
					<path id="&lt;Path&gt;" class="s16" d="m1149.6 622.7l-42.5 1.7-14.5 19.8 57.7 1.9z"/>
					<path id="&lt;Path&gt;" class="s11" d="m1107.1 466.9c0 0 50.6 6 64.5 27.7 17.6 27.4 79.8 118.3 78.5 145.8 0 0-38.8 15.5-142.9 7.2 0 0-1.9-15.8 20-28.4 0 0 55.9-7.7 62.1-13.1l-41.5-44.1z"/>
					<path id="&lt;Path&gt;" class="s14" d="m795 528.9l34.6-3.3c2.7-0.2 5.4 1.3 6.4 3.9l26.1 62.8c1.7 4-1 8.4-5.2 8.8l-36 3.4c-2.8 0.3-5.5-1.3-6.5-4l-24.7-62.9c-1.6-4 1.1-8.3 5.3-8.7z"/>
					<path id="&lt;Path&gt;" class="s16" d="m791.8 594.8c0 0-9.1-15.8-8.4-19.7 0.7-3.8 10.1-21.8 15-23.6 8.7-3.2 20.8-5.2 17.5 3.9-2.2 6.1-11 14.8-9.4 17.5 1.5 2.8 0.9 12.4 0.9 12.4z"/>
				</g>
				<g id="&lt;Group&gt;">
					<path id="&lt;Path&gt;" class="s19" d="m2169.8 1273.9c-12.4 79.4-93.4 129.9-176.5 129.9h-164.6l12.9-462.7c0 0 157-50.4 196.4-2.5 34.6 42 128.3 208.3 133.2 306.7 0.5 9.9 0 19.4-1.4 28.6z"/>
					<path id="&lt;Path&gt;" class="s20" d="m1732.9 990.1c0 0 222-113.3 264.1-39.3 22.3 39.3 83.7 196.1 88.3 294.5 4.4 95.6-78.5 158.5-163.7 158.5h-151.3z"/>
					<path id="&lt;Path&gt;" class="s4" d="m1774.6 1052.9c-1.8 9.7-19.8 18.6-46.5 26.5q-7.1 2.1-14.9 4.1c-90.8 23.2-251.6 36.1-266.9 29.3-21.2-9.4-151.2-471.3-151.2-471.3 0 0 124.1-4.7 222.7-7 33.7-0.7 64.4-1.2 86.1-1.2q4 0 7.5 0.6c9.4 1.3 16.4 5.2 22 11.2 15.8 17 19.8 50.7 34.4 87.9 14.6 36.8 32.4 82.8 49.3 128.4 4.4 11.7 8.7 23.4 12.8 35q1.8 4.9 3.5 9.7c25 69.9 44.2 131.2 41.2 146.8z"/>
					<path id="&lt;Path&gt;" class="s21" d="m2169.8 1273.9c-12.4 79.4-93.4 129.9-176.5 129.9h-80.7c53.8-36.5 102.5-148.9 257.2-129.9z"/>
					<path id="&lt;Compound Path&gt;" class="s22" d="m1733.4 906.1c-4.1-0.7-9.4-1.5-15.5-2.6-1.2-1.2-2.2-2.5-2.8-3.8-2.4-5.4-0.8-20.7 2-38.3-16.9-45.6-34.7-91.6-49.3-128.4-14.6-37.2-18.6-70.9-34.4-87.9-5.6-6-12.6-9.9-22-11.2-13.1 0.1-26.9 0.4-41.2 0.6-5 10.1-13.8 19.6-28.9 27.5-67.3 35.5-17.4 108.5-17.4 108.5 0.5 0.3 26.8 52.5 26.8 52.5-0.1-3.7 3.4-10.2 9.5-18.5 4.4 31.2 11.7 63 20.4 85.8-4.8 24.1-17 59.9-23.5 87.4-5.3 21.8-6.9 38.3 1.8 39.1q1.4 0.2 3.2 0c-0.6 7.7 0.9 15.7 5.2 24 16.9 32.6 98.1 38.5 160.8 38.6 26.7-7.9 44.7-16.8 46.5-26.5 3-15.6-16.2-76.9-41.2-146.8z"/>
					<path id="&lt;Path&gt;" class="s23" d="m2040.2 1332.7c-31.8 44.2-80.5 72.5-134.8 71.6l-233.4 0.1-111.8 0.1 125.8-414.3c0 0 318.4-31.7 357.7 10.5 18.2 19.6 28.4 108.4 34.2 198 3.2 50.4-11.5 97.6-37.7 134z"/>
					<path id="&lt;Path&gt;" class="s20" d="m2040.2 1332.7c-31.8 44.2-80.5 72.5-134.8 71.6l-233.4 0.1c27.5-23.1 113.9-88.5 206.3-85.4 70.1 2.4 125.8 1.4 161.9 13.7z"/>
					<g id="&lt;Group&gt;">
						<path id="&lt;Path&gt;" class="s24" d="m1753.3 700.2c0 0 19.4 28.7 30.4 89 9.7 52.8 18.2 72.3 32.2 83.2 14 10.8 91.9 42.8 91.9 42.8l-5.8 13.6c0 0-114.2-15.5-127.1-34.6-12.8-19.1-61.7-131.9-57.9-157.9 3.8-26 36.3-36.1 36.3-36.1z"/>
						<g id="&lt;Group&gt;">
							<path id="&lt;Path&gt;" class="s16" d="m2033 1330.3c-1 11.1 14.5 13.8 32.4 14.7 18 0.9 12.6 4.6 37.2 9.1 24.6 4.4 34.5-2.3 36.2-5.6 1.6-3-9.8-7.6-22-12.8q-2.3-1-4.6-2c-13.7-6.1-21.4-18.4-32.1-29.8-10.2-10.8-19.8-45.4-19.8-45.4l-33.5-7.1c0 0 9.4 31.1 12.7 44.4 1.9 7.8-0.9 16.6-3.4 23.2-1.4 3.7-2.8 7.4-3.1 11.3z"/>
							<path id="&lt;Path&gt;" class="s25" d="m2065.4 1345c18 0.9 12.6 4.6 37.2 9.1 24.6 4.4 34.5-2.3 36.2-5.6 1.6-3-9.8-7.6-22-12.8l-0.2 0.2c0 0-17.3 5.9-37.3 0.4-16.3-4.4-32-14.1-43.2-17.3-1.4 3.7-2.8 7.4-3.1 11.3-1 11.1 14.5 13.8 32.4 14.7z"/>
						</g>
						<path id="&lt;Path&gt;" class="s7" d="m1699.9 933.6c0 0 222.3-16.7 264.1 9.7 41.9 26.4 109 334 109 334 0 0-4.2 3.4-13.4 4.4-8.6 0.9-27.6-4.2-27.6-4.2 0 0-96.4-137.6-103.2-172.3-6.8-34.7-5.2-65.6-20.6-66.4-15.5-0.9-208.3 23.4-237.5-28-29.2-51.4-5.1-102.2-5.1-102.2z"/>
						<g id="&lt;Group&gt;">
							<path id="&lt;Path&gt;" class="s16" d="m1947.9 1366c-1 11.1 14.5 13.8 32.5 14.7 17.9 0.9 12.5 4.6 37.1 9.1 24.6 4.4 34.5-2.3 36.3-5.6 1.6-3-9.9-7.6-22.1-12.8q-2.3-1-4.6-2c-13.7-6-21.4-18.4-32.1-29.8-10.1-10.8-19.8-45.4-19.8-45.4l-33.4-7.1c0 0 9.4 31.1 12.6 44.4 2 7.8-0.9 16.6-3.4 23.2-1.3 3.7-2.7 7.4-3.1 11.3z"/>
							<path id="&lt;Path&gt;" class="s25" d="m1980.4 1380.7c17.9 0.9 12.5 4.6 37.1 9.1 24.6 4.4 34.5-2.3 36.3-5.6 1.6-3-9.9-7.6-22.1-12.8l-0.2 0.2c0 0-17.3 5.9-37.2 0.4-16.3-4.4-32.1-14.1-43.3-17.3-1.3 3.7-2.7 7.4-3.1 11.3-1 11.1 14.5 13.8 32.5 14.7z"/>
						</g>
						<path id="&lt;Path&gt;" class="s26" d="m1656.3 947.4c0 0 197.5 9.3 238.3 37.4 40.8 28 95.9 338 95.9 338 0 0-4.3 3.1-13.6 3.8-8.6 0.6-27.3-5.2-27.3-5.2 0 0-91.1-141.3-96.5-176.2-5.4-34.9-2.6-65.8-18-67.2-15.4-1.5-209.1 15.3-236.2-37.2-27.2-52.5 57.4-93.4 57.4-93.4z"/>
						<path id="&lt;Compound Path&gt;" class="s27" d="m1726.7 512.9c-8.7-5.8-19.6-7.1-27.3-7.2 2.1-1.9 6-2.3 6-2.3-4.7-1.1-15.5 2.9-15.5 2.9-64.2-29.7-81 66.5-81.1 89.1-0.2 22.7-1.7 48.6-35.9 66.6-67.4 35.4-17.4 108.5-17.4 108.5 0.5 0.3 26.7 52.5 26.7 52.5-0.4-18.3 90-108.8 135.7-134.7 11.7-15 17.3-42.4 17.8-44.6-3.3 21.9-7.9 34-11.7 40.7 39.3-31.7 25.9-156.2 2.7-171.5z"/>
						<path id="&lt;Path&gt;" class="s16" d="m1648.1 667.1c0 0 17.4 0.8 35.8 2.5 12.5 1.2 25.8 2.6 32.8 5.5 17.4 7.3 15.6 38.1-20.9 32.4-36.5-5.7-50.3-31.2-47.7-40.4z"/>
						<path id="&lt;Path&gt;" class="s16" d="m1715.2 689.6c0.2 0.1 5.2 26.5-18.7 25.5-15.7-0.7-49.6-19.7-46.6-33.2 1.5-6.4 13.3-22.9 15.7-60.8l2.9 0.8 48 12.9c0 0-2.1 15.2-3.1 29.7-0.9 12.1-0.9 23.6 1.8 25.1z"/>
						<path id="&lt;Path&gt;" class="s24" d="m1716.5 634.8c0 0-2.1 15.2-3.1 29.7-27.2-2.6-40-28.4-44.9-42.6z"/>
						<path id="&lt;Path&gt;" class="s27" d="m1663.8 616.3c0 0-12.8-23.6-14.9-43.1-1.6-13.9 8.9-64.5 59.7-53.7 0 0 14.8 2.4 28.1 12.8 10.7 8.3 25.7 25.6 4.7 69l-5.6 14.7z"/>
						<path id="&lt;Path&gt;" class="s16" d="m1724.7 649.1c0 0-64.5-3.3-61.9-43.4 2.6-40.2-3.9-67.7 37.4-67.3 41.3 0.4 48.3 16.2 50.7 29.8 2.4 13.7-9.4 80.7-26.2 80.9z"/>
						<path id="&lt;Path&gt;" class="s27" d="m1729.6 539.4c0 0-20.8 45.9-48.3 51.1-27.6 5.1-38.8-2.9-38.8-2.9 0 0 21.8-15.1 28.1-43.6 0 0 47.2-27.9 59-4.6z"/>
						<path id="&lt;Path&gt;" class="s27" d="m1725 542.9c0 0 12.5 11.4 15 21.9 2.5 10.4 2.6 31.5 8.7 31.2 0 0 15.5-31.1 1.7-50.2-14.5-20.3-25.4-2.9-25.4-2.9z"/>
						<path id="&lt;Path&gt;" class="s26" d="m1789.3 937c-5.3 6.2-21.6 8.1-39 11-13.7 2.3-28.1 5.1-38.4 11.1-23.2 13.7-99.2 59.8-121.5 57.7-8.6-0.8-7-17.3-1.8-39.1 8.3-34.6 25.5-82.6 25.5-103.4 0-11.4 3.8-38.3 8.8-69.1q0.7-3.8 1.3-7.6c10-59.8 23.8-130.5 23.8-130.5 0 0 15.5 33.8 45.6 33.8 30.1 0 23.1-25.8 23.1-25.8 0 0 27.5 3.3 34 10.3 6.5 7 23 37.2 26.2 45.4 0 0 0.7 10.5-25.3 15.5 0 0 6.4 28.5 7.1 47.5 0.6 14-9.6 57.9-12.5 85.2-1 9.6-1.1 17.2 0.4 20.7 2 4.4 8.5 8.8 15.9 13.1 14.7 8.5 33 16.7 26.8 24.2z"/>
						<path id="&lt;Path&gt;" class="s7" d="m1762.5 912.8c16.7 28.4-45.2 36.9-55.4 43-23.3 13.6-94.4 63.1-116.7 61-8.6-0.8-7-17.3-1.8-39.1 8.3-34.6 25.5-82.6 25.5-103.4 0-11.4 3.8-38.3 8.8-69.1l26.8-25.8c0 0 28.8 74.3 56.2 86.4 14.3 6.4 29.3 10.6 40.3 13.2-1 9.6-1.1 17.2 0.4 20.7 2 4.4 8.5 8.8 15.9 13.1z"/>
						<path id="&lt;Path&gt;" class="s16" d="m1639.8 689.4c0 0-22.9-14-45.1 12.5-22.1 26.4 15.8 215.2 48.6 224.9 36.5 10.7 141.9-1.8 141.9-1.8l-2-16.4c0 0-112.2-21.6-116.9-27.5-4.7-6-14.8-188.7-26.5-191.7z"/>
						<path id="&lt;Path&gt;" class="s26" d="m1648.1 667.1c0 0-47.1 4.3-60.8 19.8-13.7 15.4-17.7 57.4-17.7 57.4 0 0 41.5 33.5 91.4 20.5z"/>
						<g id="&lt;Group&gt;">
							<path id="&lt;Path&gt;" class="s28" d="m1858.4 941.2h-62.2v-7.3h62.2z"/>
							<path id="&lt;Path&gt;" class="s28" d="m1845.2 940.2c0.6-2.4 57.1-91.3 57.1-91.3h125.9l-63.1 88.9z"/>
							<path id="&lt;Path&gt;" class="s27" d="m1850.5 941.2c0.6-2.4 57.3-92.3 57.3-92.3h120.4l-60.1 92.3z"/>
							<path id="&lt;Path&gt;" class="s28" d="m1956.6 895.4c-1.3 3.6-5.2 6.5-8.8 6.5-3.6 0-5.5-2.9-4.3-6.5 1.3-3.6 5.2-6.5 8.8-6.5 3.6 0 5.5 2.9 4.3 6.5z"/>
						</g>
						<path id="&lt;Path&gt;" class="s16" d="m1774 907.6c0 0 36.5-7.1 40.7-5.3 4.1 1.7 27.1 22.4 24.7 26.5-2.4 4.1-11.8 7.1-22.4 3.5-10.6-3.5-33.6-5.3-37.7-10.6-4.1-5.3-5.3-14.1-5.3-14.1z"/>
					</g>
					<path id="&lt;Path&gt;" class="s19" d="m1846.8 1278c-13.4 77-86.6 125.8-161.7 125.8h-151.3l11.8-462.7c0 0 144.4-50.4 180.7-2.5 31.8 42 118 208.3 122.5 306.7 0.5 11.4-0.2 22.3-2 32.7z"/>
					<path id="&lt;Path&gt;" class="s21" d="m1846.8 1278c-13.4 77-86.6 125.8-161.7 125.8h-121.1c56.7-38.4 133.1-144.6 282.8-125.8z"/>
					<path id="&lt;Path&gt;" class="s23" d="m1612.2 1403.5q-1.7 0.1-3.4 0.2-3.6 0.2-7.2 0.3-1.2 0-2.4 0h-151.4v-0.1q-4.3 0.1-8.7 0.1c-15.6 0.2-31.9 0.4-47 0.5q-3.8 0-7.5 0.1-1.4 0-2.7 0c-14.9 0.1-28.1 0.1-37.5 0.1-13.2-0.1-25.7-1-37.5-2.9-15.1-2.4-29-6.3-41.7-11.9q-6.8-3.1-13.2-6.8-8.6-4.9-16.4-11.2c-13.5-10.7-25.1-24.3-35-41-6.8-11.6-12.9-24.7-18.1-39.5-6.6-18.5-11.9-39.6-15.9-63.5-5.8-34-9.2-73.6-10.2-119.4q-0.6-27.7-0.1-58.4c0.6-32.7 2.1-68.1 4.4-106.3 3.3-53.7 8.4-112.9 15.2-178 6.1-59.5 13.1-101.1 23.4-110.6 15.2-14 46.8-19.6 68.8-21.9q0 0 0 0c13.7-1.4 23.6-1.5 23.6-1.5 26.9 0 50.8 19.3 59.4 48 17.6 58.4 48.9 162.8 81.6 272q0.2 0.8 0.5 1.6 2.8 9.4 5.6 18.9 0.4 1.4 0.9 2.9 2.7-1.3 5.7-2.6 0.1 0 0.2-0.1c7.8-3.4 16.7-7.2 26.2-11.1q7.5-3 15.4-6.1c14.9-5.7 31.1-11.4 47.4-16.2 7.3-2.2 14.6-4.2 21.8-6 9.3-2.3 18.6-4.3 27.6-5.7q0.5-0.1 0.8-0.2 1.6-0.2 3.2-0.4c38.8-5.8 72.6-1.8 86.5 22.8 22.3 39.4 83.8 196.7 88.3 295.4 4.2 91-70.2 152.5-150.6 158.5z"/>
					<path id="&lt;Path&gt;" class="s19" d="m1369.4 993.7c0 0-77.7-316.5-83.3-343.1-2.5-11.9-10.2-16.2-18-17.3 13.7-1.4 23.6-1.5 23.6-1.5 26.9 0 50.8 19.3 59.4 47.9 18.8 62.3 53.5 177.3 88.6 294.5-1.8-0.1-70.3 19.5-70.3 19.5z"/>
					<path id="&lt;Compound Path&gt;" class="s20" d="m1655.6 1145.8c-20.8-34.3-3.3-40.8-6.5-117.7-3.2-77-39-70.7-53.9-85.5-2.7-2.8-5-8.4-7.2-15.8q-1.6 0.2-3.2 0.4-0.3 0.1-0.8 0.2c-9 1.4-18.3 3.4-27.6 5.7-7.2 1.8-14.5 3.8-21.8 6-16.3 4.8-32.5 10.5-47.4 16.2q-7.9 3.1-15.4 6.1c-12.8 80.7-32.7 442.6-32.7 442.6q0.2 0.3 0.4 0.5c16.3-0.1 33.9-0.3 50.6-0.5q3.5-0.1 7.1-0.1v0.1h114.2q0.2-0.2 0.5-0.3 0.1-0.1 0.3-0.2c30.6-19 23.8-57.2 16.6-81.1-2.9-25.6-14.2-55.6-23.5-83.5 2.9-8.4 6.9-13.3 24.2-19.7 19.2-7 24.2-37.3 24.2-37.3 5.2 13.5-6.6 32.2-6.9 32.7 0.7-0.8 29.4-34.8 8.8-68.8z"/>
				</g>
				<g id="girl 2 5 ">
					<path id="&lt;Path&gt;" class="s18" d="m1400.4 989.9c0 0-115.2 50.2-136.1 49.2-20.9-0.9-149.8-39.2-149.8-39.2l3.3 22.2c0 0 99.4 57.2 134.2 60.4 34.2 3.2 151.3-30.7 162.6-37.9 11.3-7.1 18.7-47.5-14.2-54.7z"/>
					<path id="&lt;Path&gt;" class="s15" d="m1417.8 805.2c0 0 42.5-8.1 63.6 7.4 38.4 28 40.4 124.5 54.8 138.9 14.4 14.4 49 8.2 52.1 82.7 3.1 74.4-13.8 80.6 6.3 113.8 20.1 33.3-8.5 66.5-8.5 66.5 0 0 11.7-18.3 6.7-31.6 0 0-4.9 29.2-23.4 36.1-18.6 6.8-21.3 11.9-24.3 21.9 0 0-158.3-81.1-158.5-138.7-0.2-57.5-31.2-114.5-15.9-139.5 0 0-6.8 10.7-7.6 22.6 0 0-9.2-17.5 6.7-33.8 15.8-16.3-18.6-50-13.5-89 3.5-26.8 22.3-56.2 61.5-57.3z"/>
					<path id="&lt;Path&gt;" class="s16" d="m1386.4 1044.7c10.2 7 22.8 12.8 38.8 16.5 59.7 13.8 82.6-36.7 91.2-71.3-8.2-4.7-15.8-5.7-20.3-6.3-4.3-0.5-8.8-0.8-12.6-1-6.7-5.1-16.7-26.1-18.9-58.8l-2.8 0.8-47.1 12.9c0 0 2.2 14.9 3.3 29.1 0.8 11 0.9 21.6-1.2 24.2-3.7 0.8-5.9 1.3-5.9 1.3q0 0 0 0c-0.6 1.1-14.3 23.5-24.5 52.6z"/>
					<path id="&lt;Path&gt;" class="s18" d="m1414.7 937.5c0 0 2.2 14.9 3.3 29.1 26.6-2.7 39-28.1 43.8-42z"/>
					<path id="&lt;Path&gt;" class="s16" d="m1406.8 951.5c0 0 63.3-3.5 60.5-42.9-2.8-39.3 3.5-66.3-37-65.7-40.5 0.5-47.3 16.1-49.6 29.5-2.3 13.3 9.5 79 26.1 79.1z"/>
					<path id="&lt;Path&gt;" class="s15" d="m1381 850.3c8.9-12.5 16.5-10.4 20.9-7.2 33.2-21.4 57.5 5 57.5 5 6.2 28 27.7 42.7 27.7 42.7 0 0-11 8-38 3-8.3-1.5-15.9-6.7-22.6-13.3 12 17.3 27.6 29.2 27.6 29.2-32.8-12.4-48.7-55.6-50.3-60.2-3.6 3.8-10.7 11.8-12.4 19.4-2.5 10.2-13 26.3-19 26 0 0-4.8-25.7 8.6-44.6z"/>
					<path id="&lt;Path&gt;" class="s27" d="m1534.4 1173.3c5.7-29.2 24.3-145.9 5.7-183.4-6.7-13.5-33-14.8-61.8-13.6-8.9 5.8-43.1 27.7-57.1 25q-0.3-0.1-0.8-0.2c-6.6-1.7-9.1-6.3-3.6-10.3 0 0-14.3-1.4-32 1.9-10 1.9-37 15.9-37 15.9 0 0 13.6 24.5 33.7 33-3.5 30.5 1.6 44 33.2 114.4 26.8 59.5-3.6 113.1-3.6 113.1 0 0 157.4 126.5 158.3 62.1 0.6-48.5-42.3-120.5-35-157.9z"/>
					<path id="&lt;Path&gt;" class="s29" d="m1403.3 1406.7c-8.5-1-16.2-5.7-21-12.8q-1.1-1.7-2.4-3.7c-18-27.1-24.9-110.1-65.2-198.6-9.8-21.5-45-25.4-54.7-49.8 0 0-23.6-78.9 45.3-81.2 68.9-2.3 184.5 219.6 186.3 242.8 1.8 22.6 45.6 118.4-88.3 103.3z"/>
					<path id="&lt;Path&gt;" class="s28" d="m1129.5 1404.9h98.1c0 0 3.6-15.7-2.8-26.3-5.7-9.4-3.5-14.8 0.7-22.6-4.4 1.9-10.2 3.5-16.5 3.1-4.9-0.2-10.1-2.5-14.6-5.1-4.2 4.8-22.3 25.3-27.9 29.4-6.4 4.6-35 2.9-37 21.5z"/>
					<path id="&lt;Path&gt;" class="s28" d="m1524 1020.4c0 0 12.8 116.2-70 140.5-82.7 24.3-106.2-106.8-39.4-116.3 66.8-9.4 109.4-24.2 109.4-24.2z"/>
					<path id="&lt;Path&gt;" class="s9" d="m1257.8 1083.4c-5.9 44.3-29 184-69.6 252.2-13.1 21.9 33 34.2 33.3 34.2 6.1-1.6 16.5-11.5 21.2-15.8 33-29.7 100.1-114 100.1-181.6 0-32.9 0.5-95.8-23.4-111.8-14.8-9.9-59.2 5.2-61.6 22.8z"/>
					<path id="&lt;Path&gt;" class="s11" d="m1461.8 1404.9c0 0-3.6-5.1-10-14.7-7.5-11.4-15.8-33.9-26-62.7-10.6-30.2-23.2-67.4-39-106.2-4.9-11.9-10-24-15.5-36.1-9.8-21.5-36.8-18.5-46.4-42.9 0 0-37.5-84.4 31.4-86.7 68.9-2.4 199.8 225.8 207.3 247.8 8.2 24.2 48.4 124.7-101.8 101.5z"/>
					<path id="&lt;Path&gt;" class="s27" d="m1201.5 1404.9h98.1c0 0 3.6-15.7-2.8-26.3-5.7-9.4-3.5-14.8 0.7-22.6-4.4 1.9-10.2 3.5-16.5 3.1-4.9-0.2-10.1-2.5-14.6-5.1-4.2 4.8-22.3 25.3-27.9 29.4-6.4 4.6-35 2.9-37 21.5z"/>
					<path id="&lt;Path&gt;" class="s9" d="m1425.8 1327.5c-10.6-30.2-23.2-67.4-39-106.2 4.1-29.3 13-55 27.9-65.3 0 0 36.3 112.3 11.1 171.5z"/>
					<path id="&lt;Path&gt;" class="s11" d="m1315 1080.3c-5.9 44.2-14.2 187.1-54.8 255.3-13.2 21.9 33 34.2 33.2 34.2 6.2-1.6 16.5-11.5 21.3-15.8 33-29.7 100-114 100-181.6 0-32.9-38.6-93.2-62.6-109.2-14.7-9.8-34.7-0.5-37.1 17.1z"/>
					<g id="&lt;Group&gt;">
						<path id="&lt;Path&gt;" class="s28" d="m1102.8 942.8l100.4-10.6c2.9-0.3 5.7 1.4 6.7 4.1l36 94.4c1.6 4.2-1.4 8.6-5.8 8.8l-99.7 4c-2.7 0.1-5.2-1.4-6.2-3.9l-36.7-87.8c-1.7-4 1-8.5 5.3-9z"/>
						<path id="&lt;Path&gt;" class="s27" d="m1094.1 943.8l100.4-10.7c2.9-0.3 5.7 1.4 6.7 4.1l36 94.4c1.5 4.2-1.4 8.6-5.8 8.8l-99.7 4c-2.7 0.1-5.2-1.4-6.2-3.9l-36.7-87.8c-1.7-4 1-8.5 5.3-8.9z"/>
						<path id="&lt;Path&gt;" class="s28" d="m1149.7 987.8c-1.2-3.3 0.5-6.1 3.9-6.1 3.4 0 7.1 2.8 8.3 6.1 1.3 3.4-0.5 6.1-3.9 6.1-3.3 0-7-2.7-8.3-6.1z"/>
						<path id="&lt;Path&gt;" class="s28" d="m1097.1 952.7c-0.6-1.7 0.2-3 1.9-3 1.6 0 3.5 1.3 4.1 3 0.6 1.6-0.3 3-1.9 3-1.7 0-3.5-1.4-4.1-3z"/>
					</g>
					<path id="&lt;Path&gt;" class="s16" d="m1516.4 989.9c0 0-139.2 51.2-160.1 50.2-13.5-0.7-125.9-40.2-125.9-40.2l-10.1 19.1c0 0 109.4 70.2 139.4 69.9 59.4-0.7 159.5-37.1 170.8-44.3 11.3-7.1 18.7-47.5-14.1-54.7z"/>
					<path id="&lt;Path&gt;" class="s16" d="m1230.4 999.9c0 0-10.1-15.5-20.1-16-10.1-0.4-27.4 6.9-33.3 8-6 1.1-22.9 6.6-17.8 14.8 5 8.3 28.3 10.1 38.3 8.3 10.1-1.9 22.8 4 22.8 4z"/>
					<path id="&lt;Path&gt;" class="s16" d="m1213 984.4c0 0-15.9-7.3-20.5-8.7-4.6-1.4-3.7 0-2.3 4.3 1.4 4.4 9.6 8.5 9.6 9.9 0 1.3 13.2-5.5 13.2-5.5z"/>
					<path id="&lt;Path&gt;" class="s16" d="m1104.4 991.7c0 0 10.1-16 13.4-16.6 10-2 10 11.2 7.9 19.8-2.3 9.1-10 17.8-12.2 17-2.1-0.8-11.5-11.8-9.1-20.2z"/>
					<path id="&lt;Path&gt;" class="s16" d="m1104 994.9c0 0-3.2 17.8 13.8 27.2z"/>
					<path id="&lt;Path&gt;" class="s30" d="m1394.9 928.9c0 0 6-2.4 22.8-1 0 0-0.8 6.5-13.3 7.2-7 0.3-9.5-6.2-9.5-6.2z"/>
					<path id="&lt;Path&gt;" class="s27" d="m1444.7 1015.1c0 0 12.4 39.4 55.2 48.4 0 0 70.5-21.7 35.4-69.8 0 0-34.8-25.9-90.6 21.4z"/>
				</g>
				<path id="&lt;Path&gt;" class="s31" d="m2927.4 1412.3h-2784.7c-1.8 0-3.2-1.4-3.2-3.2v-1.1c0-1.7 1.4-3.1 3.2-3.1h2784.7c1.7 0 3.2 1.4 3.2 3.1v1.1c0 1.8-1.5 3.2-3.2 3.2z"/>
			</g>
		</g>
	</g>
</svg>