<svg version="1.2" xmlns="http://www.w3.org/2000/svg" viewBox="0 0 4400 2000" width="4400" height="2000">
	<title>7488</title>
	<style>
		.s0 { fill: #96d9c9 } 
		.s1 { fill: #3c8f7c } 
		.s2 { fill: #50bfa5 } 
		.s3 { fill: #f7a491 } 
		.s4 { fill: #f47458 } 
		.s5 { fill: #355389 } 
		.s6 { fill: #9bc1f9 } 
		.s7 { fill: #13375b } 
		.s8 { fill: #b75742 } 
		.s9 { fill: #184655 } 
		.s10 { fill: #86b1f2 } 
		.s11 { fill: #466eb6 } 
		.s12 { fill: #000000 } 
		.s13 { fill: #5bcff7 } 
		.s14 { fill: #f7cc7f } 
		.s15 { fill: #efefef } 
		.s16 { fill: #f48c7f } 
		.s17 { fill: #fae0b2 } 
		.s18 { fill: #ffd09f } 
		.s19 { fill: #ffb769 } 
		.s20 { fill: #ff7700 } 
		.s21 { fill: #ffffff } 
		.s22 { fill: #f8a492 } 
		.s23 { fill: #fe875e } 
		.s24 { fill: #1d211d } 
	</style>
	<g id="Layer 1">
		<g id="&lt;Group&gt;">
			<g id="&lt;Group&gt;">
				<g id="&lt;Group&gt;">
					<g id="&lt;Group&gt;">
						<path id="&lt;Path&gt;" class="s0" d="m3536.7 1315.1c43.9-62.1 52.1-137 51.3-189-1-56.4-12.5-98.6-12.6-99l3.2-1c0.1 0.4 11.7 42.9 12.6 99.7 0.9 52.5-7.4 128.2-51.9 191z"/>
					</g>
					<g id="&lt;Group&gt;">
						<path id="&lt;Path&gt;" class="s0" d="m3564.6 1016.8c1.1 12.7 7.3 23.4 16.3 30 7.7-8.9 12-21 10.9-33.8-1.1-12.8-7.3-23.5-16.3-30-7.7 8.8-12 21-10.9 33.8z"/>
					</g>
					<g id="&lt;Group&gt;">
						<path id="&lt;Path&gt;" class="s0" d="m3594.3 1046.2c-7.5 11.1-9.8 23.7-7.4 34.6 11.4-2.5 22.5-9.7 29.9-20.8 7.5-11 9.8-23.6 7.4-34.5-11.4 2.5-22.5 9.7-29.9 20.7z"/>
					</g>
					<g id="&lt;Group&gt;">
						<path id="&lt;Path&gt;" class="s0" d="m3611.1 1080.9c-11.6 6.8-19.4 17.3-22.4 28.4 11 2.8 23.9 1.1 35.4-5.7 11.6-6.8 19.4-17.3 22.5-28.4-11-2.8-23.9-1.1-35.5 5.7z"/>
					</g>
					<g id="&lt;Group&gt;">
						<path id="&lt;Path&gt;" class="s0" d="m3605.9 1129.2c-9.2 5.4-14.8 14.6-16.4 24.9 9.6 3.6 20.3 3.2 29.5-2.2 9.1-5.4 14.8-14.7 16.4-24.9-9.6-3.7-20.3-3.2-29.5 2.2z"/>
					</g>
					<g id="&lt;Group&gt;">
						<path id="&lt;Path&gt;" class="s0" d="m3568 1072c-10.3-5-21.8-5.3-31.7-1.7 2.7 9.6 9.6 18.3 19.9 23.3 10.3 5 21.8 5.2 31.7 1.6-2.6-9.6-9.6-18.2-19.9-23.2z"/>
					</g>
					<g id="&lt;Group&gt;">
						<path id="&lt;Path&gt;" class="s0" d="m3569.2 1105.3c-10.3-5-21.8-5.2-31.7-1.6 2.6 9.6 9.5 18.2 19.8 23.2 10.3 5 21.9 5.3 31.7 1.7-2.6-9.7-9.5-18.3-19.8-23.3z"/>
					</g>
					<g id="&lt;Group&gt;">
						<path id="&lt;Path&gt;" class="s0" d="m3599.3 1182.2c-5.5 1.2-10 4.5-12.7 8.8 3.9 2.9 9.1 4.2 14.5 3.1 5.5-1.2 10-4.5 12.7-8.9-3.8-2.9-9.1-4.1-14.5-3z"/>
					</g>
				</g>
				<g id="&lt;Group&gt;">
					<g id="&lt;Group&gt;">
						<path id="&lt;Path&gt;" class="s0" d="m3600.3 1632.3c100.5-21.7 177.2-89 223.9-141.6 50.6-57.1 77.7-109.7 78-110.2l4.1 1.9c-0.3 0.5-27.6 53.5-78.6 111-47 53.1-124.5 121-226.3 143.1z"/>
					</g>
					<g id="&lt;Group&gt;">
						<path id="&lt;Path&gt;" class="s0" d="m3900.8 1360.3c-10.6 13.7-14.1 30.1-11.2 44.9 15.8-1.9 31.2-10.1 41.8-23.8 10.6-13.7 14.2-30.1 11.2-44.8-15.8 1.8-31.2 10-41.8 23.7z"/>
					</g>
					<g id="&lt;Group&gt;">
						<path id="&lt;Path&gt;" class="s0" d="m3903.5 1416.8c-17.5 4.2-31.3 14.6-38.9 27.7 13.6 8 31.2 10.9 48.7 6.7 17.6-4.2 31.4-14.6 39-27.7-13.7-8-31.3-10.9-48.8-6.7z"/>
					</g>
					<g id="&lt;Group&gt;">
						<path id="&lt;Path&gt;" class="s0" d="m3888.6 1466.8c-17.8-3.8-35.2-0.5-48.4 7.8 8.4 12.9 22.8 23 40.6 26.7 17.8 3.8 35.2 0.5 48.3-7.8-8.3-12.9-22.8-23-40.5-26.7z"/>
					</g>
					<g id="&lt;Group&gt;">
						<path id="&lt;Path&gt;" class="s0" d="m3848.5 1512.2c-17.8-3.8-35.2-0.5-48.3 7.8 8.4 12.9 22.8 23 40.5 26.8 17.8 3.7 35.2 0.4 48.4-7.9-8.4-12.8-22.8-22.9-40.6-26.7z"/>
					</g>
					<g id="&lt;Group&gt;">
						<path id="&lt;Path&gt;" class="s0" d="m3860.5 1436.7c0.9-15.5-4.7-30-14.3-40.5-10.7 8.2-17.9 21.4-18.8 36.8-0.9 15.5 4.7 30 14.3 40.5 10.7-8.2 17.9-21.4 18.8-36.8z"/>
					</g>
					<g id="&lt;Group&gt;">
						<path id="&lt;Path&gt;" class="s0" d="m3818.7 1483.7c1.2-15.5-4.2-30.1-13.6-40.7-10.8 8-18.3 21-19.4 36.5-1.2 15.4 4.2 30 13.6 40.7 10.8-8.1 18.3-21.1 19.4-36.5z"/>
					</g>
					<g id="&lt;Group&gt;">
						<path id="&lt;Path&gt;" class="s0" d="m3784.2 1557c-6.5-3.8-14-4.7-20.7-2.8 1.2 6.4 5.2 12.5 11.7 16.3 6.5 3.8 14.1 4.6 20.7 2.8-1.2-6.4-5.2-12.5-11.7-16.3z"/>
					</g>
				</g>
				<path id="&lt;Path&gt;" class="s1" d="m3417.6 1533.8c0 0 48.6-377.7 108.8-377.8 55-0.1 0.8 142.6 7.4 172.3 6.6 29.8 60-91.1 114.5-147.2 54.6-56.2 88-25.2 56.3 42.9-30.5 65.9-141.3 143.2-116.5 149.8 24.8 6.6 163.8-85.2 184.8-51.4 25.6 41.5-188.5 114.8-167 123 21.5 8.3 123.5-30.6 123.5 2.5 0 33-141 41.3-137.3 55.6 5.9 23.1 135.8-25.5 142.7 6.6 7.1 32.9-161.5 24.7-157 50.4 2.5 14.8 34.6-0.7 40.4 19.6 13.2 46.3-220.4 67.8-220.4 67.8z"/>
				<path id="&lt;Path&gt;" class="s0" d="m3016.8 1546.3c-36.7 15.1-26.8 52.5-26.8 52.5 0 0-99.5-68.1-136.6-28.4-37.2 39.7-17.7 117.6 25.9 130.2 43.6 12.7 409.4 1.8 409.4 1.8l51.5-38.6c0 0-290.5-131-323.4-117.5z"/>
				<g id="&lt;Group&gt;">
					<g id="&lt;Group&gt;">
						<g id="&lt;Group&gt;">
							<path id="&lt;Path&gt;" class="s0" d="m3199.6 1462.7l-5.2-0.3c7.5-125.3-43.4-243.1-87.3-319.9-47.8-83.4-98-137.8-98.5-138.3l3.9-3.6c0.5 0.6 51 55.3 99 139.1 44.4 77.5 95.7 196.4 88.1 323z"/>
						</g>
						<g id="&lt;Group&gt;">
							<path id="&lt;Path&gt;" class="s0" d="m2985.9 997c12 18.2 29.1 29.5 46.6 32.6 2.9-18.9-1.4-40.3-13.3-58.5-12-18.2-29.1-29.5-46.6-32.6-2.9 19 1.4 40.3 13.3 58.5z"/>
						</g>
						<g id="&lt;Group&gt;">
							<path id="&lt;Path&gt;" class="s0" d="m3049.8 1018.8c-0.8 22 6.5 42.5 18.7 57 13.2-12.2 22-31.2 22.8-53.2 0.9-22-6.4-42.4-18.6-56.9-13.2 12.2-22 31.1-22.9 53.1z"/>
						</g>
						<g id="&lt;Group&gt;">
							<path id="&lt;Path&gt;" class="s0" d="m3100.9 1058c-9.9 18.7-11.7 40.2-6.6 59 17-4 32.9-16.1 42.7-34.9 9.9-18.7 11.7-40.2 6.6-59-17 4-32.9 16.1-42.7 34.9z"/>
						</g>
						<g id="&lt;Group&gt;">
							<path id="&lt;Path&gt;" class="s0" d="m3135.9 1154.2c-4.7 7.5-6.1 16.5-4.6 24.5 7.3-1.1 14.3-5.7 19-13.3 4.7-7.5 6.2-16.4 4.6-24.5-7.2 1.2-14.2 5.7-19 13.3z"/>
						</g>
						<g id="&lt;Group&gt;">
							<path id="&lt;Path&gt;" class="s0" d="m3151.1 1188.7c-4.7 7.6-6.2 16.5-4.6 24.5 7.2-1.1 14.2-5.7 19-13.2 4.7-7.6 6.1-16.5 4.6-24.5-7.3 1.1-14.3 5.7-19 13.2z"/>
						</g>
						<g id="&lt;Group&gt;">
							<path id="&lt;Path&gt;" class="s0" d="m3036 1076.7c-17.8 0.2-33.5 8.4-43.7 21.1 11.4 12.4 27.8 20.1 45.7 19.9 17.8-0.3 33.5-8.4 43.7-21.1-11.4-12.4-27.8-20.2-45.7-19.9z"/>
						</g>
						<g id="&lt;Group&gt;">
							<path id="&lt;Path&gt;" class="s0" d="m3065 1125.5c-17.8 0.3-33.5 8.4-43.7 21.1 11.4 12.4 27.8 20.1 45.7 19.9 17.8-0.2 33.5-8.4 43.7-21.1-11.4-12.4-27.8-20.1-45.7-19.9z"/>
						</g>
						<g id="&lt;Group&gt;">
							<path id="&lt;Path&gt;" class="s0" d="m3113 1192.1c-11.6 0.1-21.8 5.4-28.4 13.7 7.4 8.1 18.1 13.1 29.7 12.9 11.6-0.1 21.8-5.4 28.4-13.7-7.4-8.1-18.1-13.1-29.7-12.9z"/>
						</g>
					</g>
				</g>
				<g id="&lt;Group&gt;">
					<g id="&lt;Group&gt;">
						<path id="&lt;Path&gt;" class="s2" d="m3341.1 1663.7c0 0-302.1-50.5-367.8-104.1-65.7-53.5-36.7-74.3-36.7-74.3 0 0-115.7-81.1-114-134 1.8-52.9 77.2-26 77.2-26 0 0-127.9-145.8-97.6-173.5 56.4-51.6 204.2 100 204.2 100 0 0-43.9-72.1 2.3-83.5 69.7-17.2 121.2 160.5 121.2 160.5 0 0-13.1-70.1 35-60.8 86.2 16.8 176.2 395.7 176.2 395.7z"/>
					</g>
					<path id="&lt;Path&gt;" class="s1" d="m3176.2 1249.7c-67.1-16.2-46.3 79.1-46.3 79.1 0 0-51.5-177.7-121.2-160.5-46.2 11.4-2.3 83.5-2.3 83.5 0 0-147.8-151.6-204.2-100l537.8 512c-9.5-48.9-96.8-397.9-163.8-414.1z"/>
				</g>
				<g id="&lt;Group&gt;">
					<path id="&lt;Path&gt;" class="s2" d="m3416.1 1696.5c0 0 92.6-94.3 139.3-104.1 46.6-9.8 38.2 23.3 38.2 23.3 0 0 92.6-80.9 114-61.3 21.5 19.6-1.7 38.5-1.7 38.5 0 0 77.1-13.7 88.1 11.6 17 38.9-109.8 60.1-109.8 60.1 0 0 53.1 3.7 40.8 28-18.5 36.8-308.9 3.9-308.9 3.9z"/>
					<path id="&lt;Path&gt;" class="s0" d="m3794 1604.5c-11-25.3-88.1-11.6-88.1-11.6 0 0 23.2-18.9 1.7-38.5-21.4-19.6-111.1 50.3-111.1 50.3 0 0 21.1-40.4-25.5-30.6-46.7 9.9-154.9 122.4-154.9 122.4z"/>
				</g>
				<path id="&lt;Path&gt;" class="s0" d="m2955.1 861.6c0 0-1.2-9.7 6.9-17.1 7.3-6.5 17.9-4.8 24.3 2.3 7.5 8.3 9.4 24.3-0.8 48.8-25.4 7.4-41.1 3.7-48.5-4.6-6.4-7.2-6.9-17.8 0.4-24.4 8.2-7.3 17.7-5 17.7-5z"/>
				<path id="&lt;Path&gt;" class="s2" d="m2986.3 846.8c-6.4-7.1-17-8.8-24.3-2.3-8.1 7.4-6.9 17.1-6.9 17.1 0 0 30.3 34 30.4 34 10.2-24.5 8.3-40.5 0.8-48.8z"/>
				<path id="&lt;Path&gt;" class="s2" d="m3130 948.8c0 0 0.2-9.8 9.4-15.9 8.1-5.4 18.3-2.3 23.7 5.8 6.1 9.3 5.7 25.3-7.8 48.1-26.3 3.7-41.3-2.2-47.4-11.5-5.3-8.1-4.3-18.7 3.9-24.1 9.1-6.1 18.2-2.4 18.2-2.4z"/>
				<path id="&lt;Path&gt;" class="s0" d="m3163.1 938.7c-5.4-8.1-15.6-11.2-23.7-5.8-9.2 6.1-9.4 15.9-9.4 15.9 0 0 25.3 38 25.3 38 13.5-22.8 13.9-38.8 7.8-48.1z"/>
				<path id="&lt;Path&gt;" class="s2" d="m2698.3 1100.8c4 7.6 12.4 11 18.9 7.7 6.6-3.3 8.7-12.3 4.7-20.1-4-7.8-12.5-11.5-19.1-8.1-1.7 0.8-3.1 2.1-4.2 3.6l-10.4-22.4 38.3-6.7 17.8 38.3q0 0.1 0.1 0.2c3.9 7.8 12.5 11.4 19 8.1 6.6-3.4 8.7-12.4 4.8-20.2-4-7.8-12.6-11.4-19.1-8.1-1.7 0.9-3.1 2.1-4.2 3.6l-19.1-41c-0.6-1.4-2-2.2-3.2-1.9l-47.6 9.7c-1.6 0.3-2.4 2.2-1.6 3.9l24.9 53.4z"/>
				<path id="&lt;Path&gt;" class="s0" d="m2843.4 929.1c-0.5-2.4-7.4-27.8-15.8-59-32.5 10.2-31.3 10.3-62.9 11.5 4.3 16.1 8.6 32.2 12.2 45.1-17.3-2.9-33.5 19.9-22.9 31.8 11.4 12.7 37.6-4.1 33.7-21.7-0.4-1.6-4.3-15.7-10.3-38l47.2-8.9c1.9 6.9 4.4 15.9 8 29.1-17.2-2.9-33.5 19.9-22.9 31.7 5.9 6.6 17.5 5.7 26-1.9 6.2-5.5 9.2-13.3 7.8-19.8z"/>
			</g>
			<g id="&lt;Group&gt;">
				<path id="&lt;Path&gt;" class="s1" d="m1232 1401.4c0 0 188.1-326.4 128.4-367.8-54.5-37.9-75.8 59-102.7 84-27 25 2.9-67.6-12.7-160.9-15.6-93.2-30.9-56.6-46.3 32.8-14.9 86.5 3 146.4-26.2 135.9-29.1-10.4-105.9-150.1-149.9-130.8-54 23.5 110.1 196.3 83.1 189.8-27-6.6-77.1-112.8-99.8-80-22.7 32.9 87.1 135.4 73.6 147.1-21.7 18.9-117.4-118.5-146.3-91.4-29.5 27.8 143.5 135.4 121.4 157.9-12.6 12.9-159-115.8-178.7-99.7-44.9 36.9 297.5 310 297.5 310z"/>
				<path id="&lt;Path&gt;" class="s0" d="m901.1 1507.8c-44.3 18.2-32.4 63.3-32.4 63.3 0 0-120-82.1-164.9-34.2-44.8 48-21.3 141.9 31.4 157.2 52.6 15.3 494.2 2.1 494.2 2.1l62.1-46.6c0 0-350.6-158.1-390.4-141.8z"/>
				<g id="&lt;Group&gt;">
					<g id="&lt;Group&gt;">
						<g id="&lt;Group&gt;">
							<path id="&lt;Path&gt;" class="s0" d="m1000.5 1616.8l-3.9 3.1c-74.3-92.9-184.9-143.5-264.7-169.6-86.5-28.3-156.4-34.6-157.1-34.7l0.5-4.9c0.7 0 71 6.4 158.1 34.9 80.4 26.3 192 77.3 267.1 171.2z"/>
						</g>
						<g id="&lt;Group&gt;">
							<path id="&lt;Path&gt;" class="s0" d="m554.3 1425c20 5.2 39.2 2.3 53.5-6.6-10-15.2-26.6-27.5-46.6-32.7-19.9-5.3-39.2-2.3-53.4 6.6 9.9 15.2 26.5 27.5 46.5 32.7z"/>
						</g>
						<g id="&lt;Group&gt;">
							<path id="&lt;Path&gt;" class="s0" d="m613.1 1399.7c13.4 16 31.5 25.8 49.3 28.3 1.6-17-4.3-35.9-17.7-51.9-13.3-16.1-31.5-25.8-49.2-28.3-1.6 17 4.3 35.9 17.6 51.9z"/>
						</g>
						<g id="&lt;Group&gt;">
							<path id="&lt;Path&gt;" class="s0" d="m673.9 1394.8c5 19.5 17.4 35.8 32.9 45.7 9.4-13.6 12.9-32.2 7.9-51.6-5-19.5-17.4-35.7-32.9-45.7-9.5 13.6-12.9 32.2-7.9 51.6z"/>
						</g>
						<g id="&lt;Group&gt;">
							<path id="&lt;Path&gt;" class="s0" d="m759.7 1440.2c1.5 8.4 6.1 15.6 12.3 20.2 4.4-5.4 6.4-13.1 5-21.4-1.5-8.3-6.2-15.5-12.4-20.1-4.4 5.4-6.4 13-4.9 21.3z"/>
						</g>
						<g id="&lt;Group&gt;">
							<path id="&lt;Path&gt;" class="s0" d="m792.3 1454.9c1.5 8.3 6.1 15.5 12.3 20.2 4.4-5.4 6.4-13.1 5-21.4-1.5-8.3-6.2-15.5-12.4-20.2-4.4 5.4-6.4 13.1-4.9 21.4z"/>
						</g>
						<g id="&lt;Group&gt;">
							<path id="&lt;Path&gt;" class="s0" d="m640.2 1449.2c-12.4 11.5-18.3 27.2-17.4 42.6 15.9 1.5 32.4-3.5 44.8-15 12.4-11.5 18.2-27.2 17.3-42.6-15.9-1.5-32.3 3.5-44.7 15z"/>
						</g>
						<g id="&lt;Group&gt;">
							<path id="&lt;Path&gt;" class="s0" d="m691.6 1465.1c-12.4 11.6-18.2 27.2-17.4 42.6 16 1.5 32.4-3.5 44.8-15 12.4-11.5 18.2-27.2 17.4-42.6-16-1.5-32.4 3.5-44.8 15z"/>
						</g>
						<g id="&lt;Group&gt;">
							<path id="&lt;Path&gt;" class="s0" d="m767.6 1481.5c-8.1 7.4-11.8 17.6-11.3 27.7 10.4 0.9 21.1-2.3 29.2-9.8 8-7.5 11.8-17.7 11.3-27.7-10.4-1-21.1 2.3-29.2 9.8z"/>
						</g>
					</g>
				</g>
				<g id="&lt;Group&gt;">
					<g id="&lt;Group&gt;">
						<path id="&lt;Path&gt;" class="s2" d="m1292.6 1649.5c0 0-310.5-51.9-378.1-106.9-67.5-55-0.7-79.9-0.7-79.9 0 0-155.9-79.9-154.1-134.3 1.8-54.4 79.3-26.7 79.3-26.7 0 0-131.5-149.9-100.4-178.4 58-53 209.9 102.8 209.9 102.8 0 0-45.1-74.1 2.4-85.8 71.7-17.7 124.6 165 124.6 165 0 0-13.4-72.1 36-62.5 88.6 17.2 181.1 406.7 181.1 406.7z"/>
					</g>
					<path id="&lt;Path&gt;" class="s1" d="m1123.1 1224c-68.7-18.1-47.6 81.3-47.6 81.3 0 0-52.9-182.7-124.6-165-47.5 11.7-2.4 85.8-2.4 85.8 0 0-151.9-155.8-209.9-102.8l552.9 526.3c-9.8-50.3-107.7-409.7-168.4-425.6z"/>
				</g>
			</g>
			<path id="&lt;Path&gt;" class="s3" d="m3193.6 1589.8c-13.6 16.1-23.5 32.8-24.5 34.8-0.6 1-0.8 6.7-1.3 7.8-21.1 13.9-43.5 10-61.9 4.3 12.1-5.3 29-11.3 30.5-13.9 2.6-4 14.1-18.6 26-44.9 9.5 9.4 18.4 8.3 31.2 11.9z"/>
			<path id="&lt;Path&gt;" class="s4" d="m3168.8 1625.4c1.9 8.4 1.2 25.6-0.5 25.9-2 0.5-73 11-82.1 1.9-5.5-5.5 4.8-9.7 19.7-16.5 18.4 5.7 62.3-5.6 62.9-11.3z"/>
			<path id="&lt;Path&gt;" class="s5" d="m3152.9 1589.1l36.9 12.8 198.7-164.9c0 0-48.5-0.6-135.4 8.3-26 2.6-100.2 143.8-100.2 143.8z"/>
			<g id="&lt;Group&gt;">
				<path id="&lt;Path&gt;" class="s6" d="m2872.6 1616.1c18.1-86.6-46.1-167.9-128.5-160.8-75.5 6.6-125.5 87-108.4 160.8h-847.7c17.1-74.4-33.7-154.3-108.6-160.8-82.3-7.1-146.5 74.2-128.4 160.8h-236.8c14.5-214.9 25.4-376.2 40.3-596.7 1.5-22.8 19.2-40.4 40.3-40.2 0.6 0 48.3 0.6 45.2 0.6 157.2 1.9-25.4-0.3 913.7 11.3 138 1.7 219.1 84.8 231.6 92.1 254.2 199.9 266.5 201.7 301 241.6 48.4 55.9 77.7 128.8 81.7 206.6l4.5 84.7z"/>
				<path id="&lt;Path&gt;" class="s7" d="m1646 1616.1h-352.2c-6.9 0-12.6-5.6-12.6-12.6v-120.5c0-6.9 5.7-12.5 12.6-12.5h352.2c6.9 0 12.5 5.6 12.5 12.5v120.5c0 7-5.6 12.6-12.5 12.6z"/>
				<path id="&lt;Path&gt;" class="s8" d="m1369.9 1272.7h-32.5l-3.6 52.1h36.1z"/>
				<path id="&lt;Path&gt;" class="s8" d="m1331.6 1357.8l-7.6 112.7h45.9v-112.7z"/>
				<path id="&lt;Path&gt;" class="s6" d="m1788.2 1632.1c3.1-21.2 3.8-43.6 1.1-66.9h845c-2.7 23.3-2 45.7 1.1 66.9z"/>
				<path id="&lt;Path&gt;" class="s9" d="m2501.6 1456.7c-5.6 0-10.2-4.9-10.2-11v-89.7c0-6.1 4.6-11 10.2-11 5.6 0 10.1 4.9 10.1 11v89.7c0 6.1-4.5 11-10.1 11z"/>
				<path id="&lt;Path&gt;" class="s10" d="m2988.4 1610.1h-165.3v-157.9c0-28.1 21-50.8 46.8-50.8h44.1c35.5 0 66.3 27 73.6 64.8 30.6 157.8 20.1 103.4 22.3 115.1 2.9 14.7-7.4 28.8-21.5 28.8z"/>
				<path id="&lt;Path&gt;" class="s6" d="m3016.4 1617.4h-192.9v-104.4h106.1c41.5 0 77.3 13.6 85.9 32.5 0 0 17.2 71.9 0.9 71.9z"/>
				<g id="&lt;Group&gt;">
					<path id="&lt;Path&gt;" class="s9" d="m2870 1581.3c0 75-56.1 135.9-125.2 135.9-69.2 0-125.2-60.9-125.2-135.9 0-75 56-135.8 125.2-135.8 69.1 0 125.2 60.8 125.2 135.8z"/>
				</g>
				<g id="&lt;Group&gt;">
					<path id="&lt;Path&gt;" class="s9" d="m1810.9 1581.3c0 75-56.1 135.9-125.2 135.9-69.2 0-125.2-60.9-125.2-135.9 0-75 56-135.8 125.2-135.8 69.1 0 125.2 60.8 125.2 135.8z"/>
					<path id="&lt;Path&gt;" class="s11" d="m1759.2 1581.3c0 44.1-32.9 79.8-73.5 79.8-40.7 0-73.6-35.7-73.6-79.8 0-44.1 32.9-79.8 73.6-79.8 40.6 0 73.5 35.7 73.5 79.8z"/>
					<path id="&lt;Path&gt;" class="s6" d="m1727.8 1581.3c0 25.3-18.8 45.8-42.1 45.8-23.3 0-42.2-20.5-42.2-45.8 0-25.3 18.9-45.7 42.2-45.7 23.3 0 42.1 20.4 42.1 45.7z"/>
				</g>
				<g id="&lt;Group&gt;">
					<path id="&lt;Path&gt;" class="s7" d="m2392.6 956.7h-895.6v-26.6h895.6z"/>
					<path id="&lt;Path&gt;" class="s7" d="m1704.4 998.7c-5.2 0-9.3-4.5-9.3-10.1v-31.9h18.5v31.9c0 5.6-4.1 10.1-9.2 10.1z"/>
					<path id="&lt;Path&gt;" class="s12" d="m2241.1 998.7c-5.1 0-9.3-4.5-9.3-10.1v-31.9h18.6v31.9c0 5.6-4.2 10.1-9.3 10.1z"/>
				</g>
				<path id="&lt;Path&gt;" class="s7" d="m1682.1 1180.6h-245.8c-17.4 0-31.5-14.1-31.5-31.5v-41.3c0-17.4 14.1-31.5 31.5-31.5h245.8c17.4 0 31.5 14.1 31.5 31.5v41.3c0 17.4-14.1 31.5-31.5 31.5z"/>
				<path id="&lt;Path&gt;" class="s7" d="m2357.2 1345h-521c-19.6 0-35.4-15.8-35.4-35.4v-217.6c0-19.5 15.8-35.4 35.4-35.4h521c19.5 0 35.4 15.9 35.4 35.4v217.6c0 19.6-15.9 35.4-35.4 35.4z"/>
				<g id="&lt;Group&gt;">
					<path id="&lt;Path&gt;" class="s9" d="m2034.2 1605.7h-12.8v-256.5h12.8z"/>
				</g>
				<g id="&lt;Group&gt;">
					<path id="&lt;Path&gt;" class="s9" d="m2474.9 1590h-12.8v-323.6h12.8z"/>
				</g>
				<path id="&lt;Path&gt;" class="s7" d="m2458.9 1071.6l1.7 218c0 6.9 5.2 12.5 11.6 12.5h309c11.4 0 16-15.9 6.7-23l-277.1-211.4c-2.7-2-23.9-6.1-38.4-8.7-7.1-1.3-13.6 4.7-13.5 12.6z"/>
			</g>
			<g id="&lt;Group&gt;">
				<path id="&lt;Path&gt;" class="s11" d="m3587.9 1699.2h-837.3v-189.2h837.3z"/>
				<path id="&lt;Path&gt;" class="s10" d="m3628.9 1604.6c0 52.2-18.4 94.6-41 94.6-22.6 0-40.9-42.4-40.9-94.6 0-52.2 18.3-94.6 40.9-94.6 22.6 0 41 42.4 41 94.6z"/>
				<path id="&lt;Path&gt;" class="s11" d="m2791.5 1604.6c0 52.2-18.3 94.6-40.9 94.6-22.6 0-40.9-42.4-40.9-94.6 0-52.2 18.3-94.6 40.9-94.6 22.6 0 40.9 42.4 40.9 94.6z"/>
				<g id="&lt;Group&gt;">
					<path id="&lt;Path&gt;" class="s7" d="m3609.2 1629.5c-6.4-2.2 9.2-17.2 2.4-52.1-5.4-27.6-24.5-45.7-32.7-47.1-1.3-0.3-2.2-1.5-2-2.9 2.1-11.9 59.4 30.1 35.4 100.6-0.5 1.3-1.9 1.9-3.1 1.5z"/>
				</g>
				<g id="&lt;Group&gt;">
					<path id="&lt;Path&gt;" class="s7" d="m3574 1680.7c-16.6-16.5-20.1-58.1-20.1-83.2 0-1.4 1.1-2.5 2.5-2.5 1.3 0 2.4 1.1 2.4 2.5-0.1 49.5 13.4 88.5 30.4 84.5 10.9-2.6 9.4-13.2 14-11.3 5.1 2-3.8 13.9-12.9 16-6.7 1.6-11.5-1.2-16.3-6z"/>
				</g>
				<g id="&lt;Group&gt;">
					<path id="&lt;Path&gt;" class="s7" d="m3583.7 1651.4c-11.6-21.2-13.3-47.2-4.5-69.7 1.2-3 5.7-1.3 4.5 1.7-8.2 21.2-6.7 45.8 4.2 65.7 0.7 1.2 0.3 2.7-0.9 3.3-1.2 0.6-2.7 0.2-3.3-1z"/>
				</g>
			</g>
			<g id="&lt;Group&gt;">
				<g id="&lt;Group&gt;">
					<path id="&lt;Path&gt;" class="s4" d="m1947.9 806.5c-3.3 0-6-2.8-6-6.1 0-80.7 65.6-146.4 146.3-146.4 34.6 0 68.2 12.3 94.6 34.6 2.5 2.2 2.9 6 0.7 8.6-2.2 2.5-6 2.9-8.6 0.7-24.1-20.5-54.9-31.8-86.7-31.8-74 0-134.2 60.3-134.2 134.3 0 3.3-2.7 6.1-6.1 6.1z"/>
				</g>
				<g id="&lt;Group&gt;">
					<g id="&lt;Group&gt;">
						<path id="&lt;Path&gt;" class="s8" d="m1853.6 797.6c-1.7 0-3.4-0.9-4.4-2.6l-111.7-199.7c-1.3-2.5-0.5-5.5 2-6.9 2.4-1.4 5.5-0.5 6.9 1.9l115.7 199.2c1.4 2.5-3.5 6.1-6 7.5-0.8 0.4-1.6 0.6-2.5 0.6z"/>
					</g>
					<path id="&lt;Compound Path&gt;" class="s8" d="m1987.1 607.4c0.2-3.3-2.7-5.9-6-5.3l-212.7 39.3c-98 168.9-92.8 157.6-90.9 161.3 2.6 5.2-2.4 1.5 185.7 4.8 125.7-201.8 123.7-197.5 123.9-200.1zm-129.5 189.9l-166.9-1.9 84.2-144.9 196.8-36.3z"/>
				</g>
				<g id="&lt;Group&gt;" style="opacity: .6">
					<path id="&lt;Path&gt;" class="s10" d="m2086.1 888.3c-48.5 0-87.9-39.4-87.9-87.9 0-14.2 3.2-27.7 9.7-40.2 0.5-1 1.7-1.4 2.7-0.9 1 0.5 1.4 1.8 0.9 2.8-6.2 11.9-9.3 24.8-9.3 38.3 0 46.2 37.6 83.9 83.9 83.9 12.2 0 23.9-2.6 34.9-7.6 1-0.5 2.2 0 2.7 1 0.4 1 0 2.2-1 2.7-11.6 5.3-23.9 7.9-36.6 7.9z"/>
				</g>
				<g id="&lt;Group&gt;">
					<path id="&lt;Compound Path&gt;" class="s5" d="m2086.1 930c-71.5 0-129.6-58.1-129.6-129.6 0-71.5 58.1-129.6 129.6-129.6 71.5 0 129.6 58.1 129.6 129.6 0 71.5-58.1 129.6-129.6 129.6zm0-243c-62.5 0-113.4 50.9-113.4 113.4 0 62.5 50.9 113.4 113.4 113.4 62.5 0 113.4-50.9 113.4-113.4 0-62.5-50.9-113.4-113.4-113.4z"/>
				</g>
				<g id="&lt;Group&gt;" style="opacity: .6">
					<path id="&lt;Compound Path&gt;" class="s10" d="m2086.1 901c-55.5 0-100.6-45.2-100.6-100.6 0-55.5 45.1-100.6 100.6-100.6 55.5 0 100.6 45.1 100.6 100.6 0 55.4-45.1 100.6-100.6 100.6zm0-197.1c-53.2 0-96.5 43.3-96.5 96.5 0 53.2 43.3 96.5 96.5 96.5 53.2 0 96.5-43.3 96.5-96.5 0-53.2-43.3-96.5-96.5-96.5z"/>
				</g>
				<g id="&lt;Group&gt;">
					<path id="&lt;Path&gt;" class="s8" d="m2088.3 805.5c-1.8 0-3.6-1-4.5-2.7l-136.3-248.1c-1.3-2.4-2-5.1-2-7.8v-16.1c0-3.1-0.7-6.4-1.7-6.9-0.9-0.5-4.7 0.2-7.4 1.8l-23.8 14.2c-2.4 1.5-5.5 0.7-6.9-1.7-1.4-2.4-0.7-5.5 1.7-6.9l23.8-14.3c5-3 13.3-4.3 18.4-1.4 5.2 2.9 6 9.4 6 15.2v16.1c0 1 0.3 2 0.7 2.9l136.4 248.1c1.3 2.5 0.4 5.6-2 6.9-0.8 0.4-1.6 0.7-2.4 0.7z"/>
				</g>
				<g id="&lt;Group&gt;">
					<path id="&lt;Compound Path&gt;" class="s5" d="m1682 930c-71.5 0-129.6-58.1-129.6-129.6 0-71.5 58.1-129.6 129.6-129.6 71.4 0 129.6 58.1 129.6 129.6 0 71.5-58.2 129.6-129.6 129.6zm0-243c-62.6 0-113.4 50.9-113.4 113.4 0 62.5 50.8 113.4 113.4 113.4 62.5 0 113.4-50.9 113.4-113.4 0-62.5-50.9-113.4-113.4-113.4z"/>
				</g>
				<g id="&lt;Group&gt;">
					<path id="&lt;Compound Path&gt;" class="s10" d="m1682 901c-55.5 0-100.6-45.2-100.6-100.6 0-55.5 45.1-100.6 100.6-100.6 55.4 0 100.5 45.1 100.5 100.6 0 55.4-45.1 100.6-100.5 100.6zm0-197.1c-53.3 0-96.6 43.3-96.6 96.5 0 53.2 43.3 96.5 96.6 96.5 53.2 0 96.5-43.3 96.5-96.5 0-53.2-43.3-96.5-96.5-96.5z"/>
				</g>
				<g id="&lt;Group&gt;">
					<path id="&lt;Path&gt;" class="s10" d="m1682 888.3c-48.5 0-88-39.4-88-87.9 0-14.2 3.3-27.7 9.7-40.2 0.5-1 1.7-1.4 2.7-0.9 1 0.5 1.4 1.8 0.9 2.8-6.1 11.9-9.2 24.8-9.2 38.3 0 46.2 37.6 83.9 83.9 83.9 12.1 0 23.9-2.6 34.8-7.6 1.1-0.5 2.3 0 2.7 1 0.5 1 0 2.2-1 2.7-11.5 5.3-23.8 7.9-36.5 7.9z"/>
				</g>
				<g id="&lt;Group&gt;">
					<path id="&lt;Path&gt;" class="s10" d="m1744.7 743.7c-0.6 0-1.1-0.2-1.5-0.7-15.8-16.8-38.1-26.5-61.2-26.5-1.2 0-2.1-0.9-2.1-2 0-1.2 0.9-2.1 2.1-2.1 24.2 0 47.6 10.2 64.2 27.9 0.7 0.8 0.7 2.1-0.1 2.8-0.4 0.4-0.9 0.6-1.4 0.6z"/>
				</g>
				<g id="&lt;Group&gt;">
					<path id="&lt;Path&gt;" class="s4" d="m1772.6 699.3c-1.4 0-2.8-0.4-3.9-1.4-24.2-20.5-55-31.8-86.7-31.8-26.8 0-52.7 7.9-74.8 22.8-2.8 1.8-6.5 1.1-8.4-1.7-1.9-2.8-1.1-6.6 1.6-8.4 24.2-16.2 52.4-24.8 81.6-24.8 34.6 0 68.1 12.3 94.5 34.6 2.6 2.2 2.9 6 0.7 8.6-1.2 1.4-2.9 2.1-4.6 2.1z"/>
				</g>
				<g id="&lt;Group&gt;">
					<path id="&lt;Path&gt;" class="s9" d="m1682 786.9c-0.9 0-1.6-0.7-1.6-1.5 0-0.9 0.6-1.6 1.5-1.6l178.4-8.3c0.9-0.1 1.6 0.6 1.7 1.5 0 0.8-0.7 1.6-1.5 1.6l-178.5 8.3q0 0 0 0z"/>
				</g>
				<g id="&lt;Group&gt;">
					<path id="&lt;Path&gt;" class="s9" d="m1862.9 825.3q0 0 0 0l-181-8.3c-0.9 0-1.5-0.8-1.5-1.6 0-0.9 0.8-1.6 1.6-1.5l181 8.3c0.9 0 1.5 0.7 1.5 1.6 0 0.8-0.7 1.5-1.6 1.5z"/>
				</g>
				<path id="&lt;Path&gt;" class="s10" d="m1831.3 800.4c0 16.1 13 29.1 29.1 29.1 16.1 0 29.1-13 29.1-29.1 0-16.1-13-29.1-29.1-29.1-16.1 0-29.1 13-29.1 29.1z"/>
				<g id="&lt;Group&gt;">
					<g id="&lt;Group&gt;">
						<path id="&lt;Path&gt;" class="s10" d="m1901.9 871.5c-0.6 0-1.3-0.3-1.7-0.9l-41.5-67.1c-0.6-1-0.3-2.2 0.6-2.8 1-0.6 2.2-0.3 2.8 0.6l41.6 67.1c0.5 1 0.2 2.2-0.7 2.8q-0.5 0.3-1.1 0.3z"/>
					</g>
					<g id="&lt;Group&gt;">
						<path id="&lt;Path&gt;" class="s9" d="m1879.6 876.8c-1.9 0-3.7-1.4-4-3.4-0.3-2.2 1.2-4.3 3.5-4.6l44.5-6.6c2.2-0.3 4.3 1.2 4.6 3.4 0.3 2.2-1.2 4.3-3.4 4.6l-44.6 6.6q-0.3 0-0.6 0z"/>
					</g>
				</g>
				<path id="&lt;Path&gt;" class="s9" d="m1714.1 583.2h39.5c2.9 0 5.3 2.4 5.3 5.3v6.3c0 3-2.4 5.3-5.3 5.3h-49.9c-3.9 0-6.5-4-4.8-7.5 2.8-5.6 8.5-9.4 15.2-9.4z"/>
				<path id="&lt;Path&gt;" class="s9" d="m1682 822c-12 0-21.7-9.7-21.7-21.6 0-11.9 9.7-21.6 21.7-21.6 11.9 0 21.6 9.7 21.6 21.6 0 11.9-9.7 21.6-21.6 21.6z"/>
				<path id="&lt;Path&gt;" class="s11" d="m1663.5 800.4c0 10.2 8.2 18.5 18.5 18.5 10.2 0 18.5-8.3 18.5-18.5 0-10.2-8.3-18.5-18.5-18.5-10.3 0-18.5 8.3-18.5 18.5z"/>
				<path id="&lt;Path&gt;" class="s13" d="m1687.2 800.4c0 2.9-2.3 5.2-5.2 5.2-2.9 0-5.3-2.3-5.3-5.2 0-2.9 2.4-5.2 5.3-5.2 2.9 0 5.2 2.3 5.2 5.2z"/>
				<path id="&lt;Path&gt;" class="s11" d="m2067.6 800.4c0 10.2 8.3 18.5 18.5 18.5 10.2 0 18.5-8.3 18.5-18.5 0-10.2-8.3-18.5-18.5-18.5-10.2 0-18.5 8.3-18.5 18.5z"/>
				<path id="&lt;Path&gt;" class="s13" d="m2091.3 800.4c0 2.9-2.3 5.2-5.2 5.2-2.9 0-5.2-2.3-5.2-5.2 0-2.9 2.3-5.2 5.2-5.2 2.9 0 5.2 2.3 5.2 5.2z"/>
				<g id="&lt;Group&gt;">
					<path id="&lt;Path&gt;" class="s14" d="m1882.8 555.7l20.4-25.1c6.1-7.5 17.5 1.8 11.3 9.3l-20.3 25c-6.1 7.5-17.5-1.7-11.4-9.2z"/>
				</g>
			</g>
			<path id="&lt;Path&gt;" class="s6" d="m2967 595.6l0.7-17-13.7-10.2c-1.6-1.1-1.1-3.6 0.7-4.1l16.4-4.7 5.5-16.1c0.6-1.9 3-2.2 4.1-0.6l9.5 14.1 17.1 0.2c1.9 0 3 2.3 1.8 3.8l-10.5 13.4 5.1 16.3c0.6 1.8-1.2 3.6-3 2.9l-16.1-5.9-13.9 9.9c-1.5 1.1-3.7 0-3.7-2z"/>
			<path id="&lt;Path&gt;" class="s14" d="m2351.6 456l0.5-15.1-12.1-9c-1.4-1-1-3.1 0.7-3.6l14.5-4.2 4.8-14.3c0.6-1.6 2.7-1.9 3.7-0.5l8.4 12.6 15.1 0.1c1.7 0 2.7 2 1.6 3.4l-9.3 11.8 4.5 14.4c0.6 1.7-1 3.2-2.7 2.6l-14.1-5.2-12.3 8.8c-1.4 1-3.4-0.1-3.3-1.8z"/>
			<path id="&lt;Path&gt;" class="s14" d="m2203.1 392.3l0.7-17.4-14-10.4c-1.6-1.2-1.2-3.7 0.7-4.2l16.8-4.8 5.6-16.5c0.6-1.9 3.1-2.2 4.2-0.6l9.8 14.5 17.4 0.1c2 0.1 3.1 2.4 1.8 3.9l-10.7 13.7 5.2 16.7c0.6 1.9-1.2 3.6-3.1 2.9l-16.4-5.9-14.2 10.1c-1.6 1.1-3.8-0.1-3.8-2.1z"/>
			<path id="&lt;Path&gt;" class="s14" d="m1232.3 525.8l0.7-17.4-14-10.4c-1.6-1.2-1.2-3.7 0.7-4.2l16.8-4.8 5.6-16.5c0.6-1.9 3.1-2.3 4.2-0.6l9.7 14.5 17.5 0.1c2 0.1 3.1 2.3 1.8 3.9l-10.7 13.7 5.2 16.7c0.6 1.9-1.2 3.6-3.1 2.9l-16.4-5.9-14.2 10.1c-1.6 1.1-3.8-0.1-3.8-2.1z"/>
			<g id="&lt;Group&gt;">
				<g id="&lt;Group&gt;">
					<path id="&lt;Path&gt;" class="s14" d="m3383.1 934.9c-3.6 37.8-37.1 65.7-75 62.2-37.9-3.5-65.7-37.1-62.2-75 3.5-37.9 37.1-65.7 75-62.2 37.8 3.5 65.7 37.1 62.2 75z"/>
					<path id="&lt;Path&gt;" class="s15" d="m3276.8 935.9c-1.9 20.3 13 38.2 33.3 40.1 20.2 1.9 38.2-13 40-33.2z"/>
				</g>
			</g>
			<g id="&lt;Group&gt;">
				<path id="&lt;Path&gt;" class="s14" d="m1973.8 413.3c0 10.2-8.3 18.5-18.5 18.5-10.2 0-18.5-8.3-18.5-18.5 0-10.2 8.3-18.4 18.5-18.4 10.2 0 18.5 8.2 18.5 18.4z"/>
				<g id="&lt;Group&gt;">
					<path id="&lt;Path&gt;" class="s14" d="m1946.1 359.1c0.8 5.4 1 11.2 2.5 16.5 1.3 4.5 8.3 3.7 8.3-1.1-0.1-5.9-1.5-11.9-2.3-17.7-0.3-2.4-3.3-3.6-5.4-3.1-2.5 0.7-3.4 3.1-3.1 5.4z"/>
				</g>
				<g id="&lt;Group&gt;">
					<path id="&lt;Path&gt;" class="s14" d="m1913 379.8c5.8 4 10.8 8.8 16.2 13.5 4.2 3.6 9.3-1.8 6-6-4.9-6-11.4-11-17.7-15.3-2-1.4-5-0.4-6.1 1.6-1.3 2.2-0.4 4.8 1.6 6.2z"/>
				</g>
				<g id="&lt;Group&gt;">
					<path id="&lt;Path&gt;" class="s14" d="m1922.2 413.6c1.5-1.1 1.9-2.6 1.1-4.2-1.8-3.9-7-4.1-10.7-4.2-3.9-0.2-7.9 0.3-11.6 1.3-5.6 1.5-3.2 10.1 2.3 8.7 10.9-2.9 14.7 1.3 18.9-1.6z"/>
				</g>
				<g id="&lt;Group&gt;">
					<path id="&lt;Path&gt;" class="s14" d="m1925.6 449.8c5.9-7.5 10.5-9.8 10.1-14.2-0.2-2.5-2.1-3.9-4.6-3.5-2.9 0.4-4.7 3.4-6.6 5.4-1.8 2-3.5 3.9-5.2 6-1.5 1.9-1.8 4.4 0 6.3 1.6 1.5 4.8 1.9 6.3 0z"/>
				</g>
				<g id="&lt;Group&gt;">
					<path id="&lt;Path&gt;" class="s14" d="m1946.4 452.6c1.4 4.9 1.7 6.6 3.7 9 1.8 2.1 6 1.1 6.5-1.7 0.5-3.3-0.1-4.5-1.5-9.7-0.7-2.3-3.2-3.7-5.5-3.1-2.4 0.6-3.8 3.2-3.2 5.5z"/>
				</g>
				<g id="&lt;Group&gt;">
					<path id="&lt;Path&gt;" class="s14" d="m1969.8 442.7c7.3 6.4 8.8 8.1 11.8 8 1.8 0 4-1.6 3.7-3.6-0.5-3.8-2.5-5-9.3-10.6-1.8-1.6-4.4-1.8-6.2 0-1.6 1.6-1.8 4.6 0 6.2z"/>
				</g>
				<g id="&lt;Group&gt;">
					<path id="&lt;Path&gt;" class="s14" d="m2002.7 417.9c3.2-1.4 2.3-6.8-0.9-7.4-3.2-0.7-4.4-0.2-20 1.5-2.4 0.3-4.4 1.9-4.4 4.5 0 2.2 2 4.7 4.4 4.4 16.2-1.7 17.8-1.6 20.9-3z"/>
				</g>
				<g id="&lt;Group&gt;">
					<path id="&lt;Path&gt;" class="s14" d="m1980.4 391.1c9-7.5 10.1-6 13.8-10.8 1.7-2.1-0.6-5.9-3.3-5.6-3.4 0.3-4.3 0.9-9 4q-4.1 2.9-7.9 6c-1.8 1.6-1.6 4.8 0 6.4 1.9 1.9 4.6 1.6 6.4 0z"/>
				</g>
			</g>
			<path id="&lt;Path&gt;" class="s16" d="m1706.4 476.5l-19.2-5.7-6.8 22.5-19.1-4.5-8.5 20.7-15-0.4-0.7 9.5 20 0.5 8-19.6 20 4.7 6.6-22.1 17.4 5.1z"/>
			<g id="&lt;Group&gt;">
				<path id="&lt;Path&gt;" class="s16" d="m2829.2 585.9c0 0 8.5-8.4 22.3-6.2 12.2 1.9 19.1 13 17.3 24.4-2.1 13.2-16.1 26.9-48.2 35.6-27.8-18.3-36.8-35.7-34.7-48.8 1.8-11.4 11.8-19.8 24.1-17.8 13.8 2.2 19.2 12.8 19.2 12.8z"/>
				<g id="&lt;Group&gt;">
					<path id="&lt;Path&gt;" class="s16" d="m2726.9 574.8c11.6 3.9 21.2 6.4 30.6 8.4 3.2 0.7 8.4 2.7 11.1 0.5 1.4-1.1 2-2.8 1-4.5-1.7-3.1-6.7-3.1-9.8-3.7-9.6-2.1-20.4-4.8-31.1-8.3-2-0.6-4.2 1-4.7 2.9-0.5 2.3 0.9 4.1 2.9 4.7z"/>
				</g>
				<g id="&lt;Group&gt;">
					<path id="&lt;Path&gt;" class="s16" d="m2882 633.7c4.5 1 9.1 2 13.7 3 4.4 0.9 9.5 2.8 13.9 2.2 3.4-0.5 4.5-4.5 1.5-6.3-3.8-2.4-9.1-2.8-13.5-3.7-4.6-1-9.2-1.9-13.8-2.8-5-1-6.8 6.4-1.8 7.6z"/>
				</g>
				<g id="&lt;Group&gt;">
					<path id="&lt;Path&gt;" class="s16" d="m2756.4 644.1c7.8-8.5 15.5-9.9 21.6-12.5 3.3-1.3 2.6-5.9-1-6.1-9.9-0.6-20 6.3-26.4 13.3-3.3 3.7 2.3 9 5.8 5.3z"/>
				</g>
				<g id="&lt;Group&gt;">
					<path id="&lt;Path&gt;" class="s16" d="m2804.1 679.7c0.8-4.7 2.5-9.2 5.2-13.3 1.7-2.4 8.8-8.8 3.7-11.4-4.8-2.4-9.3 5.3-11.3 8.6-2.7 4.4-4.4 9.3-5.3 14.3-0.8 5 6.8 6.8 7.7 1.8z"/>
				</g>
				<g id="&lt;Group&gt;">
					<path id="&lt;Path&gt;" class="s16" d="m2849.2 659.3q3.3 3.6 6.5 7.2c2.1 2.4 4 5.6 7.5 5.6 2 0.1 3.1-1.7 3.3-3.4 0.3-3.2-3.4-5.9-5.4-8.1q-3.2-3.6-6.5-7.2c-1.4-1.6-4.2-1.2-5.6 0.2-1.6 1.7-1.2 4.1 0.2 5.7z"/>
				</g>
				<g id="&lt;Group&gt;">
					<path id="&lt;Path&gt;" class="s16" d="m2803.7 550.9c-4.6-25.6-4.4-25.7-6-28-1.6-2.4-5.5-1.9-6.2 1-0.6 2.9-0.5 2.5 4.5 29.3 0.4 2.2 3.2 3.3 5.1 2.7 2.2-0.7 3-2.9 2.6-5z"/>
				</g>
				<g id="&lt;Group&gt;">
					<path id="&lt;Path&gt;" class="s16" d="m2845.7 559.7q3.5-5.3 5.9-11.3c1.4-3.7 4.1-9.2 1.2-12.7-0.7-0.7-2.1-1-3-0.6-3.8 1.5-4.2 6.8-5.6 10.2-1.4 3.8-3.3 7.3-5.4 10.8-1.1 1.8-0.2 4.3 1.6 5.2 2 1.1 4.1 0.2 5.3-1.6z"/>
				</g>
				<g id="&lt;Group&gt;">
					<path id="&lt;Path&gt;" class="s16" d="m2904 576.4c1-1.7 0-3.7-1.5-4.6-2.8-2-7.7 0.2-10.7 1.2-3.4 1.2-6.8 2.6-10.1 4.3-1.8 1-2.2 3.8-1.2 5.5 1.3 1.9 3.5 2.1 5.5 1.2 12.5-6 15.3-3.6 18-7.6z"/>
				</g>
			</g>
			<g id="&lt;Group&gt;">
				<g id="&lt;Group&gt;">
					<g id="&lt;Group&gt;">
						<g id="&lt;Group&gt;">
							<path id="&lt;Path&gt;" class="s10" d="m2715.5 864.2c-0.3-0.4-30.6-33.1-88.2-53.1-82.3-28.5-223 3.8-265.2-86.6-7.5-16.2-7.9-28.8-7.9-29.3-0.1-2 2.8-2.1 2.9-0.1 0 0.1 0.4 12.7 7.7 28.3 41.5 88.4 180.7 56.2 263.4 84.9 41.4 14.4 75.5 38.6 89.4 53.9 1.3 1.4-0.8 3.4-2.1 2z"/>
						</g>
						<g id="&lt;Group&gt;">
							<path id="&lt;Path&gt;" class="s10" d="m2714.3 848.6c-1.2-1.2-28.7-30.4-80-48.3-56-19.6-141.9-14.4-193.7-37.2-31.4-13.9-46.9-33.9-54.3-48.3-8-15.6-8.6-27.8-8.6-28.3-0.1-1.9 2.8-2.1 2.9-0.1 0 0.2 0.6 12.2 8.4 27.2 7.2 13.9 22.2 33.3 52.8 46.8 51.2 22.6 137 17.3 193.4 37.1 52.1 18.1 80 47.9 81.2 49.1 0.6 0.6 0.5 1.6-0.1 2.1-0.6 0.6-1.5 0.5-2-0.1z"/>
						</g>
						<g id="&lt;Group&gt;">
							<path id="&lt;Path&gt;" class="s10" d="m2713 833.1c-12.2-13.2-37.5-31.6-71.8-43.7-54-19.1-127.4-18.2-173.6-37.3-32.9-13.7-49.2-33.1-57.1-46.9-8.6-15.1-9.3-26.9-9.3-27.4-0.1-1.9 2.8-2.1 2.9-0.1 0 0.1 0.7 11.7 9 26.2 7.7 13.4 23.5 32.2 55.6 45.5 23.3 9.6 53.5 14.1 85.5 18.8 30.2 4.4 61.4 9 88 18.5 34.8 12.2 60.5 30.9 73 44.4 1.3 1.4-0.8 3.4-2.2 2z"/>
						</g>
						<g id="&lt;Group&gt;">
							<path id="&lt;Path&gt;" class="s10" d="m2711.8 817.6c-52.4-56.7-158.1-53.9-217.3-76.6-34.4-13.1-51.5-31.9-59.8-45.3-9.1-14.7-10-26-10-26.5-0.1-2 2.8-2.1 2.9-0.2 0 0.2 0.9 11.3 9.6 25.3 8.1 13 24.8 31.1 58.4 44 58.9 22.6 165.1 19.7 218.4 77.3 0.5 0.6 0.5 1.5-0.1 2-0.6 0.6-1.5 0.5-2.1 0z"/>
						</g>
					</g>
				</g>
				<g id="&lt;Group&gt;">
					<path id="&lt;Path&gt;" class="s11" d="m2484.4 703.2c-4.9-5-11.1-19.7-14.8-28.4-5-11.8-4.4-9.4-6.3-10.3-3.9-0.8-3.7-1-34.7 63.2-13.1-16.9-47.2-9.5-47 10.2 0.2 10.2 11 19.3 25.5 19.1 10.1-0.1 19.1-4.7 23-11.8v-0.1c1-1.8 14.5-29.7 25.6-52.3 4 14.9 21.6 25.6 32.5 18.4l3.3-2.2-3.4-2.1c-1.1-0.8-3.6-3.5-3.7-3.7z"/>
					<path id="&lt;Path&gt;" class="s11" d="m2687.1 763.5c-6-1.6-17.3-10.1-24.1-15.2-7.2-5.4-7.9-6-9.7-5.2-3.7 1.3-3.5 1.3 1.4 64.2-17.9-6.7-40.6 14.3-31.5 29.5 9.6 16.1 41.6 3.7 41.1-16.3-0.1-1.9-2.2-29.3-3.8-51.2 10 9.3 28.1 9.5 33.2-1l1.8-3.6c-4.6-0.3-2.6 0.5-8.4-1.2z"/>
					<path id="&lt;Path&gt;" class="s11" d="m2589.9 764.4c-0.1-2.6-2.2-31.6-4.7-67.1-37.4 4.1-36.1 4.5-70.5-0.8 1.2 18.2 2.5 36.6 3.7 51.3-18.2-6.8-40.5 14.5-31.6 29.6 9.7 16.2 41.7 3.6 41.2-16.4h-0.1c0-1.8-1.3-17.9-3.1-43.2l53 0.3c0.6 7.8 1.4 18.1 2.5 33.1-18-6.7-40.5 14.5-31.5 29.6 5 8.3 17.8 9.8 28.6 3.4 7.8-4.7 12.7-12.4 12.5-19.8z"/>
				</g>
			</g>
			<path id="&lt;Path&gt;" class="s9" d="m3751.7 1720.9h-3060.7c-6 0-10.9-4.9-10.9-10.9 0-6 4.9-10.8 10.9-10.8h3060.7c6 0 10.9 4.8 10.9 10.8 0 6-4.9 10.9-10.9 10.9z"/>
			<path id="&lt;Path&gt;" class="s7" d="m3430.9 1113.4c7.1 12 19.7 11.5 33.3 14.9 9.1 2.3 14.6 17.2 13.8 28.6-2.2 28.6 20.2 23.8 38.3 35.6 43.4 28.5 15.4 102.7-31.9 107.5-9.5 0.9-20.3-0.6-28.7-5.3-6.7-3.8-11.5-8.7-19.1-11.4-16-5.6-33.8-7.6-46.5-19.8-18.3-17.6-3.2-26.2-7.9-38.9-4.7-12.8-25-6.4-28.8-32.9-4.2-28.6 0.4-53.3 10.9-67.5 17.5-23.6 48.2-25.2 59.4-18 3.4 2.1 5.7 4.6 7.2 7.2z"/>
			<path id="&lt;Path&gt;" class="s16" d="m3232.1 1167.1c1.6-3.5 16.6 7 19.9 5 3.4-2-13.4-18.9-11.7-21.8 3.2-5.5 19.5 17.3 21.1 14.9 1.6-2.4-14.1-26.7-8.5-28.1 5.6-1.3 13.7 27 16.5 25.1 2.9-1.8-9.8-25.6-4.4-30.4 2.9-2.6 16.6 43.4 21.5 45.3 5 1.9 10.6-18.2 15.2-17.4 4.7 0.8-15.3 37-14.3 39.8 1 2.8 19.3 61.9 30.1 79.7 6.4-3.1 12.8-6.2 18.8-9.3 2.4 13.7 2.7 28.1 5.9 41.6-21 9.2-39.6 15.9-45.7 13.6-18.5-6.8-27.7-96.6-30.6-113.4-3-16.8-10.9-20.1-15.4-28.9-4.5-8.8-20.1-12.1-18.4-15.7z"/>
			<path id="&lt;Path&gt;" class="s14" d="m3386.8 1242.8l31 31.2c0 0-40.9 22.2-75.6 37.5-3.2-13.5-3.5-27.9-5.9-41.6 28.7-14.4 50.5-27.1 50.5-27.1z"/>
			<path id="&lt;Path&gt;" class="s3" d="m3200.3 1638.7c-13.5 16.1-23.4 32.8-24.5 34.8-0.5 1-0.7 6.7-1.2 7.8-21.1 13.9-43.5 10-61.9 4.3 12.1-5.2 28.9-11.3 30.5-13.8 2.5-4.1 14.1-18.7 25.9-45 9.5 9.4 18.5 8.3 31.2 11.9z"/>
			<path id="&lt;Path&gt;" class="s4" d="m3175.6 1674.3c1.9 8.4 1.1 25.6-0.6 26-2 0.4-73 10.9-82 1.8-5.5-5.5 4.8-9.7 19.7-16.5 18.4 5.7 62.2-5.6 62.9-11.3z"/>
			<path id="&lt;Path&gt;" class="s6" d="m3463.1 1423.3c0 0 5.3 14 6 21.6 2.1 24.5-10.6 55.8-24.3 60.6-14 4.9-100.2 28.9-152.2 21.6l-112.6 150.1-37.5-16.5 87.9-154.4c0 0 17-26.6 30.9-32.9 13.9-6.2 127.2-36.4 127.2-36.4l17.5-25.5z"/>
			<path id="&lt;Path&gt;" class="s17" d="m3371.5 1267.7c6.3-11.5 12.7-20.7 12.7-20.7 6.4-11.5 23.1-17.3 23.1-17.3 0 0 5.6 0.1 12 0.4 0.4 1.1 0.8 1.9 1.2 2.2 2.4 1.8 16.2-0.6 25.1 5.5 29.9 25.7 21.6 150.2 19.3 189.6l-72.6 2.6c0 0-6.9-86.4-25.4-108.1-12.9-15.2-4.6-37.1 4.6-54.2z"/>
			<path id="&lt;Path&gt;" class="s3" d="m3412.6 1187.6c0 0 5 35.8 8.5 44.5 3.4 8.7-19.3 27.4-38.1 33-18.9 5.7 5.7-19.2 5-28.5-0.8-9.3-4.3-53.4-4.3-53.4z"/>
			<path id="&lt;Path&gt;" class="s4" d="m3384.7 1195.8c-0.6-7.3-1-12.6-1-12.6l28.9 4.4c0 0 0.7 4.2 1.5 10.1-11.7 6.8-22.2 4.7-29.4-1.9z"/>
			<path id="&lt;Path&gt;" class="s3" d="m3403.5 1122.1c0 0 11.4 2.6 18.4 13.3 7 10.8 11.8 42.4-11.3 57.2-23.1 14.7-41.1-6.2-41.3-26.5-0.3-20.4 4-47.6 34.2-44z"/>
			<path id="&lt;Path&gt;" class="s3" d="m3364 1159.7c1.9 4.9 5.8 8 8.7 6.8 2.8-1.1 3.6-6.1 1.6-11-2-4.9-5.9-7.9-8.7-6.8-2.9 1.2-3.6 6.1-1.6 11z"/>
			<path id="&lt;Path&gt;" class="s3" d="m3422.3 1163.7c-1.7 5.3-0.2 10.5 3.4 11.7 3.6 1.1 7.8-2.3 9.5-7.5 1.7-5.3 0.1-10.6-3.4-11.7-3.6-1.1-7.9 2.2-9.5 7.5z"/>
			<g id="&lt;Group&gt;">
				<path id="&lt;Path&gt;" class="s7" d="m3326.6 1281.3c0 0-7.8 0.2-10 0-12.8-1.2-7.5 17.6-7.5 17.6 0 0 6.3-6.1 8.8-6.1 2.5 0 5.9 0.7 5.9 0.7z"/>
				<path id="&lt;Path&gt;" class="s8" d="m3283.4 1407.1c0 0-5.2 8.1-11.1 4.4-5.9-3.6-16.1-10.7-18-5.4-1.9 5.4-1.5 9.8 0.6 10.9 2 1.1 17.2 9.3 25.5 9.9 8.2 0.6 15-7.2 15-7.2z"/>
				<path id="&lt;Path&gt;" class="s4" d="m3271.1 1425.5c0.3-6.4 1.6-13.6 5.1-19.7 9-15.6 47-57.6 52.7-60.8 5.6-3.3 1.6-15.9 1.6-15.9l22.5-12.2 11.8-6.4c0 0 26.6 40.7 28.7 44.5 2 3.9-1.6 16.4 1.1 24.2 2.6 7.7-0.1 49.7 3.7 54.3 3 3 5.8 3.4 6.7 5.2 0.4 0.8 1 2.1-0.1 3.5-3.1 4-18.7 0.7-18.7 0.7-0.1-0.3-6.6-9.3-5.6-14.7 1.1-5.2-2.1-36.5-4.3-36.5-1.9 0-10.9 13.9-14.5 16.6-0.4 0.3-0.7 0.5-1 0.5-2.5 0-19.2 3.6-22.9 7.3-1 1-1.3 3.6-1.4 6.9 0 2.2 0.1 4.7 0.3 7.3 0.4 4.6 1 9.4 1.5 12.5q-6 0.1-11.9 0c-3.3-5.8-10.2-9.9-18.1-9.9-7.5 0-14.1 3.6-17.5 8.9-6.7-0.3-9.3 2.9-15 2.4-0.3-2-4.8-16.1-4.7-18.7z"/>
				<path id="&lt;Path&gt;" class="s8" d="m3324.3 1283.1c2.5-2.4 6-3.4 9.4-2.9 1.9 0.3 4.6 0.5 8.3 0.1 8.3-0.7 16.8 0 22.1 5.3 5.4 5.4 6 24.4 0 33.4-6 8.9-23 11.2-24.5 15.2-1.5 4.1-16.3 6.1-18.4 1.1 0 0-1.6 1.1-3.9 0.4-5.5-1.6-7.5-7-5.6-12.9 2-5.9 10.3-17.9 8.8-28.8-0.7-5 1.4-8.5 3.8-10.9z"/>
				<path id="&lt;Path&gt;" class="s9" d="m3327.8 1319.8c0.9 1 1 2.6 0.1 3.6-1.8 2-4.8 5.3-7 6.6-3.3 1.9-6.4-6.1-6.4-9.6 0-3.5 7.5-6.5 13.3-0.6z"/>
				<path id="&lt;Path&gt;" class="s8" d="m3331.1 1376.9c0.1-1.7 1.6-3 3.3-2.9q0 0 0.1 0c8.8 0.5 14.8 8.5 13.6 17.2q-0.1 0.7 0.1 1.3c0.3 1.5 2.9 6.7 5.7 12q-7.9 2-15.8 3.9c-3.9-6.7-7.7-12.9-7.7-12.9z"/>
				<path id="&lt;Path&gt;" class="s8" d="m3361.1 1417.8c0 0 6 17.9 7.7 24.7-4.8 2.8-7.7-2.6-18.7 0.4-0.3-2.2-4.1-15.5-4.1-18.7 0-1.6-4.9-9.1-8.7-15.7-0.3-0.4-0.1-1.1 0.5-1.2 4.8-1.4 10.8-3.8 15.6-5.1 0.6-0.2 1.2 0.1 1.5 0.6 3.3 6.5 6.2 15 6.2 15z"/>
				<path id="&lt;Path&gt;" class="s8" d="m3373.2 1440.8c-1.2-2.6-4.6-5.6-9.8-5.6-5.1 0-13.3 7.7-13.3 7.7 0 0 2.5 2.3 9.1 2.3 6.7 0 16.3 0.6 14-4.4z"/>
				<path id="&lt;Path&gt;" class="s8" d="m3343.1 1439.7c-1.2-2.6-4.7-5.6-9.8-5.6-1.9 0-4.3 1.1-6.5 2.5-3.5 2.1-2 7.5 2.1 7.6q0.1 0 0.2 0c6.7 0 16.3 0.5 14-4.5z"/>
				<path id="&lt;Path&gt;" class="s8" d="m3295 1439.7c-1.4-2.6-5.6-5.6-11.8-5.6-2.3 0-5.1 1.1-7.8 2.5-4.2 2.1-2.4 7.5 2.5 7.6q0.2 0 0.3 0c8 0 19.6 0.5 16.8-4.5z"/>
				<path id="&lt;Path&gt;" class="s9" d="m3346.5 1287c2.5-2.4 1-5.2-0.4-6.9 6.9-0.2 13.6 1.1 18 5.5 5.4 5.4 6 24.4 0 33.4-5.4 8-19.6 10.6-23.6 14-4.1-6.9 2.2-12.8 3.6-16 1.5-3.3-7.3-11.6-8.3-18.1-1-6.5 7.1-8.2 10.7-11.9z"/>
				<path id="&lt;Path&gt;" class="s8" d="m3358.1 1281.8c0 0 5.4 1.9 12.1-0.5 6.7-2.4 13.3 9.6 13.3 9.6 0 0-6.2 13.4-11.1 16.7-5 3.3-14.3-25.8-14.3-25.8z"/>
			</g>
			<path id="&lt;Path&gt;" class="s3" d="m3273 1396.1c0-3 9.1-11.6 13.5-10.2 4.3 1.4 21.5 12.2 21.5 12.2l76.4-17.9c0 0 19.3-44 21.2-81.8 15.9 2.2 26.8 6.1 40.6 13.9-6.7 36.1-22.9 94.6-40.8 105.6-7.6 4.6-97.7-5.5-97.7-5.5 0 0-18.8 2.6-23.4 1.3-19.2-5.3-11.3-11.6-11.3-17.6z"/>
			<path id="&lt;Path&gt;" class="s14" d="m3405.1 1258.1c2.4-11.4 5.1-22.9 17.5-26.5 7.6-2.2 16.2-0.1 22.3 4.9 7.2 6 9.2 15.5 9.2 24.6-0.1 20.5-1.5 41.7-5.2 61.9-13.8-7.7-34-6.8-49.9-9-1.5-18.2 3-41.1 6.1-55.9z"/>
			<g id="&lt;Group&gt;">
				<g id="&lt;Group&gt;">
					<g id="&lt;Group&gt;">
						<path id="&lt;Path&gt;" class="s14" d="m2568.8 1699.2l-72.8-168.2 8.7-3.8 74.1 172z"/>
					</g>
					<g id="&lt;Group&gt;">
						<path id="&lt;Path&gt;" class="s17" d="m2388.1 1699.2h-11.1l102.6-172.6 8.2 4.9z"/>
					</g>
					<g id="&lt;Group&gt;">
						<path id="&lt;Path&gt;" class="s14" d="m2481.2 1699.2l-72.9-168.2 8.8-3.8 73.6 172z"/>
					</g>
					<path id="&lt;Path&gt;" class="s14" d="m2543.9 1449.8h-104.2l38.7-85.8h105.7z"/>
					<g id="&lt;Group&gt;">
						<path id="&lt;Path&gt;" class="s17" d="m2475.7 1699.2h-11.1l102.7-172.6 8.2 4.9z"/>
					</g>
					<path id="&lt;Path&gt;" class="s8" d="m2585.2 1533.4h-193.4c0-10.5 8.6-19.1 19.1-19.1h155.2c10.5 0 19.1 8.6 19.1 19.1z"/>
					<path id="&lt;Path&gt;" class="s4" d="m2585.2 1533.4h-92.2c0-10.5 8.6-19.1 19.1-19.1h54c10.5 0 19.1 8.6 19.1 19.1z"/>
				</g>
				<path id="&lt;Path&gt;" class="s3" d="m2683.3 1244.7c-0.4-1-1.3-0.2-2.5 1.6 1.5-6.4 1.3-14.3 0.1-15-1.4-0.9-2.3 10.2-5.5 16.2-3.3 6-6.3 13.4-6.7 13-0.8-0.5 3.8-8.5 7-14.7 3.2-6.1 0.8-34.4-2.2-14.2-3 20.3-22.6 35.8-23.2 29.6-0.6-6.2 2.7-15.6-1.3-14.3-4.1 1.4-5.2 15.3-8.8 25.4-0.4 1.2-0.4 4.7-0.4 8.9 0 2.2-1.4 4.1-3.4 4.9l-58.5 21.3-8.5-52.5-57.5 12.9c0 0 13.9 72.1 45.9 79.3 12.8 2.9 79.6-34.6 101.4-53.1 21.7-18.2 25.8-44.8 24.1-49.3z"/>
				<path id="&lt;Path&gt;" class="s14" d="m2542.9 1206.3c13.5 6.4 58.6 72.6 58.6 72.6l-41.9 39.3-26.9-39.3c0 0-6.3-80.5 10.2-72.6z"/>
				<path id="&lt;Path&gt;" class="s8" d="m2544.5 1120.4c-2.8-17.3-5.8-34.6-22.5-47.8-13.5-10.7-30.2-13.1-46.4-8.2-45.9 13.7-17.5 40.1-78.2 69.4-62.8 30.3-49.2 88.4-30.8 106.4 88.3 86.1 166.2-14.6 171.8-41.2 4.2-19.8 8-67.4 6.1-78.6z"/>
				<path id="&lt;Path&gt;" class="s14" d="m2439.1 1199.7c0 0-7.5-0.4-27.6 8.8-20.1 9.2-63.2 69-63.2 69l35.1 27.4 60.2-39.4c0 0 7.6-65.8-4.5-65.8z"/>
				<path id="&lt;Path&gt;" class="s17" d="m2546.6 1397.3c-20.7 11-100.4 9.3-100.4 9.3-2-20.8-8.8-73.4-13.4-118-5.8-31 0-42.7 6.3-88.9 0-0.4 32.1-2.6 32.1-2.6l33.4 0.8c0 0 29.1 2.4 38.3 8.4 0.7 0.4 4.4 52.8 1.5 89.8-2 25.3-4.8 45.7-4.7 62.4 0.3 24.3 6.9 38.8 6.9 38.8z"/>
				<path id="&lt;Path&gt;" class="s1" d="m2445.2 1396.6l-53.4 101.8c0 0 89.4 24.7 141.9 17.7l45.6-64-32.7-54.8z"/>
				<path id="&lt;Path&gt;" class="s9" d="m2435.6 1479.3c0 0-63.7-30.4-96.7-3.9-33 26.6-23.4 46.5-20.6 55.9 5.3 18.1 53.1 3.1 91.9-11.1 38.8-14.3 57.2-33.1 25.4-40.9z"/>
				<path id="&lt;Path&gt;" class="s16" d="m2335.1 1465.9c-8.7 5.4-11 14.9-8.3 22.8 3.2 9.8 86.2 89.8 114.9 116.8 22.3 21 53.7 55.8 62.6 65 8.8 9.2 44.3 35 45.9 34.3 4.2-2.1 4.4-11.3-1.6-18.5-6.1-7.2-12.2-9.3-19.2-30-7-20.7-18.6-16-24.1-16-5.5-0.1-127.1-173.8-127.1-173.8 0 0-23.6-12.9-43.1-0.6z"/>
				<path id="&lt;Path&gt;" class="s8" d="m2529.4 1656.3c-7-20.7-18.6-16-24.1-16 0 0 30.1 44.4 26.9 52.7 9.3 6.8 17.3 12.1 18 11.8 4.2-2.1 4.4-11.3-1.6-18.5-6.1-7.2-12.2-9.3-19.2-30z"/>
				<path id="&lt;Path&gt;" class="s1" d="m2438.9 1408.8c0 0-83.4 24.3-104.6 38-39.7 25.6-21.7 72.8-16 84.5 0 0 8.4-41.6 44.7-47.4l-3.1-5.9z"/>
				<path id="&lt;Path&gt;" class="s2" d="m2539.9 1421c0 0-141.8-38.1-194.9 11.1 0 0-24.8 22.8-15.8 50 5.2 15.4 22 5.9 22 5.9 0 0 67.2-25.1 87.3-18 20 7.1 72.8 48.5 95.2 46.1 35-3.9 85.1-66.6 6.2-95.1z"/>
				<path id="&lt;Path&gt;" class="s3" d="m2461.9 1495.8c-6.7-13.5-23.3-44.6-44.4-51-21.1-6.4-38.5 4-39.3 21.7-0.4 10.3 115.7 164.3 119.5 173.8 3.8 9.4 28 36.1 36.9 42.3 8.8 6.1 22.6 21 25.8 19.5 3.1-1.6 1.3-15.8-7.1-24.6-8.4-8.8-11.9-32.5-14-41.4-2-9-0.6-14.9-15.9-14.9-7.4 0-46-94.1-61.5-125.4z"/>
				<path id="&lt;Path&gt;" class="s17" d="m2553.1 1270.7c-0.6 19.7-26.1 38.8-62.4 38.8-36.2 0-65.6-16.1-65.6-35.8 0-19.8 24.1-47.7 60.3-47.7 36.3 0 68.6 19.6 67.7 44.7z"/>
				<path id="&lt;Path&gt;" class="s3" d="m2479 1148c0 0-0.7 5-1.7 11.9-2 12.7-3 33.5-5.6 39.8-2.2 5.5 10 59.4 17.7 45.4 14.5-26.7 16.8-35.4 17.3-42.2 0.6-6.8 2.4-29.9 3.6-45.4 0.7-8.4 1.2-14.4 1.2-14.4z"/>
				<path id="&lt;Path&gt;" class="s4" d="m2510.4 1157.2c0.6-8.1 1.1-14.1 1.1-14.1l-32.5 4.9c0 0-0.8 4.7-1.7 11.4 13.2 7.6 25 5.2 33.1-2.2z"/>
				<path id="&lt;Path&gt;" class="s3" d="m2489.2 1074.6c0 0-12.8 2.9-20.7 14.9-7.8 12.1-13.3 47.5 12.7 64.1 26 16.5 46.2-6.9 46.6-29.7 0.3-22.9-4.6-53.3-38.6-49.3z"/>
				<path id="&lt;Path&gt;" class="s3" d="m2533.7 1116.7c-2.2 5.5-6.6 9-9.8 7.7-3.2-1.3-4-6.8-1.8-12.3 2.2-5.6 6.6-9 9.8-7.7 3.2 1.3 4 6.8 1.8 12.3z"/>
				<path id="&lt;Path&gt;" class="s8" d="m2493 1073.9c0 0-16.2 36.5-30.6 39.8-14.3 3.2-14.1 21.6-14.1 21.6 0 0 0.4-42.4 13.8-52.2 13.4-9.7 30.9-9.2 30.9-9.2z"/>
				<path id="&lt;Path&gt;" class="s3" d="m2468.1 1121.3c1.9 5.9 0.2 11.7-3.8 13-4 1.3-8.8-2.5-10.7-8.4-1.9-6-0.2-11.8 3.9-13.1 4-1.3 8.7 2.5 10.6 8.5z"/>
				<g id="&lt;Group&gt;">
					<path id="&lt;Path&gt;" class="s18" d="m2740 1224.6l-22.2-39.9 3.1-1.7 22.3 39.9z"/>
					<path id="&lt;Path&gt;" class="s19" d="m2740 1224.6l-22.2-39.9 1.8-1 22.2 39.9z"/>
					<path id="&lt;Path&gt;" class="s18" d="m2724.5 1232.1l-21.7-39 3.1-1.7 21.7 39z"/>
					<path id="&lt;Path&gt;" class="s19" d="m2724.5 1232.1l-21.7-39 2.3-1.3 21.7 39z"/>
					<path id="&lt;Path&gt;" class="s18" d="m2708.8 1240.9l-21.7-39 3.1-1.8 21.7 39z"/>
					<path id="&lt;Path&gt;" class="s19" d="m2708.8 1240.9l-21.7-39 1.9-1.1 21.7 39z"/>
					<path id="&lt;Path&gt;" class="s4" d="m2438 1476c14.2-12.9 23.1-39.7 28.4-50.5 0 0 6.9-14.1 27.7-14.4 20.8-0.3 44-12.7 54.6-36.6 10.6-23.8-15.2-59.7-15.2-59.7l-1.1-2c0 0-17-40.8-42.8-44.3-25.9-3.5-48.6 9.6-59.8 27.2-11.2 17.5-26.9 16-26.9 16-12-1.2-39.4-7.7-57.8-2.4-17.3 4.9-30.9 17.6-39.3 33.6-9 17.4-10.5 41.2 2.5 71.1 0.7 1.6 7.6 15.7 9.9 19.5 2 4 10.3 17.2 11.3 18.7 18.6 26.8 39.7 38 59.2 39.5 18 1.3 36-3.7 49.3-15.7z"/>
					<path id="&lt;Path&gt;" class="s8" d="m2484.9 1385.1c-17 9.5-38.9 2.4-49.1-15.8-10.1-18.2-4.6-40.6 12.4-50.1 16.9-9.4 38.9-2.3 49 15.9 10.2 18.2 4.6 40.6-12.3 50z"/>
					<path id="&lt;Path&gt;" class="s7" d="m2478.5 1373.6c-11.1 6.1-25.3 1.5-31.9-10.3-6.6-11.8-3-26.4 8-32.5 11-6.2 25.3-1.6 31.9 10.3 6.6 11.8 3 26.4-8 32.5z"/>
					<path id="&lt;Compound Path&gt;" class="s20" d="m2744.1 1171.2l-60.8 37.8c-0.7 2.7-7.4 9.5-7.4 9.5l12.9 23.1c0 0 9.3-2.1 12-1.3l64-31.8 0.1-0.3c0.9-15.4-7.2-29.8-20.8-37zm-55.4 46c-1.8-3-1-6.9 1.8-8.6l35.4-21.8c2.8-1.7 6.6-0.7 8.5 2.4 1.8 3 1 6.8-1.8 8.6l-35.5 21.8c-2.8 1.7-6.5 0.6-8.4-2.4zm53.1-1.9l-37.1 18.7c-3 1.5-6.7 0.1-8.3-3-1.6-3.2-0.5-7 2.4-8.4l37.2-18.7c2.9-1.5 6.6-0.2 8.2 3 1.7 3.2 0.6 6.9-2.4 8.4z"/>
					<path id="&lt;Path&gt;" class="s9" d="m2486.5 1341.1c3.4 6.1 4.1 13 2.4 19l199.9-118.5-12.9-23.1-207.2 109.8c7.1 1.2 13.8 5.7 17.8 12.8z"/>
					<path id="&lt;Path&gt;" class="s8" d="m2401.1 1445.9l-48.4-86.8 13-7.2 48.4 86.8z"/>
					<path id="&lt;Path&gt;" class="s9" d="m2682.8 1203.6v-0.1c-0.6-1-0.2-2.2 0.8-2.8l7.3-4.1c1-0.5 2.3-0.2 2.8 0.8v0.1c0.6 0.9 0.2 2.2-0.8 2.7l-7.3 4.1c-1 0.6-2.3 0.2-2.8-0.7z"/>
					<path id="&lt;Path&gt;" class="s9" d="m2698.6 1194.8l-0.1-0.1c-0.5-1-0.1-2.2 0.8-2.7l7.4-4.2c1-0.5 2.2-0.1 2.8 0.8v0.1c0.5 1 0.2 2.2-0.8 2.7l-7.4 4.1c-0.9 0.6-2.2 0.2-2.7-0.7z"/>
					<path id="&lt;Path&gt;" class="s9" d="m2713.2 1185.7c-0.5-1-0.2-2.2 0.8-2.8l7.4-4.1c0.9-0.5 2.2-0.2 2.7 0.8h0.1c0.5 1 0.1 2.3-0.8 2.8l-7.4 4.1c-1 0.6-2.2 0.2-2.8-0.8z"/>
					<path id="&lt;Path&gt;" class="s9" d="m2736.1 1226.8c-0.5-1-0.2-2.2 0.8-2.8l7.4-4.1c1-0.5 2.2-0.2 2.7 0.8h0.1c0.5 1 0.2 2.3-0.8 2.8l-7.4 4.1c-1 0.6-2.2 0.2-2.8-0.8z"/>
					<path id="&lt;Path&gt;" class="s9" d="m2720.9 1234.8l-0.1-0.1c-0.5-1-0.2-2.2 0.8-2.7l7.4-4.2c1-0.5 2.2-0.1 2.8 0.8v0.1c0.5 1 0.2 2.2-0.8 2.7l-7.4 4.2c-0.9 0.5-2.2 0.1-2.7-0.8z"/>
					<path id="&lt;Path&gt;" class="s9" d="m2705.5 1243.3c-0.6-1-0.2-2.2 0.8-2.8l7.3-4.1c1-0.5 2.3-0.2 2.8 0.8 0.6 1 0.2 2.3-0.8 2.8l-7.3 4.1c-1 0.6-2.3 0.2-2.8-0.8z"/>
					<path id="&lt;Path&gt;" class="s0" d="m2688.8 1241.6l-12.9-23.1-2.6 1.4 13 23.3z"/>
					<path id="&lt;Path&gt;" class="s0" d="m2671.1 1252.2l-13.4-24.1-1.1 0.6 13.4 24.1z"/>
					<path id="&lt;Path&gt;" class="s0" d="m2654.8 1261.8l-13.9-24.8-1.1 0.6 13.9 24.9z"/>
					<path id="&lt;Path&gt;" class="s0" d="m2640.9 1270l-14.2-25.4-1.1 0.5 14.2 25.6z"/>
					<path id="&lt;Path&gt;" class="s0" d="m2627.1 1278.2l-14.6-26.1-1.1 0.6 14.6 26.2z"/>
					<path id="&lt;Path&gt;" class="s0" d="m2614.3 1285.8l-14.9-26.7-1.2 0.5 15 26.9z"/>
					<path id="&lt;Path&gt;" class="s0" d="m2601.5 1293.4l-15.3-27.4-1.1 0.6 15.3 27.4z"/>
					<path id="&lt;Path&gt;" class="s0" d="m2590.7 1299.8l-15.6-27.9-1.1 0.6 15.6 27.9z"/>
					<path id="&lt;Path&gt;" class="s0" d="m2579.9 1306.2l-15.9-28.4-1.1 0.6 15.9 28.4z"/>
					<path id="&lt;Path&gt;" class="s0" d="m2569.4 1312.4l-16.1-28.9-1.1 0.6 16.1 28.9z"/>
					<path id="&lt;Path&gt;" class="s0" d="m2559.6 1318.2l-16.3-29.4-1.1 0.6 16.4 29.4z"/>
					<path id="&lt;Path&gt;" class="s0" d="m2550.4 1323.7l-16.6-29.9-1.1 0.6 16.6 29.9z"/>
					<path id="&lt;Path&gt;" class="s0" d="m2533.7 1333.6l-17.1-30.7-1.1 0.6 17.1 30.7z"/>
					<path id="&lt;Path&gt;" class="s0" d="m2525.6 1338.4l-17.3-31-1.1 0.6 17.3 31z"/>
					<path id="&lt;Path&gt;" class="s0" d="m2518.9 1342.3l-17.5-31.3-1.1 0.6 17.5 31.4z"/>
					<path id="&lt;Path&gt;" class="s0" d="m2511.9 1346.5l-17.6-31.7-1.2 0.6 17.7 31.7z"/>
					<path id="&lt;Path&gt;" class="s21" d="m2723.4 1196.4l-1-1.7 5-2.8 1 1.7z"/>
					<path id="&lt;Path&gt;" class="s21" d="m2732.6 1212.9l-0.7-1.2 4.5-2.5 0.6 1.2z"/>
					<path id="&lt;Path&gt;" class="s21" d="m2708.1 1204.9l-0.8-1.3 5.4-3 0.7 1.3z"/>
					<path id="&lt;Path&gt;" class="s21" d="m2717.3 1221.4l-1-1.8 4.8-2.7 1 1.8z"/>
					<path id="&lt;Path&gt;" class="s21" d="m2692.7 1212.8l-0.9-1.5 4.7-2.6 0.8 1.5z"/>
					<path id="&lt;Path&gt;" class="s21" d="m2702.8 1231.4l-0.5-0.9 4.3-2.4 0.5 0.9z"/>
					<g id="&lt;Group&gt;">
						<path id="&lt;Path&gt;" class="s0" d="m2542.4 1328.4l-16.8-30.2-1.1 0.6 16.8 30.2z"/>
					</g>
				</g>
				<path id="&lt;Path&gt;" class="s3" d="m2455.8 1391.7c-0.2 0.5 7 2 13.6 3.9 6.5 1.9 17.3 1.9 16.8 3.5-0.4 1.2-7 1.9-13.1 1.5 1.5 0.6 2.2 1.3 1.4 1.8-3.3 2.1-22.4 0.9-39.9-6.5-17.5-7.5-119.3-63.4-109-79.1 3.8-5.8 20.1-22.5 29.4-34l26.7 20.8-13.7 15c21 22.5 53.2 46.9 54.9 48.1 4.4 3.2 13 0.4 15 0.4 10.6-0.3 24.2-0.4 26.5 3.1 2.3 3.6-7.6 2.4-13.5 4.2-5.8 1.8 13.7 17.2 34 16 20.2-1.3-2.7 7.7-9.4 5.9-6.7-1.8-19.3-5.4-19.7-4.6z"/>
				<path id="&lt;Path&gt;" class="s3" d="m2683.3 1244.7c-0.4-1-1.3-0.2-2.5 1.6 1.5-6.4 1.3-14.3 0.1-15-1.4-0.9-2.3 10.2-5.5 16.2-3.3 6-6.3 13.4-6.7 13-0.8-0.5 3.8-8.5 7-14.7 3.2-6.1 0.8-34.4-2.2-14.2-3 20.3-22.6 35.8-23.2 29.6-0.6-6.2 2.7-15.6-1.3-14.3-4.1 1.4-5.2 15.3-8.8 25.4-0.4 1.2-0.4 4.7-0.4 8.9 0 2.2-1.4 4.1-3.4 4.9l12.5 15.8c4-2.8 7.5-5.5 10.3-7.9 21.7-18.2 25.8-44.8 24.1-49.3z"/>
				<path id="&lt;Path&gt;" class="s4" d="m2539.7 1686.6c8.3 7 18.1 16.7 20.7 15.5 3.1-1.6 1.3-15.8-7.1-24.6-8.4-8.8-11.9-32.5-14-41.4-2-9-0.6-14.9-15.9-14.9q-0.2 0-0.5-0.1c0 0 22.2 60.2 16.9 65.5z"/>
			</g>
			<g id="&lt;Group&gt;">
				<path id="&lt;Path&gt;" class="s3" d="m2919.8 1662.5c0 0 1.6 13.4 1.6 15.7 0 2.3 0 2.3 0 2.3l-1.1 2.3-0.5 0.9 8 11.3c0 0 32.2 0.4 32.9 0.4 0.8 0-4.3-7.7-4.3-7.7 0 0-10.6-8-12.5-13.7-1.9-5.6 1.6-17.3 1.6-17.3z"/>
				<path id="&lt;Path&gt;" class="s3" d="m2764.7 1582.4c0 0-11.5 7.1-13.2 8.5-1.8 1.4-1.8 1.4-1.8 1.4l-1.1 2.3-0.5 0.9-13.8 0.7c0 0-20.4-24.9-20.8-25.4-0.4-0.6 5.9 0.8 5.9 0.8 0 0 12.8 1.8 18.4-0.2 5.6-2 16.9-13.2 16.9-13.2z"/>
				<path id="&lt;Path&gt;" class="s8" d="m2868.9 1456.7l-123.5 105.1 19 26.9c0 0 121.2-76.1 127.8-77 6.7-0.9 17.1 1.4 18.3 6.3 1.3 4.8 5.2 148.3 5.2 148.3h32.9l17.2-183.1z"/>
				<g id="&lt;Group&gt;">
					<path id="&lt;Path&gt;" class="s3" d="m3046.7 1306.7c9.2-6 30.6-29 37.9-36.9 0.1-0.9 0.8-6.2 6.6-13 4.1-4.8 7.3-15.7 10-12.6 2.7 3.1-4 11.8-1 11.8 3.1 0.1 18.4-17.1 20.8-14.3 2.5 2.8-13 18.1-10.3 18.1 2.8 0.1 15.4-15.4 18.9-11.4 3.4 3.9-16.5 16.8-14.7 18.9 1.9 2.1 14.2-6.3 17-3.1 2.8 3.2-17.4 10.7-15.8 10.7 1.6 0.1 13.3-0.2 13.4 2 0.1 2.5-29.6 6.5-33.2 10.9-7.7 12.3-21.5 34.9-35.5 44.7-17.1 12.1-56.5 37.8-56.5 37.8l-19.7-25.3c0 0 51.3-31.2 62.1-38.3z"/>
					<path id="&lt;Path&gt;" class="s16" d="m3100.2 1261.5c0.8 1.5 1.1 3.1 1.2 4.7 0 0.3 0.7 5.6-3.8 9.6 1.7-3.3 3.7-6.9 2.6-14.3z"/>
				</g>
				<g id="&lt;Group&gt;">
					<path id="&lt;Path&gt;" class="s3" d="m2865.7 1278.9c-7.2-8.1-21.9-36-26.9-45.4 0.2-0.9 0.9-6.3-2.9-14.3-2.8-5.7-2.9-17.1-6.4-14.8-3.4 2.3 0.8 12.4-2.2 11.7-2.9-0.8-13.2-21.3-16.3-19.3-3.1 2.1 7.9 20.9 5.2 20.2-2.7-0.7-10.8-18.9-15.1-16-4.4 3 11.5 20.6 9.1 22.1-2.3 1.6-12.1-9.8-15.6-7.4-3.5 2.3 14.1 14.9 12.5 14.5-1.6-0.4-12.8-3.8-13.4-1.6-0.8 2.4 26.8 14 29.1 19.2 4.3 13.9 11.7 39.2 22.6 52.4 13.3 16.2 44.7 51.3 44.7 51.3l25.6-19.4c0 0-41.4-43.5-50-53.2z"/>
					<path id="&lt;Path&gt;" class="s16" d="m2825.9 1221.3c-1.1 1.3-1.8 2.8-2.4 4.3 0 0.3-2.1 5.2 1.2 10.3-0.8-3.6-1.7-7.7 1.2-14.6z"/>
				</g>
				<path id="&lt;Path&gt;" class="s14" d="m2886.5 1297.7l-23.1 30 28.6 42.6c0 0-2.7 31.6-6.8 41.5-4.1 9.9-28 50.4-28 50.4 0 0 58 35.5 114.7 30.3 0 0 15.9-82.1 20.4-90 4.5-7.9 47.8-47.1 47.8-47.1l-21-33.9-36.3 20.1c0 0-66.2-10.7-69.4-13.9-3.2-3.2-26.9-30-26.9-30z"/>
				<path id="&lt;Path&gt;" class="s4" d="m2961.2 1236.2c0 0-22.3-11.9-30 7.7 0 0-20.1-2-16.6 18.8 0 0-20.3 10.2-7.5 36.4 0 0-5.6 24.6 23.3 26.2 0 0 4.3 8.7 17.4 6.7 13.2-2 16.5-5.5 16.5-5.5 0 0 23.4 6.8 30.4-14.2 0 0 16.1-3.9 5.3-24.5 0 0 14-26.6-10.7-34.6 0 0-2.8-27.3-28.1-17z"/>
				<path id="&lt;Path&gt;" class="s3" d="m2970.3 1294c-1.9 5-0.5 10.1 2.9 11.4 3.4 1.2 7.7-1.9 9.5-7 1.8-5.1 0.5-10.2-2.9-11.4-3.5-1.2-7.7 1.9-9.5 7z"/>
				<path id="&lt;Path&gt;" class="s3" d="m2909.9 1281.5c-0.2 5.4 2.5 9.9 6.1 10.1 3.7 0.1 6.8-4.1 7.1-9.5 0.2-5.4-2.5-9.9-6.1-10-3.7-0.2-6.8 4-7.1 9.4z"/>
				<path id="&lt;Path&gt;" class="s3" d="m2935.5 1317.2c0 0.3-2.9 12.8-4.4 19.4-0.6 2.5 0.6 5 2.9 6 6.2 2.8 18.3 6.8 26.6-0.8 0.8-0.7 1.2-1.7 1.2-2.7l-1.1-29.8z"/>
				<path id="&lt;Path&gt;" class="s16" d="m2933.9 1324.2c6.6 3.2 14.7 3.3 23.9-2.1q1.8-1 3.3-2.2l-0.4-10.6-25.2 7.9c0 0.1-0.7 3.1-1.6 7z"/>
				<path id="&lt;Path&gt;" class="s3" d="m2953.4 1248.3c0 0 11 2.9 17.5 13.7 6.5 10.7 10 41.7-13.1 55.2-23.1 13.6-39.9-7.4-39.5-27.3 0.5-19.8 9.3-45.2 35.1-41.6z"/>
				<path id="&lt;Path&gt;" class="s14" d="m2914 1703.2c-4.9-0.6 3.5-17.7 6.3-20.4l36.1 4.9c0 0 17.4 8 21.6 12.2 1 1 1.1 2.7-3.2 3.3-13.6 2-49.9 1.4-60.8 0z"/>
				<path id="&lt;Path&gt;" class="s14" d="m2736.2 1612.5c4.2 2.6 11.9-14 12.4-17.9l-29.2-23c0 0-22.6-6.4-27.1-1.9-4.1 4.1 34.2 37 43.9 42.8z"/>
			</g>
			<g id="&lt;Group&gt;">
				<g id="&lt;Group&gt;">
					<g id="&lt;Group&gt;">
						<path id="&lt;Path&gt;" class="s3" d="m872.2 1623.8c0 0-10.6 10.6-10.9 14.5-0.2 3.9-0.9 45.6 3.4 49.5 4.4 3.9 17.2 6.6 13.1 11-3.1 3.3-27.1 2.6-42.9 1.7-4.7-0.2-10.5-37.9-12.3-43.4-2.7-8-12.3-25.5-9.8-31.1 1.1-2.7 9.9-8.9 17.9-14.2 8.3-5.5 16.3-17.7 16.3-17.7z"/>
						<path id="&lt;Path&gt;" class="s3" d="m1015 1649.8c0 0-9.5 27.5-9.5 27.6-0.7 4.3-3.5 15.1-3.5 19.1 0 14.8 65.8-12.7 51.1-19.3-1.4-0.6-5.6-5.3-6-10.4-0.7-7.8 5.6-17.6 5.6-17.6z"/>
						<g id="&lt;Group&gt;">
							<path id="&lt;Path&gt;" class="s7" d="m1105.9 1127.9l23.9 62.1c0 0 15.5 148 6.5 236.7-3.8 37.1-85.8 235.5-85.8 235.5l-40.8-5.8 54.6-235-20.1-89.9-28.4-177.6z"/>
							<path id="&lt;Path&gt;" class="s11" d="m993.6 1131.2l-20.4 69-31.2 208.6-105.2 195c0 0 15.8 24.4 32.8 28.3l149.4-197.2 80.9-246.8-2.8-54.8z"/>
						</g>
						<path id="&lt;Path&gt;" class="s22" d="m1307.6 1016.1c-12.2 5.6-11 7.9-12.5 8.6-1.9 0.8-27.7-7.5-27.7-7.5 0 0-76.1-23.6-80.2-25.1l-63.9-62-33.7 30.1c0 0 71 65.2 75.2 67.8 4.2 2.7 110 19.9 119.3 21.8 0 0 10.4 7.2 17.1 11.5 6.6 4.4 14.5 4.8 16.5 5.7 0.3 0.1 7.2 2.5 16.3 2.6 7.8 0.1 0.4-4.4 0.4-4.4 0 0-14.5-3.5-14.1-4.8 0.3-1.1 8.1 1.4 16.8 1.6 2.2 0.1 4.4 0.2 6.4 0.2 5.3 0.1 6.8-3.9 1.3-5.1-2-0.4-5.2-1-7.6-1-2.6 0-4.9-1.1-7.1-1.5-4.2-0.8-7.4-1.3-7.2-1.5 0.1-0.3-0.6-1.2 1.7-1.2 2.9-0.1 8.9 1.5 13.1 1.1 2.4-0.3 7.3-0.4 7.3-0.4 0 0 8.1-1.3 8.1-1.9 0.3-3.1-5.7-4.2-8.9-3.4-2.2-0.7-7.5-0.4-7.5-0.4 0 0-10.7-2.2-10.5-4.1 0.2-1.5 26.7-2.2 26.8-5.4 0-2.6-7.9-2.8-7.9-2.8 0 0-4.9 0.3-6.5 0.3-1.9-0.1-7.5-0.8-7.5-0.8 0 0-19.6-3.5-19.3-5.3 0.4-1.7 2.7-5.8 3.9-6.1 1.3-0.3 3.9 0.7 5.2 0.4 1.2-0.3 2.7-2.1 2.5-4-0.2-2-6.8-3.4-6.8-3.4 0 0-5.4-1.2-9 0.4z"/>
						<path id="&lt;Path&gt;" class="s17" d="m1146.3 945.8l-32.1 43.7c0 0-28.3-34.1-41-51.2-15.4-20.8-32.3-49.5-29.8-51 7-4.4 15.8-9.1 26.1-6.4 35.7 9.4 76.8 64.9 76.8 64.9z"/>
						<path id="&lt;Path&gt;" class="s7" d="m831.2 1611.6c0 0 22.5 69.2 32.1 72.6 2.5 0.9 16.9 4.5 19.3 10.1q0 0.2 0.1 0.4c0.7 3.5-2.2 6.8-5.7 6.8h-45.7c0 0-6.5-31.1-9.1-44.8 0 0-13.6-33.3-12.1-36.4 1.6-3 21.1-8.7 21.1-8.7z"/>
						<path id="&lt;Path&gt;" class="s7" d="m998.2 1701.4l7.4-24.3c0 0 16 6.8 23.9 5.7 7.9-1.1 23.4-5.7 23.4-5.7 31.6 10.6 57.5 15.7 52.8 24.3z"/>
						<path id="&lt;Path&gt;" class="s23" d="m1297.9 1037.3c5.8-0.2 10.5-2.7 13.9-8.5-1.2 8-8.8 11.3-13.9 8.5z"/>
						<path id="&lt;Path&gt;" class="s14" d="m1001.8 879.6c0 0-38.2 4.1-51 8.6-10.7 3.7-25.1 38.8-25.1 38.8 0 0 57.9 168.2 55.6 198.3-2.3 30-8.7 74.6-8.7 74.6 0 0 114 7.2 157.2-9.9 0 0-13.6-68.2-13.6-86.1 0-17.9-7.7-196.7-13.1-206-5.5-9.4-16.5-14.7-37.3-19.3-20.9-4.6-64 1-64 1z"/>
						<path id="&lt;Path&gt;" class="s3" d="m1009.4 829.6l-7.6 50c0 0 22.9 26.5 39.4 21.4 14-4.4 10.3-24 10.3-24 0 0-7.6-28.3-5.3-42.5 2.3-14.2-36.8-4.9-36.8-4.9z"/>
						<path id="&lt;Path&gt;" class="s23" d="m1046.2 834.5c2.3-14.2-36.8-4.9-36.8-4.9l-0.6 4.1c1.1 2.8 2.5 5.2 4.2 7 8.7 9.4 22.4 15 34.2 15.4-1.2-7.6-1.9-15.8-1-21.6z"/>
						<g id="&lt;Group&gt;">
							<path id="&lt;Path&gt;" class="s3" d="m1003 758.8c-1.1-0.4-8.9 57 5.8 72.8 14.7 15.8 43.4 20.9 53.7 8.5 11.3-13.8 10.8-75.5-12.1-91.7-22.9-16.3-47.4 10.4-47.4 10.4z"/>
							<path id="&lt;Path&gt;" class="s7" d="m1041.7 717.7c-17.7 3.6-29.1 14.4-33.3 19-8.1 0.9-19 5.3-30.2 23.9-13.9 22.9-3.6 48.3 12.5 60.7 16.1 12.5 15.9 26.8 15.9 26.8l2.5-7.4c1.9-5.6 2.7-11.6 2-17.5-0.3-3.6-1.1-7.4-2.6-10.5-3.8-8.3 8.4-13.9 11.8-20.8 2.6-5.3 2.7-17.5 6.9-26.3l5-6.7c0 0 11.4-8.9 22.6-6.4 11.2 2.5 9.6-39.4-13.1-34.8z"/>
							<path id="&lt;Path&gt;" class="s3" d="m1019.5 802.1c0.1 7-3 12.8-7.1 12.8-4 0.1-7.4-5.5-7.5-12.5-0.2-7 3-12.7 7.1-12.8 4-0.1 7.4 5.5 7.5 12.5z"/>
						</g>
					</g>
				</g>
				<g id="&lt;Group&gt;">
					<path id="&lt;Path&gt;" class="s8" d="m1856.1 1699.2c-15.8-282.9-170.9-626.7-439.4-628.7-225-1.7-364 346-380.8 628.7z"/>
					<path id="&lt;Path&gt;" class="s8" d="m1647.8 1634.5h-529.6l232.6-565.7 176.4 55.1c0 0 54 50.5 79.1 143 25.1 92.5 41.5 367.6 41.5 367.6z"/>
					<path id="&lt;Path&gt;" class="s4" d="m1630.1 1699.2l-322.2-683.9 191.4 66.7c0 0 58.6 61 85.8 172.8 27.3 111.8 45 444.4 45 444.4z"/>
					<path id="&lt;Path&gt;" class="s9" d="m1055.6 1699.2l333.5-511.6-81.2-172.3-53.8 85.7z"/>
					<g id="&lt;Group&gt;">
						<path id="&lt;Path&gt;" class="s5" d="m1866.4 1669.4l-279.2-447.2 5.9-3.5 283.3 450.7z"/>
					</g>
					<g id="&lt;Group&gt;">
						<path id="&lt;Path&gt;" class="s9" d="m1884 1614.8l-0.7 84.4h-8.4l-15.4-84.7 6.9 0.1z"/>
						<path id="&lt;Path&gt;" class="s1" d="m1859.5 1614.5c0-1.3 5.4-2.3 12.1-2.3 6.6 0 12 1 12 2.3 0 1.3-5.4 2.4-12 2.4-6.7 0-12.1-1.1-12.1-2.4z"/>
						<path id="&lt;Path&gt;" class="s5" d="m1884.8 1682h-16.9c-2.5 0-4.5-2-4.5-4.5v-5.3c0-2.5 2-4.5 4.5-4.5h16.9c2.5 0 4.5 2 4.5 4.5v5.3c0 2.5-2 4.5-4.5 4.5z"/>
					</g>
					<g id="&lt;Group&gt;">
						<path id="&lt;Path&gt;" class="s4" d="m1552.7 1175.8l7.7-11.7 49.8 75.3-7.7 11.7z"/>
					</g>
					<path id="&lt;Path&gt;" class="s24" d="m1406.4 1653.3h-6.2v-344.6h6.2z"/>
				</g>
				<path id="&lt;Path&gt;" class="s22" d="m1210.5 1116.4c-11.7-3.4-146.3-37.9-151.4-41.2-5.1-3.4-88.2-81-88.2-81l47.6-25.2 74.5 73.3c5 2.1 100.3 38.4 100.3 38.4 0 0 29.2 11.9 31.7 11.4 2.2-0.5 5.3 1.2 21.9-2.5 4.8-1.1 15.7-3 15.7-1 0 2-6.5 7.7-3.3 12.4 0.6 0.9 14.8 5.2 15.9 7.5 0.6 0.6-8.5 30-27 24.7-4.6-1.2-37.7-16.8-37.7-16.8z"/>
				<path id="&lt;Path&gt;" class="s17" d="m996.6 1029.9l54.5-35.7c0 0-63.2-95.8-84.7-105.7-14.9-6.8-33.4 3.5-40.6 28.7-7.9 27.3 70.8 112.7 70.8 112.7z"/>
			</g>
			<path id="&lt;Path&gt;" class="s14" d="m2303.8 1444.2h-399.8c0-16.2 13.1-29.3 29.2-29.3h341.3c16.1 0 29.3 13.1 29.3 29.3z"/>
			<g id="&lt;Group&gt;">
				<path id="&lt;Path&gt;" class="s14" d="m2251.2 1699.2l-313.4-261.2 14-16.9 333.7 278.1z"/>
			</g>
			<g id="&lt;Group&gt;">
				<path id="&lt;Path&gt;" class="s14" d="m2002.8 1699.2h-25.3l255.6-277.2 16 15.1z"/>
			</g>
			<g id="&lt;Group&gt;">
				<path id="&lt;Path&gt;" class="s8" d="m1941.1 1325.6v65.6c0 12.6 10.3 22.9 23 22.9h143.7c12.6 0 22.9-10.3 22.9-22.9v-65.6z"/>
				<path id="&lt;Compound Path&gt;" class="s16" d="m2122.9 1397.5l7.8-6.2q0-0.1 0-0.1v-4.1l-10.5 8.3-11.3-8.8 11.2-8.9 10.6 8.3v-4.3l-7.9-6.1 7.9-6.2v-4.3l-10.6 8.4-11.3-8.8 11.3-8.9 10.6 8.3v-4.2l-7.9-6.2 7.9-6.3v-4.2l-10.6 8.4-11.3-8.8 11.2-8.9 10.7 8.3v-4.2l-8-6.2 7.8-6.2h-5.4l-5.1 4-5.2-4h-5.4l7.9 6.2-11.2 8.8-11.3-8.8 7.9-6.2h-5.4l-5.2 4.1-5.3-4.1h-5.4l8 6.2-11.3 8.9-11.3-8.8 8-6.3h-5.4l-5.3 4.2-5.3-4.2h-5.5l8.1 6.3-11.2 8.9-11.3-8.8 8.1-6.4h-5.4l-5.4 4.3-5.5-4.3h-5.4l8.2 6.4-11.3 8.8-11.2-8.8 8.1-6.4h-5.4l-5.4 4.3-5.6-4.3h-5.4l8.2 6.4-11.2 8.9-11.3-8.8 8.3-6.5h-5.4l-5.6 4.4-5.6-4.4h-5.4l8.3 6.5-11.2 8.9-11.3-8.8 8.3-6.6h-5.4l-5.6 4.5-5.7-4.5h-5.5l8.5 6.6-8.6 6.7v8.5l8.6 6.7-8.6 6.8v8.4l8.7 6.7-8.7 6.8v8.3l8.7 6.8-5.7 4.5q0.8 1.5 1.8 2.8l6.6-5.2 11.3 8.8-5.7 4.5q2.2 0.6 4.5 0.8l3.9-3.1 4.1 3.1h5.4l-6.8-5.3 11.3-8.8 11.3 8.8-6.8 5.3h5.4l4.1-3.2 4.1 3.2h5.5l-6.9-5.3 11.2-8.9 11.3 8.8-6.9 5.4h5.4l4.2-3.3 4.3 3.3h5.4l-7-5.4 11.3-8.9 11.2 8.8-6.9 5.5h5.4l4.3-3.4 4.3 3.4h5.4l-7-5.5 11.2-8.8 11.3 8.8-7.1 5.5h5.4l4.4-3.4 4.4 3.4h5.4l-7.1-5.5 11.2-8.9 11.3 8.8-7.1 5.6h5.4l4.4-3.5 4.3 3.4q2.2-0.3 4.3-1l-5.9-4.5 11.3-8.9 6.2 4.9q1-1.4 1.8-2.9zm-5.5-21.9l-11.2 8.9-11.3-8.8 11.2-8.9zm-148.2-10.6l11.2-8.8 11.3 8.8-11.2 8.9zm8.5 10.9l-11.2 8.8-11.3-8.8 11.2-8.8zm16.7-8.9l11.3 8.8-11.3 8.9-11.2-8.8zm2.7-2.2l11.2-8.8 11.3 8.8-11.3 8.8zm25.3 2.1l11.3 8.8-11.3 8.9-11.3-8.8zm2.7-2.2l11.3-8.8 11.3 8.8-11.3 8.8zm25.3 2.1l11.2 8.8-11.2 8.9-11.3-8.8zm2.7-2.2l11.3-8.8 11.3 8.8-11.3 8.8zm25.2 2.1l11.3 8.8-11.2 8.9-11.3-8.8zm2.7-2.2l11.2-8.8 11.3 8.8-11.2 8.8zm25.2-19.8l11.3 8.8-11.3 8.8-11.3-8.8zm-14-10.9l11.3 8.8-11.2 8.9-11.3-8.8zm-13.9 11l11.2 8.8-11.2 8.8-11.3-8.8zm-14-10.9l11.3 8.8-11.2 8.9-11.3-8.8zm-14 11l11.3 8.8-11.2 8.8-11.3-8.8zm-14-10.9l11.3 8.8-11.3 8.9-11.2-8.8zm-14 11l11.3 8.8-11.2 8.8-11.3-8.8zm-14-10.9l11.3 8.8-11.3 8.9-11.3-8.9zm-13.9 11l11.3 8.8-11.3 8.9-11.2-8.8zm-14-10.9l11.2 8.8-11.2 8.8-11.3-8.8zm-13.9 11l11.3 8.8-11.3 8.9-11.3-8.8zm-25.2-2.1l11.2-8.8 11.3 8.8-11.2 8.8zm0 21.9l11.3-8.8 11.3 8.8-11.3 8.8zm11.4 30.8l-11.3-8.9 11.2-8.8 11.3 8.8zm14 10.9l-11.3-8.8 11.3-8.8 11.2 8.8zm14-11l-11.3-8.8 11.2-8.9 11.3 8.8zm14 10.9l-11.3-8.8 11.3-8.8 11.3 8.8zm13.9-11l-11.3-8.8 11.3-8.9 11.2 8.8zm14 10.9l-11.3-8.8 11.3-8.8 11.3 8.8zm13.9-11l-11.3-8.8 11.3-8.9 11.3 8.8zm14 11l-11.3-8.9 11.2-8.8 11.3 8.8zm13.9-11l-11.2-8.8 11.2-8.9 11.3 8.8zm14 11l-11.3-8.8 11.2-8.9 11.3 8.8zm14-11l-11.3-8.8 11.2-8.9 11.3 8.9zm14 10.9l-11.3-8.8 11.2-8.9 11.3 8.8z"/>
				<g id="&lt;Group&gt;">
					<path id="&lt;Path&gt;" class="s4" d="m2125.4 1325.6h-184.6c-7.3 0-13.3-6-13.3-13.4v-1.4c0-7.3 6-13.3 13.3-13.3h184.6c7.4 0 13.4 6 13.4 13.3v1.4c0 7.4-6 13.4-13.4 13.4z"/>
					<path id="&lt;Compound Path&gt;" class="s14" d="m2125.4 1326.8h-184.6c-8 0-14.5-6.5-14.5-14.6v-1.4c0-8 6.5-14.5 14.5-14.5h184.6c8.1 0 14.6 6.5 14.6 14.5v1.4c0 8.1-6.5 14.6-14.6 14.6zm-184.6-28.1c-6.7 0-12.1 5.4-12.1 12.1v1.4c0 6.7 5.4 12.2 12.1 12.2h184.6c6.7 0 12.2-5.5 12.2-12.2v-1.4c0-6.7-5.5-12.1-12.2-12.1z"/>
				</g>
				<path id="&lt;Path&gt;" class="s8" d="m2100.2 1315l-0.8 0.6c-4.3 3.3-10.4 2.4-13.6-1.9l-47.6-63.4c-1.1-1.5-0.8-3.6 0.7-4.7l11-8.3c1.5-1.1 3.6-0.8 4.7 0.7l47.5 63.4c3.2 4.3 2.4 10.4-1.9 13.6z"/>
				<path id="&lt;Path&gt;" class="s8" d="m1967.2 1316.4l0.9 0.6c4.3 3.2 10.3 2.3 13.6-2l47.5-63.4c1.1-1.5 0.8-3.5-0.7-4.7l-11-8.2c-1.5-1.1-3.6-0.8-4.7 0.6l-47.5 63.5c-3.2 4.3-2.4 10.3 1.9 13.6z"/>
				<g id="&lt;Group&gt;">
					<path id="&lt;Path&gt;" class="s17" d="m1978 1308.2c0 2.2-1.8 4-4 4-2.2 0-4-1.8-4-4 0-2.2 1.8-4 4-4 2.2 0 4 1.8 4 4z"/>
					<path id="&lt;Compound Path&gt;" class="s8" d="m1974 1312.4c-2.3 0-4.2-1.9-4.2-4.2 0-2.3 1.9-4.3 4.2-4.3 2.3 0 4.2 2 4.2 4.3 0 2.3-1.9 4.2-4.2 4.2zm0-8c-2.1 0-3.8 1.7-3.8 3.8 0 2.1 1.7 3.8 3.8 3.8 2.1 0 3.8-1.7 3.8-3.8 0-2.1-1.7-3.8-3.8-3.8z"/>
				</g>
				<g id="&lt;Group&gt;">
					<path id="&lt;Path&gt;" class="s17" d="m2098.5 1308.2c0 2.2-1.9 4-4.1 4-2.2 0-4-1.8-4-4 0-2.2 1.8-4 4-4 2.2 0 4.1 1.8 4.1 4z"/>
					<path id="&lt;Compound Path&gt;" class="s8" d="m2094.4 1312.4c-2.3 0-4.2-1.9-4.2-4.2 0-2.3 1.9-4.3 4.2-4.3 2.4 0 4.3 2 4.3 4.3 0 2.3-1.9 4.2-4.3 4.2zm0-8c-2.1 0-3.8 1.7-3.8 3.8 0 2.1 1.7 3.8 3.8 3.8 2.1 0 3.8-1.7 3.8-3.8 0-2.1-1.7-3.8-3.8-3.8z"/>
				</g>
				<path id="&lt;Path&gt;" class="s17" d="m1994.8 1297.5l43.5 45.4 35.3-45.4z"/>
			</g>
			<path id="&lt;Path&gt;" class="s10" d="m1363.7 577.2c-3.2 25.1 23 45 46.2 43.5 25.8-1.8 47.6-22.9 51.3-48.2 4.1-27.3-12.3-49.2-37.8-51.2-24.7-2-40.6 20.1-33.4 42.3 5.1 16 19.7 21.9 27 17.5 5.7-3.4 5.4-12.1-1.5-13.6-2.8-0.6-5.7 0.9-7.1 3.1-6.1-2.4-11.9-13.5-8-25.4 5-15.2 24.3-16 36.2-9 15.2 9.1 17.6 28.5 12 44-5.8 16.3-21.8 29.1-39.2 30.3-19.7 1.4-37-13.7-38.6-33.3-0.4-4.6-6.5-4.5-7.1 0z"/>
			<path id="&lt;Path&gt;" class="s2" d="m898.4 821.9l-11.7 5.2-10.4-17.9-18 5.4-10-12.1-6.1 5 13.3 16.3 17.1-5.2 10.8 18.6 17.6-7.8z"/>
			<g id="&lt;Group&gt;">
				<path id="&lt;Path&gt;" class="s10" d="m1104.4 637.5l-4.4-32.2-21.1 5-2.4-10.1 32.2-7.6 4.4 32 24.6-6.2 4.6 29.1 26.2-2.9 1.1 10.3-36.1 4-4.3-27.7z"/>
			</g>
		</g>
	</g>
</svg>