<svg version="1.2" xmlns="http://www.w3.org/2000/svg" viewBox="0 0 3500 2000" width="3501" height="2001"><defs><clipPath clipPathUnits="userSpaceOnUse" id="cp1"><path d="m2814.38 1815.47c0 0 245.21 71.39 405.92-181.5 80.21-126.23 173.24-320.16-267.57-799.99-88.79-96.66-193.81-489.32-632.9-619.55-439.08-130.22-959.92-29.41-1038.82 170.01-78.9 199.41-164.66 176.6-325.88 189.7-161.23 13.11-672.35 90.45-734.1 304.79-61.75 214.34 222.97 401.12 202.39 503.01-20.58 101.88-220.91 318.63-131.03 410.62 17.8 18.23 67.97 38.49 138.18 38.49 308.03 0 877.88-5.92 877.88-5.92z"/></clipPath></defs><style>.a{fill:#caf0ff}.b{fill:#83bde5}.c{mix-blend-mode:multiply;fill:#e3eef4}.d{opacity:.2;fill:#fff}.e{mix-blend-mode:multiply;fill:#c8e5f7}.f{fill:#3c8f7c}.g{fill:#2a806c}.h{fill:#fff}.i{opacity:.4;mix-blend-mode:screen;fill:#fff}.j{fill:#13375b}.k{fill:#f48c7f}.l{fill:#d0f0fd}.m{fill:#001e6e}.n{fill:#001653}.o{fill:#b2cffa}.p{fill:#f7cc7f}.q{fill:#f47458}.r{fill:#b75742}.s{fill:#86b1f2}.t{fill:#f7a491}.u{fill:#f7604b}.v{fill:#e6f8ff}.w{fill:#f7aba2}</style><path class="a" d="m2814.4 1821.5c0 0 245.2 71.4 405.9-181.5 80.2-126.3 173.2-320.2-267.6-800-88.8-96.7-193.8-489.3-632.9-619.6-439.1-130.2-959.9-29.4-1038.8 170-78.9 199.5-164.6 176.6-325.9 189.7-161.2 13.1-672.3 90.5-734.1 304.8-61.7 214.4 223 401.2 202.4 503-20.6 101.9-220.9 318.7-131 410.7 17.8 18.2 68 38.5 138.2 38.5 308 0 877.9-6 877.9-6z"/><g clip-path="url(#cp1)"><path class="b" d="m878.3 1058.2l712.9 545.4-1541 355.8c0 0 17.8-116.5 28.6-170.3 10.9-54.4-37.5-125.4-98.6-208.9z"/><path class="c" d="m51.2 1685.7c21.8 39 33.6 73.7 27.6 103.4-6.4 31.9-15.3 85.9-21.4 124.6-2.6 20.2-5.3 36.2-7.2 45.7l530.1-122.4-134.3-82.2 432.3-696.6-898.1 522c37.1 19.5 58.9 59 71 105.5z"/><path class="d" d="m1295.6 1377.4l-207.6-111.4v197.4l-143.1-197.4-175.2 353.5 12.3-353.5-178.9 118.4 55.6-118.4-271 85.5 490.6-293.3z"/><path class="b" d="m2303 1962l1138.7-108.5-844.3-607.2-462.4-370.7-1800.7 1060z"/><path class="e" d="m360.5 1930.2l1601-0.6-315.6-292.8 489.1-761.2z"/><path class="f" d="m3037.6 2012.7l-336.9-645.8-52 204.7-77.3-107.9-47.7 109.5-142.1-270.5-153.6 403.5-135.7-168.4-83 189.7-45.2-32.4-53.9 363.6 300.9-1z"/><path class="g" d="m2963.4 1391.6l86.2 137.5 137.2-347.8 114 268.9 112.1-39 22.8 367.6-671.9 180.8z"/><path class="f" d="m2081.3 1908.2l-86.3-272.2-861.1 88.2-103-230.6-121.3 210.8-87.1-279.6-64 78.7-69.5-216.1-99.2 186.6-158.9-564.7-321.1 944.2 785.2 78.5h377.6z"/><path class="d" d="m2562.4 1218.3l-276.3-80.4 16.4 80.4-155.7-106.5-439.6 243.1 193.9-243.1-309.9 95.2 543.8-331.4z"/><path class="h" d="m2059.5 422.9c6-25.9 29.1-45.2 56.8-45.2 5.1 0 10 0.7 14.7 1.9 13.7-29.2 43.4-49.5 77.8-49.5 8.9 0 17.5 1.3 25.5 3.9 18.5-30.7 52.2-51.2 90.6-51.2 45.8 0 84.7 29 99.5 69.6 10.4-5.8 22.5-9.1 35.3-9.1 40.1 0 72.6 32.5 72.6 72.6q0 3.5-0.4 7z"/><path class="h" d="m2810.2 1181.7c3.9-16.9 19-29.5 37-29.5 3.3 0 6.5 0.4 9.6 1.2 8.9-19 28.2-32.2 50.7-32.2 5.8 0 11.3 0.9 16.6 2.5 12.1-20 34-33.3 59-33.3 29.8 0 55.2 18.9 64.8 45.3 6.8-3.8 14.7-5.9 23-5.9 26.1 0 47.3 21.1 47.3 47.3q0 2.3-0.2 4.6z"/><path class="i" d="m3202.7 926.5c-40.1 0.7-88.3 2.4-128.3 3.1-75.7 1.4-151.5 2.7-227-2.1-42.2-2.7-84.8-7.4-124-20.1-23.7-7.6-45.8-18.1-70.1-24.3-42.8-10.9-88.9-8-133.8-9.8-69.4-2.7-137.1-16.8-204.2-30.8-103.3-21.6-358-53.9-364.5-135.8-0.8-9.4 1.9-19.3 8.9-26.9 5.4-5.9 13.7-9.6 21.8-12.8 120-47.9 263.1-31.3 397.3-39.6 34.4-2.2 69.2-6.2 100.2-18.1 36.1-13.9 67.7-38.5 107.8-40.5 28.3-1.3 65.7 5.6 77.8-14.4 3-4.9 2.8-10.6 3.7-16 4-23.3 54-38.4 80.9-46.4 93.6 31.1 141.1 76.6 205 127-7.3 0.6-14.5 1.7-21.5 3.3-25.7 6.2-47.3 20.5-73 26.9-19.7 4.9-40.7 4.8-61.4 4.7q-112.2-0.7-224.4-1.4c-14.1-0.1-28.7-0.1-41.8 3.9-12.9 3.9-23.4 11.5-35.1 17.4-38.5 19.3-87.1 19.7-132 26.4-14.3 2.2-30 6-36.8 16-11.4 16.7 10.1 35.9 31.9 44.2 87.2 33.6 194.5 1.1 287.3 23.5 24.8 6 47.8 15.9 72 23.3 79.3 24.3 167.6 22.2 252.3 15.2 52.8-4.3 105.7-10.4 158.6-12.7 24.8 35.7 46.1 70.8 64.9 103.6z"/><path class="i" d="m210.3 791.9c32.7-2.9 65.8-0.1 98.7-2.5 35.2-2.6 69.9-11.4 101.7-25.7 8.8-4 17.5-8.4 27-10.4 12.8-2.8 26.2-1.2 39.3-0.7 25.6 1 51.4-2.6 75.6-10.4 8.2-2.7 17.3-7.1 18.6-14.9 1.8-10.1-10.1-17.3-20.5-20.7-10.4-3.5-22.9-7.7-25.2-17.7-1-4.5 0.4-9.5-2.2-13.4-1.8-2.7-5.1-4.1-8.2-5.3-34.5-13.7-72.1-19.1-109.4-20.5-5.1-0.2-10.2-0.2-15.4 0 58.8-24 125.4-43 190.4-57.7 4.3 0 8.5-0.1 12.7-0.2 49.8-1.4 103.3-5.9 145.8 18 5.6 3.2 11.1 7.1 12.9 12.8 4.5 14.1-15 23.8-30.5 27.4-2.5 9.7 11.6 15.3 22.3 17 34.6 5.7 68.7 14 101.7 25 23.5 7.8 49.5 20.2 54.1 42.7 3.2 15.9-6 32.3-19.7 42.4-13.6 10.1-31 14.9-48.2 18-58.6 10.4-119.1 3.2-178.5 8.5-7.9 0.7-16.2 1.7-22.6 6-10.2 6.8-13 19.5-20.1 29.1-14.1 18.9-42.5 22.4-67.5 23.6-55.5 2.8-111.2 3.2-166.8 1.3-14-0.5-28.3-1.1-41.8 2.2-14.3 3.6-26.7 11.3-39.9 17.4-26.9 12.4-56.7 17.9-86.4 22.2-10-34-11.8-69.5-0.6-106q1.2-3.8 2.7-7.5z"/><path class="h" d="m1142.6 890.3c-6.4-28-31.4-48.8-61.3-48.8-5.5 0-10.8 0.7-15.9 2-14.7-31.5-46.7-53.4-83.9-53.4-9.6 0-18.8 1.5-27.5 4.2-20-33.1-56.3-55.2-97.8-55.2-49.3 0-91.3 31.3-107.2 75.1-11.3-6.2-24.3-9.8-38.1-9.8-43.3 0-78.3 35-78.3 78.3q0 3.8 0.4 7.6z"/><path class="j" d="m1483.7 612.1c-18.1 42.1 10.2 103.2 56.4 112 30 5.7 59.6-10.4 69.6-40.9 16.2-49.3 10-87.9-17.6-105.6-35.7-22.8-93.5-0.3-108.4 34.5z"/><path class="k" d="m1485 843.7c0 0 102.5 143.4 130 152.7 27.5 9.3 76-182.3 76-182.3 0 0 10.8-24.4 13.8-25.8 12.1-5.3-3.6-15.1-3.6-15.1l-18-39.4c0 0-1.7 1-8.9 18.2-9.8 23.3-14.2 55.9-19.1 62.7l-49.7 74.8-69.9-99.7z"/><path class="k" d="m1683.9 751.3l4.4-1.5q3-1.1 5.8-2.8c7.5-4.5 27.9-16.5 31.1-12.6 3.8 4.8-27.7 22.7-27.7 22.7 0 0 35.3-17.5 37.3-11 2.1 6.4-34.2 22.6-34.2 22.6 0 0 32.3-12.4 34-9 1.8 3.5-35.5 27.8-35.5 27.8 0 0 30.6-18.6 35.2-15.4 4.7 3.1-43.6 42.6-43.6 42.6z"/><path class="l" d="m1651.2 1715.9c-1.2 0-2.5-0.7-3.2-1.8l-77.1-124.6c-1.1-1.8-0.5-4.1 1.2-5.2 1.8-1.1 4.1-0.5 5.2 1.2l77.1 124.6c1.1 1.8 0.6 4.1-1.2 5.2-0.6 0.4-1.3 0.6-2 0.6z"/><path class="m" d="m1727.6 686.9c0 0-32.5 6.8-35.1 16.7-2.6 10-21 84.5-17 88.4 1.2 1.2 26.9-1.3 37-9.7 10.1-8.4 30.2-97.5 15.1-95.4z"/><path class="n" d="m1714.7 694.5c0 0-10.7 2.2-20.3 6 7.5-8.2 33.2-13.6 33.2-13.6 15.1-2.1-5 87-15.1 95.4-2.8 2.4-6.9 4.3-11.4 5.7 10.5-15 27.9-95.5 13.6-93.5z"/><path class="j" d="m1997.3 1824.5c-132.8 0-240.8-108-240.8-240.7 0-132.8 108-240.8 240.8-240.8 132.7 0 240.7 108 240.7 240.8 0 132.7-108 240.7-240.7 240.7zm0-451.4c-116.2 0-210.7 94.5-210.7 210.7 0 116.1 94.5 210.6 210.7 210.6 116.1 0 210.6-94.5 210.6-210.6 0-116.2-94.5-210.7-210.6-210.7z"/><path class="o" d="m1997.3 1770.6c-103 0-186.8-83.8-186.8-186.8 0-103.1 83.8-186.9 186.8-186.9 103 0 186.8 83.8 186.8 186.9 0 103-83.8 186.8-186.8 186.8zm0-366.1c-98.9 0-179.3 80.4-179.3 179.3 0 98.8 80.4 179.2 179.3 179.2 98.8 0 179.3-80.4 179.3-179.2 0-98.9-80.5-179.3-179.3-179.3z"/><path class="o" d="m1997.3 1747.1c-90.1 0-163.4-73.3-163.4-163.3 0-26.3 6.1-51.5 18-74.7 1-1.8 3.3-2.6 5.1-1.6 1.9 0.9 2.6 3.2 1.6 5.1-11.4 22.1-17.1 46.1-17.1 71.2 0 85.9 69.9 155.8 155.8 155.8 22.6 0 44.4-4.8 64.7-14.1 1.9-0.8 4.2 0 5 1.9 0.9 1.9 0.1 4.1-1.8 5-21.4 9.7-44.2 14.7-67.9 14.7z"/><path class="l" d="m2113.7 1478.4c-1 0-2-0.4-2.7-1.2-29.4-31.3-70.8-49.3-113.7-49.3-2.1 0-3.8-1.6-3.8-3.7 0-2.1 1.7-3.8 3.8-3.8 45 0 88.4 18.9 119.2 51.7 1.4 1.5 1.3 3.9-0.2 5.3-0.7 0.7-1.6 1-2.6 1z"/><path class="p" d="m1736.7 1595c-6.3 0-11.3-5-11.3-11.2 0-150 121.9-271.9 271.9-271.9 64.2 0 126.6 22.8 175.6 64.3 4.7 4 5.3 11.1 1.3 15.9-4.1 4.7-11.2 5.3-15.9 1.3-44.9-38-102.1-59-161-59-137.5 0-249.3 111.9-249.3 249.4 0 6.2-5.1 11.2-11.3 11.2z"/><path class="k" d="m1493.4 1466.5l-46.1 39.9c0 0-15.5 1.7-21.1-6.4-5.7-8.1-4.5-17-4.5-17l43-51.4z"/><path class="q" d="m1457.1 1498c9.9-3.9 0 0 11.4 35.2 10.6 23.3 22.2 32.7 18.3 37.4-4 4.7-9.5 6.7-9.5 6.7l-73.8-81.1c0 0 16.3-28.9 24.1-17.8 34.4 29.1 29.5 19.6 29.5 19.6z"/><path class="r" d="m1425.7 1095.4c0 0 262.9 114.3 262.9 178.4 0 38-192.2 206.5-192.2 206.5l-42-45.1c0 0 104.7-123 100.3-138.3-4.4-15.3-251.4-116.2-259.5-140.7-8.2-24.4 34.2-67.1 34.2-67.1z"/><path class="j" d="m1242.7 1824.5c-132.7 0-240.7-108-240.7-240.7 0-132.8 108-240.8 240.7-240.8 132.7 0 240.7 108 240.7 240.8 0 132.7-108 240.7-240.7 240.7zm0-451.4c-116.1 0-210.6 94.5-210.6 210.7 0 116.1 94.5 210.6 210.6 210.6 116.1 0 210.6-94.5 210.6-210.6 0-116.2-94.5-210.7-210.6-210.7z"/><path class="o" d="m1242.7 1770.6c-103 0-186.8-83.8-186.8-186.8 0-103.1 83.8-186.9 186.8-186.9 103 0 186.8 83.8 186.8 186.9 0 103-83.8 186.8-186.8 186.8zm0-366.1c-98.9 0-179.3 80.4-179.3 179.3 0 98.8 80.4 179.2 179.3 179.2 98.9 0 179.3-80.4 179.3-179.2 0-98.9-80.4-179.3-179.3-179.3z"/><path class="o" d="m1242.7 1747.1c-90.1 0-163.3-73.3-163.3-163.3 0-26.3 6-51.5 18-74.7 0.9-1.8 3.2-2.6 5-1.6 1.9 0.9 2.6 3.2 1.7 5.1-11.4 22.1-17.2 46.1-17.2 71.2 0 85.9 69.9 155.8 155.8 155.8 22.6 0 44.4-4.8 64.8-14.1 1.9-0.8 4.1 0 5 1.9 0.8 1.9 0 4.1-1.9 5-21.4 9.7-44.2 14.7-67.9 14.7z"/><path class="l" d="m1359.2 1478.4c-1 0-2-0.4-2.8-1.2-29.3-31.3-70.8-49.3-113.7-49.3-2.1 0-3.8-1.6-3.8-3.7 0-2.1 1.7-3.8 3.8-3.8 45 0 88.4 18.9 119.2 51.7 1.4 1.5 1.4 3.9-0.2 5.3-0.7 0.7-1.6 1-2.5 1z"/><path class="p" d="m1411 1396.1c-2.6 0-5.2-0.9-7.3-2.7-44.9-38-102.1-59-161-59-49.7 0-97.7 14.6-138.8 42.2-5.2 3.5-12.2 2.1-15.7-3.1-3.5-5.1-2.1-12.1 3.1-15.6 44.8-30.1 97.2-46 151.4-46 64.3 0 126.6 22.8 175.6 64.3 4.7 4 5.3 11.1 1.3 15.9-2.2 2.6-5.4 4-8.6 4z"/><path class="f" d="m1242.7 1558.9c-1.7 0-3-1.3-3.1-3-0.1-1.7 1.2-3.2 2.9-3.2l331.5-15.4c1.7-0.1 3.2 1.3 3.2 3 0.1 1.7-1.2 3.2-2.9 3.2l-331.5 15.4q0 0-0.1 0z"/><path class="f" d="m1578.8 1630.2q0 0-0.1 0l-336.1-15.4c-1.8 0-3.1-1.5-3-3.2 0.1-1.7 1.6-3.1 3.2-3l336.2 15.4c1.7 0 3 1.5 2.9 3.2 0 1.7-1.4 3-3.1 3z"/><path class="j" d="m1242.7 1618c-18.9 0-34.2-15.4-34.2-34.2 0-18.9 15.3-34.3 34.2-34.3 18.9 0 34.2 15.4 34.2 34.3 0 18.8-15.3 34.2-34.2 34.2z"/><path class="p" d="m1534.9 1529c-3.7 0-7.2-2.2-8.7-5.8-2-4.8 0.3-10.3 5.1-12.3 41.4-17.1 75.6-48.4 96.2-88.1l53.2-102.3c18.1-34.8 45.5-63.7 79.2-83.6l34.3-20.2c4.5-2.7 10.3-1.2 12.9 3.3 2.6 4.5 1.1 10.2-3.3 12.9l-34.3 20.2c-30.8 18.1-55.7 44.4-72.1 76.1l-53.2 102.3c-22.7 43.6-60.2 78-105.7 96.8-1.2 0.5-2.4 0.7-3.6 0.7z"/><path class="p" d="m1561.6 1578.6c-3.3 0-6.5-1.7-8.3-4.8l-207.4-371c-2.6-4.5-0.9-10.2 3.6-12.8 4.5-2.5 10.3-0.9 12.8 3.6l207.5 371c2.5 4.6 0.9 10.3-3.7 12.8-1.4 0.8-3 1.2-4.5 1.2z"/><path class="p" d="m1486.8 1593.2h-244.1c-5.2 0-9.4-4.2-9.4-9.4 0-5.2 4.2-9.4 9.4-9.4h244.1c71.2 0 135.9-39.3 168.7-102.5l53.2-102.3c18-34.8 45.4-63.7 79.2-83.6l34.3-20.3c4.5-2.6 10.2-1.1 12.9 3.4 2.6 4.4 1.1 10.2-3.4 12.8l-34.2 20.3c-30.8 18.1-55.7 44.4-72.2 76.1l-53.1 102.2c-36.1 69.5-107.1 112.7-185.4 112.7z"/><path class="p" d="m1242.7 1591.3c-1.3 0-2.6-0.3-3.8-1-3.6-2.1-4.8-6.7-2.7-10.3l166.6-286.9c2.1-3.6 6.7-4.8 10.2-2.7 3.6 2.1 4.9 6.7 2.8 10.3l-166.6 286.8c-1.4 2.4-3.9 3.8-6.5 3.8z"/><path class="j" d="m1574.1 1633.3c-27.3 0-49.5-22.2-49.5-49.5 0-27.4 22.2-49.6 49.5-49.6 27.4 0 49.6 22.2 49.6 49.6 0 27.3-22.2 49.5-49.6 49.5z"/><path class="s" d="m1214.7 1583.8c0 15.4 12.5 27.9 28 27.9 15.4 0 28-12.5 28-27.9 0-15.5-12.6-28-28-28-15.5 0-28 12.5-28 28z"/><path class="s" d="m1530.8 1583.8c0 23.9 19.4 43.3 43.3 43.3 24 0 43.4-19.4 43.4-43.3 0-24-19.4-43.4-43.4-43.4-23.9 0-43.3 19.4-43.3 43.4z"/><path class="l" d="m1609.8 1725.7c-3.6 0-6.8-2.6-7.4-6.4-0.6-4.1 2.2-7.9 6.4-8.5l82.7-12.2c4.1-0.6 7.9 2.2 8.5 6.3 0.7 4.1-2.2 7.9-6.3 8.5l-82.7 12.3q-0.6 0-1.2 0z"/><path class="f" d="m1302.4 1180.4h73.3c5.5 0 9.9 4.4 9.9 9.8v11.8c0 5.4-4.4 9.9-9.9 9.9h-92.6c-7.2 0-12.2-7.6-8.9-14.1 5.1-10.3 15.8-17.4 28.2-17.4z"/><path class="t" d="m1612.7 1595v87.5c0 0-7.5 13.6-17.4 13.6-9.9 0-19.5-3-19.5-3l-9.7-115.7z"/><path class="q" d="m1611.7 1675.6c7.9-0.9 15.4 1.2 37.6 8 24.4 7.5 38.4 3.3 40 9.3 1.5 6-0.9 6.3-0.9 6.3l-110.4 24.1c0 0-16.4-32.4-3.4-36.5 28.6-9.2 37.1-11.2 37.1-11.2z"/><path class="q" d="m1450.4 1089.8c0 0 162 123.5 183.3 224.4 21.3 100.9-16.2 315.3-16.2 315.3 0 0-20.5 10-62.4 5 0 0 0.8-280.2-14.2-300.2-15-20.1-246.4-146.1-257.6-183.7-11.3-37.6 17.6-79 17.6-79z"/><path class="u" d="m1360.2 1053.3q-0.4 0-0.8-0.1c-1.7-0.4-2.7-2.1-2.3-3.8 1.6-6.5 2.8-10.5 2.8-10.7 0.5-1.6 2.3-2.6 3.9-2.1 1.7 0.5 2.6 2.2 2.1 3.9 0 0-1.2 4.1-2.7 10.4-0.4 1.4-1.6 2.4-3 2.4z"/><path class="p" d="m1510.2 760c0 0 32 16.3 41.4 50.2 9.4 33.8 19.1 109.8 0 130.4-30.2 32.3-64.5 102.9-85.6 163.5-4.8 13.8-179.3 1.1-177.3-11.7 2.8-18 86.3-216.1 117-278.8 30.7-62.7 104.5-53.6 104.5-53.6z"/><path class="t" d="m1570.6 726.3c0 0-28.9 54.3-19.5 81.2 5.3 15 9.2 37.8 9.2 59.3 0 37.6-65.3-107.1-65.3-107.1l32-60.9z"/><path class="q" d="m1521.6 709.1c5.2 14.4 14 27.8 27.6 37.2q5.1 3.5 9.9 5.6c5.6-14.6 11.5-25.6 11.5-25.6l-43.6-27.5z"/><path class="p" d="m1997.3 1593.2c-3.3 0-6.6-1.8-8.3-4.9l-253.2-460.9c-2.4-4.4-3.7-9.3-3.7-14.4v-29.9c0-5.8-4-8.7-5.7-9.7-1.7-0.9-6.2-2.8-11.2 0.2l-44.1 26.4c-4.4 2.7-10.2 1.3-12.9-3.2-2.7-4.4-1.2-10.2 3.2-12.9l44.1-26.5c9.4-5.6 20.7-5.7 30.2-0.3 9.5 5.4 15.2 15.1 15.2 26v29.9c0 1.9 0.5 3.7 1.4 5.4l253.2 460.8c2.5 4.6 0.8 10.3-3.7 12.8-1.4 0.8-3 1.2-4.5 1.2z"/><path class="j" d="m1969.3 1583.8c0 15.4 12.5 27.9 28 27.9 15.4 0 27.9-12.5 27.9-27.9 0-15.5-12.5-28-27.9-28-15.5 0-28 12.5-28 28z"/><path class="t" d="m1711.8 1060.6c-11.8-11.8-47.4-16.6-61.5-11.9-7.6 2.5-144.7-25.1-147.4-29.7-6.4-10.8 2.3-108.5 7.3-163.1 5-54.5-0.5-61.6-13.6-75.5-11.3-12-62.9-11.4-71 13.9-15.7 48.9-1.3 260 7 268.9 30.6 33 221.2 25.8 224.7 25.8 4.7 0 13.4 10.8 18.1 10.8 4.7 0 17.9-2.8 27.9-10.7 2.6-2 20.2-16.8 8.5-28.5z"/><path class="j" d="m1462.4 641.3c-15.1-19-63.5-96.8-109.8-65.8-46.3 31.1-14.2 83.3-91.6 44.4-71.6-36-113.8 42.3-77.8 86.6-6.3 4.9-11.5 11.3-15.1 19-12.1 26.6 0.9 58.6 29 71.4 4.5 2.1 6.7 6.1 11.3 7 12.1 22.6 34.6 40.5 68.2 48.7 91.8 22.4 74.3-74.1 103.3-94.8 29.1-20.7 30.8 15.2 68 10.4 37.2-4.9 51.5-25.8 48.3-102.9l-1.9-20.3c0 0-16.8 15.4-31.9-3.7z"/><path class="t" d="m1556.7 593.8c0 0-21.5 3.3-35.7 21.8-14.2 18.5-19.9 86 21.9 114.8 41.7 28.9 70.9-18.1 73.5-54.4 2.6-36.4-2.8-85.5-59.7-82.2z"/><path class="j" d="m1496.8 662c-1.2-34.6 5.6-59.5 31.9-67.8 26.2-8.3 48.9-17.1 67 8.6l4.4 3.5c0 0-42.7 4.4-48.5 25.3-5.8 21-33 43.1-30.1 53.9 5.7 21-2 27.5-2 27.5l-3.7-3.7c0 0-17.8-12.6-19-47.3z"/><path class="t" d="m1541.1 656.1c1.9 9.9-2.2 18.7-9.1 19.9-6.9 1.1-14-5.9-15.9-15.8-1.8-9.8 2.3-18.6 9.2-19.8 6.8-1.1 13.9 5.9 15.8 15.7z"/><path class="v" d="m1997.6 468.9c0 68.5-55.6 124-124.1 124-68.5 0-124-55.5-124-124 0-68.5 55.5-124 124-124 68.5 0 124.1 55.5 124.1 124z"/><path class="v" d="m1794.5 549.4l-44.5 97.4 86.8-65.4z"/><path class="w" d="m1816.8 539.5c0 5.5 25.4 9.9 56.7 9.9 31.4 0 56.8-4.4 56.8-9.9 0-5.5-25.4-10-56.8-10-31.3 0-56.7 4.5-56.7 10z"/><path class="q" d="m1826.8 423.9c0 19.6 46.7 115.6 46.7 115.6 0 0 46.8-96 46.8-115.6 0-19.6-21-35.5-46.8-35.5-25.8 0-46.7 15.9-46.7 35.5zm26.9 6.2c0-10.7 8.9-19.4 19.8-19.4 11 0 19.9 8.7 19.9 19.4 0 10.6-8.9 19.3-19.9 19.3-10.9 0-19.8-8.7-19.8-19.3z"/></g><path class="b" d="m3200.9 1834.2l-2961 0.8c-3.2 0-5.9-4.1-5.9-9.2 0-5 2.6-9.2 5.9-9.2l2961-0.8c3.2 0 5.8 4.1 5.9 9.2 0 5.1-2.7 9.2-5.9 9.2z"/></svg>